<svg viewBox="0 0 960 540" fill="none" stroke-linecap="square" stroke-miterlimit="10" xmlns="http://www.w3.org/2000/svg"><clipPath id="a"><path d="M0 0h960v540H0V0z"/></clipPath><g clip-path="url(#a)"><path fill="#fff" d="M0 0h960v540H0z" fill-rule="evenodd"/><path d="M38.514 52.213h729.48v303.622H38.515z"/><path fill="#000" d="M57.89 84.253q-.126-.25-.204-.61-.078-.375-.11-.781-.327.328-.733.625-.407.297-.891.516-.484.218-1.047.343-.547.141-1.172.141-1 0-1.812-.297-.813-.297-1.39-.781-.563-.5-.876-1.188-.312-.687-.312-1.484 0-1.047.406-1.828.422-.781 1.187-1.297.766-.531 1.828-.781 1.079-.266 2.407-.266h2.36v-1q0-.578-.22-1.031-.203-.453-.593-.766-.375-.328-.938-.5-.547-.187-1.25-.187-.64 0-1.156.172-.5.156-.86.437-.343.266-.546.64-.188.36-.188.75h-2.172q0-.687.344-1.343.36-.672 1-1.203.656-.547 1.578-.875.938-.328 2.125-.328 1.078 0 2 .265.922.266 1.594.797.687.531 1.062 1.328.39.797.39 1.875v5.891q0 .625.11 1.344.125.703.344 1.234v.188H57.89zm-3.829-1.657q.625 0 1.172-.156.563-.172 1-.437.453-.266.781-.61.329-.36.516-.734v-2.563h-2.016q-1.89 0-2.953.563-1.047.562-1.047 1.765 0 .47.157.875.156.391.468.688.329.281.797.453.485.156 1.125.156zm18.2-11.265q.312 0 .64.031.328.016.625.062.297.032.547.094.25.047.422.125l-.297 2.125q-.625-.14-1.203-.203-.563-.078-1.188-.078-1.515 0-2.468.703-.938.688-1.391 1.922v8.14h-2.172V71.566h2.063l.109 2.016q.766-1.032 1.844-1.64 1.094-.61 2.469-.61zm14.402 0q.312 0 .64.031.329.016.625.062.297.032.547.094.25.047.422.125l-.297 2.125q-.625-.14-1.203-.203-.562-.078-1.187-.078-1.516 0-2.469.703-.938.688-1.39 1.922v8.14h-2.173V71.566h2.063l.11 2.016q.765-1.032 1.843-1.64 1.094-.61 2.469-.61zm14.433 12.922q-.125-.25-.203-.61-.078-.375-.109-.781-.328.328-.734.625-.407.297-.891.516-.484.218-1.047.343-.547.141-1.172.141-1 0-1.812-.297-.813-.297-1.39-.781-.563-.5-.876-1.188-.312-.687-.312-1.484 0-1.047.406-1.828.422-.781 1.187-1.297.766-.531 1.828-.781 1.079-.266 2.407-.266h2.36v-1q0-.578-.22-1.031-.203-.453-.593-.766-.375-.328-.938-.5-.547-.187-1.25-.187-.64 0-1.156.172-.5.156-.86.437-.343.266-.546.64-.188.36-.188.75h-2.172q0-.687.344-1.343.36-.672 1-1.203.656-.547 1.578-.875.938-.328 2.125-.328 1.078 0 2 .265.922.266 1.594.797.687.531 1.062 1.328.391.797.391 1.875v5.891q0 .625.11 1.344.124.703.343 1.234v.188h-2.266zm-3.828-1.657q.625 0 1.172-.156.563-.172 1-.437.453-.266.781-.61.329-.36.516-.734v-2.563h-2.016q-1.89 0-2.953.563-1.047.562-1.047 1.765 0 .47.157.875.156.391.468.688.329.281.797.453.485.156 1.125.156zm14.559-2.843l.562 1.53 3.875-9.718h2.422l-6.437 14.64q-.219.5-.563 1.048-.343.546-.843 1.015-.485.469-1.141.781-.656.329-1.516.329-.156 0-.343-.016-.188-.016-.375-.047-.188-.031-.36-.078-.156-.031-.265-.047l.359-1.766h.219l.297.032q.156.015.296.015h.22q.437 0 .812-.25.375-.234.656-.578t.484-.703q.22-.36.328-.594l.875-1.687-5.468-12.094h2.422l3.484 8.188z"/><path fill="#e67c73" d="M146.429 75.112h-10.47v-1.89h10.47v1.89zm0 4.86h-10.47v-1.876h10.47v1.875zm25.945-13.438h-2.594v19.594h2.594v1.78h-4.64V64.754h4.64v1.78z"/><path fill="#0f9d58" d="M184.792 67.55l-.25 4.312h-1.61v-5.609h1.86v1.296zm15.027 11.89h-3.094l-.937 4.813h-1.672l.937-4.813h-2.796v-1.594h3.109l.797-4.156h-3.016v-1.625h3.344l.953-4.875h1.672l-.953 4.875h3.094l.953-4.875h1.687l-.969 4.875h2.407v1.625h-2.719l-.813 4.156h2.657v1.594h-2.953l-.938 4.813h-1.687l.937-4.813zm-2.781-1.594h3.094l.812-4.156h-3.094l-.812 4.156zm12.402-6.28h6.406V84.33q0 1.218-.343 2.156-.328.937-.969 1.578-.64.64-1.563.969-.906.344-2.078.344-.672 0-1.25-.047-.578-.032-1.234-.157l.156-1.78q.203.03.5.062.313.031.625.047.313.015.594.015.281.016.453.016.61 0 1.14-.156.548-.157.938-.532.406-.375.625-1 .235-.609.235-1.515V73.456h-4.235v-1.89zm3.938-3.329q0-.531.312-.89.313-.376.969-.376.656 0 .984.375.328.36.328.891 0 .516-.328.875-.328.36-.984.36-.656 0-.969-.36-.312-.36-.312-.875zm17.433 12.656q0-.39-.156-.703-.156-.312-.516-.562-.359-.266-.968-.485-.594-.219-1.485-.39-1.078-.22-1.984-.532-.89-.328-1.531-.765-.64-.438-1-1.032-.344-.593-.344-1.375 0-.765.36-1.437.374-.688 1.03-1.188.657-.5 1.563-.796.906-.297 2-.297 1.172 0 2.11.312.937.297 1.593.844.656.531 1 1.266.36.718.36 1.546h-2.157q0-.406-.218-.796-.204-.407-.579-.704-.375-.312-.921-.5-.532-.187-1.188-.187-.703 0-1.219.156-.515.156-.875.422-.343.25-.515.594-.172.328-.172.703 0 .375.14.672.141.281.485.515.344.235.922.422.578.188 1.468.36 1.172.25 2.094.578.938.312 1.563.765.64.454.968 1.063.344.594.344 1.375 0 .844-.39 1.531-.375.688-1.063 1.188-.672.484-1.625.765-.953.266-2.078.266-1.281 0-2.297-.344-1-.344-1.703-.906-.688-.578-1.063-1.328-.375-.75-.375-1.563h2.172q.047.672.36 1.125.312.453.765.735.47.281 1.032.406.562.11 1.109.11 1.375 0 2.172-.5.797-.5.812-1.329zm11.371 1.828q.594 0 1.141-.187.563-.188 1-.516.438-.328.688-.781.265-.453.28-.984h2.048q0 .843-.438 1.609-.422.766-1.14 1.36-.72.577-1.641.921-.922.344-1.938.344-1.437 0-2.515-.516-1.078-.515-1.797-1.39-.719-.875-1.094-2.016-.36-1.14-.36-2.406v-.5q0-1.25.36-2.39.375-1.157 1.094-2.032.719-.875 1.797-1.39 1.078-.516 2.515-.516 1.125 0 2.063.36.953.358 1.64.983.688.61 1.063 1.454.39.843.39 1.796h-2.046q-.016-.562-.25-1.078-.235-.515-.656-.89-.407-.39-.985-.61-.562-.234-1.219-.234-1 0-1.687.406-.688.406-1.11 1.063-.421.64-.609 1.453-.172.812-.172 1.625v.5q0 .828.172 1.64.188.813.594 1.47.422.655 1.11 1.062.687.39 1.702.39zm8.403-4.922q0-1.375.39-2.546.407-1.188 1.141-2.047.75-.875 1.812-1.375 1.063-.5 2.407-.5t2.406.5q1.078.5 1.828 1.375.75.86 1.14 2.047.407 1.171.407 2.546v.25q0 1.375-.406 2.547-.39 1.172-1.14 2.047-.75.86-1.813 1.36-1.063.484-2.407.484-1.343 0-2.422-.484-1.062-.5-1.812-1.36-.734-.875-1.14-2.047-.391-1.172-.391-2.547v-.25zm2.156.25q0 .938.219 1.797.234.844.687 1.485.453.64 1.125 1.015.688.375 1.578.375.891 0 1.563-.375.687-.375 1.125-1.015.453-.64.672-1.485.234-.859.234-1.797v-.25q0-.937-.234-1.78-.219-.845-.672-1.485-.453-.656-1.125-1.031-.672-.391-1.578-.391t-1.578.39q-.657.376-1.11 1.032-.453.64-.687 1.484-.219.844-.219 1.781v.25zm14.793-6.484l.156 1.875q.688-.984 1.688-1.531 1.015-.563 2.265-.578.985 0 1.797.281.828.281 1.39.89.579.594.891 1.516.313.922.313 2.188v8.047h-2.172v-8q0-.844-.187-1.422-.188-.594-.563-.953-.36-.375-.89-.532-.532-.172-1.235-.172-1.078 0-1.906.547-.828.547-1.328 1.438v9.094h-2.157V71.565h1.938zm15.7 12.688v-11h-3.5v-1.688h3.5v-.89q0-1.22.343-2.126.36-.921 1.016-1.546t1.562-.938q.922-.312 2.047-.312.766 0 1.5.125t1.5.328l-.25 1.797q-.484-.172-1.125-.297-.64-.125-1.36-.125-1.53.015-2.296.781-.766.766-.766 2.312v.891h4.89v1.688h-4.89v11h-2.172zm16.773.234q-1.328 0-2.453-.453-1.125-.469-1.922-1.281-.797-.829-1.25-1.954-.438-1.125-.438-2.437v-.5q0-1.531.485-2.734.5-1.22 1.312-2.063.828-.844 1.86-1.281 1.03-.453 2.124-.453 1.375 0 2.391.484 1.031.469 1.703 1.313.688.828 1.016 1.968.344 1.141.344 2.47v.968h-9.063q.031.86.328 1.625.313.765.828 1.344.516.562 1.235.89.734.328 1.625.328 1.156 0 2.047-.468.906-.47 1.515-1.25l1.313 1.03q-.313.485-.797.923-.469.437-1.094.781-.61.344-1.406.547-.781.203-1.703.203zm-.282-11.375q-.656 0-1.25.25-.578.234-1.046.703-.47.453-.797 1.14-.313.673-.438 1.548h6.813v-.172q-.032-.625-.235-1.25-.203-.625-.61-1.11-.39-.5-1-.797-.608-.312-1.437-.312zm17.309 9.39q-.625.938-1.578 1.47-.953.515-2.188.515-1 0-1.812-.313-.813-.312-1.39-.968-.563-.657-.876-1.672-.312-1.016-.312-2.422v-7.547h2.172v7.563q0 1.03.156 1.718.172.672.5 1.078.328.407.797.579.484.156 1.093.156 1.329 0 2.141-.531.813-.547 1.219-1.47v-9.093h2.172v12.688h-1.969l-.125-1.75zm11.793-14.953l-.25 4.313h-1.61v-5.609h1.86v1.296z"/><path fill="#e67c73" d="M340.323 64.753h4.656v23.156h-4.656v-1.781h2.594V66.534h-2.594v-1.781zm15.465 8.093q0-.359.11-.656.109-.312.312-.531.218-.235.531-.36.328-.125.75-.125t.734.125q.328.125.547.36.219.219.328.531.11.297.11.656 0 .344-.11.641-.109.297-.328.516-.219.218-.547.343-.312.125-.734.125t-.75-.125q-.313-.125-.531-.343-.203-.22-.313-.516-.11-.297-.11-.64zm3.719 10.907q0 .546-.141 1.14-.125.61-.39 1.203-.266.594-.641 1.125-.375.547-.86.97l-1.343-.735q.562-.828.796-1.75.235-.922.235-1.922V81.69h2.344v2.063z"/><path fill="#ff9800" d="M104.869 159.084c0-6.282 5.093-11.375 11.375-11.375h142.068a11.376 11.376 0 0 1 11.376 11.375v45.501c0 6.283-5.093 11.376-11.376 11.376H116.244c-6.282 0-11.375-5.093-11.375-11.376z" fill-rule="evenodd"/><path stroke="#666" stroke-linejoin="round" stroke-linecap="butt" d="M104.869 159.084c0-6.282 5.093-11.375 11.375-11.375h142.068a11.376 11.376 0 0 1 11.376 11.375v45.501c0 6.283-5.093 11.376-11.376 11.376H116.244c-6.282 0-11.375-5.093-11.375-11.376z"/><path fill="#fff" d="M158.834 186.482q0-.5-.187-.938-.172-.453-.594-.828-.422-.39-1.11-.703-.671-.328-1.687-.594-1.234-.344-2.36-.844-1.124-.515-1.984-1.218-.859-.72-1.375-1.672-.515-.953-.515-2.188 0-1.203.5-2.172.515-.984 1.406-1.672.906-.687 2.125-1.062 1.219-.375 2.656-.375 1.485 0 2.703.437 1.235.422 2.125 1.204.891.78 1.375 1.843.5 1.063.5 2.344h-3.562q-.031-.64-.235-1.172-.203-.531-.609-.906-.39-.39-.984-.61-.578-.218-1.375-.218-.735 0-1.297.187-.563.172-.953.485-.39.312-.594.75-.203.437-.203.953 0 .531.265.969.266.421.766.765.516.344 1.234.64.72.282 1.641.516 1.297.391 2.39.938 1.094.547 1.876 1.297.797.734 1.234 1.703.438.953.438 2.125 0 1.25-.516 2.219-.5.968-1.39 1.64-.876.672-2.094 1.016-1.22.344-2.672.344-.89 0-1.782-.172-.89-.156-1.718-.485-.813-.343-1.516-.843-.703-.516-1.219-1.188-.5-.687-.797-1.547-.296-.86-.296-1.906h3.593q.032.86.297 1.484.281.61.766 1 .484.391 1.172.579.687.171 1.5.171.734 0 1.297-.171.562-.172.953-.47.39-.296.593-.718.22-.422.22-.937zm9.903-7.188q.703-1.031 1.703-1.61 1.016-.593 2.266-.593 1.109 0 2.03.344.923.328 1.579 1.03.672.688 1.047 1.798.375 1.094.375 2.64v8.532h-3.625v-8.547q0-.766-.188-1.313-.187-.547-.547-.875-.343-.343-.843-.5-.485-.172-1.11-.172-.922 0-1.593.329-.657.328-1.094.906v10.172h-3.625v-20h3.625v7.859zm21.184 12.14q-.141-.265-.235-.593-.078-.344-.156-.719-.297.328-.687.61-.391.28-.875.5-.47.218-1.047.343-.563.125-1.22.125-1.077 0-1.983-.312-.907-.313-1.563-.875-.656-.563-1.016-1.328-.359-.782-.359-1.688 0-2.234 1.656-3.453 1.657-1.219 4.953-1.219h2.016v-.828q0-1.015-.672-1.61-.656-.593-1.906-.593-1.11 0-1.625.484-.5.47-.5 1.266h-3.61q0-.906.391-1.703.406-.813 1.156-1.422.766-.61 1.86-.969 1.11-.36 2.531-.36 1.266 0 2.36.313 1.109.313 1.906.922.812.61 1.265 1.547.469.922.469 2.156v6.032q0 1.14.14 1.89.141.735.407 1.266v.219h-3.656zm-3.453-2.53q.546 0 1.015-.126.469-.14.844-.343.375-.22.64-.485.282-.265.438-.531v-2.422h-1.844q-.843 0-1.453.156-.594.157-.969.454-.375.296-.562.703-.188.406-.188.89 0 .735.516 1.219.516.484 1.563.484zm23.293-4.376q0 1.532-.36 2.844-.359 1.313-1.062 2.281-.688.954-1.719 1.5-1.015.547-2.344.547-1.14 0-2-.39-.859-.391-1.5-1.094v6.64h-3.609v-19.5h3.344l.125 1.376q.656-.782 1.531-1.204.89-.437 2.078-.437 1.344 0 2.36.516 1.03.515 1.734 1.468.703.938 1.062 2.266.36 1.312.36 2.906v.281zm-3.61-.28q0-.876-.171-1.657-.157-.781-.5-1.344-.344-.562-.891-.89-.547-.329-1.313-.329-.953 0-1.562.375-.594.375-.938 1.047v5.89q.344.657.938 1.063.61.391 1.594.391.765 0 1.297-.328.546-.344.89-.922.344-.594.5-1.375.156-.781.156-1.64v-.282zm13.794 7.452q-1.625 0-2.954-.531-1.328-.547-2.28-1.453-.954-.922-1.47-2.156-.515-1.25-.515-2.672v-.516q0-1.625.5-2.953.515-1.328 1.422-2.297.922-.969 2.172-1.5t2.718-.531q1.516 0 2.703.5 1.204.5 2.032 1.422.828.906 1.25 2.187.437 1.282.437 2.828v1.532h-9.562q.11.718.422 1.312.328.594.812 1.031.5.422 1.14.657.641.234 1.391.234.532 0 1.063-.094.531-.11 1-.312.484-.203.906-.5.422-.313.734-.703l1.797 1.953q-.328.469-.875.937-.53.469-1.28.828-.735.344-1.642.563-.89.234-1.921.234zm-.438-11.687q-.61 0-1.125.219-.5.218-.89.625-.376.406-.641.968-.25.547-.39 1.235h5.937v-.282q-.016-.578-.219-1.078-.188-.515-.563-.875-.359-.375-.89-.593-.531-.22-1.219-.22z"/><path fill="#bdbdbd" d="M115.876 216.139H258.46v59.716H115.876z" fill-rule="evenodd"/><path stroke="#666" stroke-linejoin="round" stroke-linecap="butt" d="M115.876 216.139H258.46v59.716H115.876z"/><path fill="#000" d="M132.533 237.834l-.25 4.313h-1.61v-5.61h1.86v1.297zm9.12-1.297h6.485v16.125h4.14v1.875h-10.624v-1.875h4.312v-14.234h-4.312v-1.89zm19.669 18.235q-1.328 0-2.453-.454-1.125-.468-1.922-1.28-.797-.829-1.25-1.954-.438-1.125-.438-2.437v-.5q0-1.532.485-2.735.5-1.219 1.312-2.062.828-.844 1.86-1.282 1.03-.453 2.124-.453 1.375 0 2.391.485 1.031.468 1.703 1.312.688.828 1.016 1.969.344 1.14.344 2.469v.968h-9.063q.031.86.328 1.625.313.766.828 1.344.516.563 1.235.89.734.329 1.625.329 1.156 0 2.047-.469.906-.469 1.515-1.25l1.313 1.031q-.313.485-.797.922-.469.438-1.094.782-.61.343-1.406.546-.781.204-1.703.204zm-.282-11.375q-.656 0-1.25.25-.578.234-1.046.703-.47.453-.797 1.14-.313.672-.438 1.547h6.813v-.172q-.032-.625-.235-1.25-.203-.625-.61-1.109-.39-.5-1-.797-.608-.312-1.437-.312zm11.028-1.547l.156 1.875q.688-.985 1.688-1.532 1.015-.562 2.265-.578.985 0 1.797.282.828.28 1.39.89.579.594.891 1.516.313.922.313 2.187v8.047h-2.172v-8q0-.844-.188-1.422-.187-.593-.562-.953-.36-.375-.89-.531-.532-.172-1.235-.172-1.078 0-1.906.547-.828.547-1.328 1.437v9.094h-2.157V241.85h1.938zm12.058 6.234q0-1.406.344-2.594.344-1.203 1-2.047.656-.859 1.594-1.343.937-.485 2.125-.485 1.172 0 2.047.422.89.422 1.515 1.203l.11-1.39h1.968v12.422q0 1.25-.39 2.218-.39.985-1.11 1.657-.703.687-1.687 1.03-.984.36-2.188.36-.484 0-1.125-.125-.625-.11-1.28-.36-.641-.25-1.25-.671-.61-.422-1.032-1.047l1.125-1.297q.39.485.812.813.422.343.86.53.437.204.86.282.437.094.874.094.766 0 1.39-.219.626-.219 1.063-.656.438-.422.672-1.063.235-.625.235-1.453v-1.078q-.625.719-1.5 1.11-.86.375-1.985.375-1.172 0-2.11-.485-.937-.5-1.593-1.36-.64-.874-1-2.046-.344-1.188-.344-2.547v-.25zm2.172.25q0 .922.188 1.766.203.828.61 1.468.421.625 1.062 1 .64.36 1.546.36.563 0 1.016-.125.453-.14.813-.39.359-.25.64-.579.281-.344.485-.75v-5.812q-.204-.407-.485-.735t-.656-.562q-.36-.25-.813-.375-.437-.14-.968-.14-.922 0-1.578.374-.641.375-1.063 1.016-.406.64-.61 1.484-.187.828-.187 1.75v.25zm17.762-9.547v3.063h4.828v1.687h-4.828v6.89q0 .735.187 1.22.188.468.516.765.328.281.75.406.438.11.922.11.344 0 .719-.031.375-.047.734-.11.36-.062.672-.125.312-.062.5-.11l.312 1.532q-.265.172-.656.297-.39.125-.844.203-.453.094-.968.14-.516.048-1.016.048-.844 0-1.578-.235-.734-.25-1.281-.765-.532-.532-.844-1.344-.297-.828-.297-2v-6.89h-3.328v-1.688h3.328v-3.063h2.172zm11.434 4.953q.687-1 1.671-1.547 1-.562 2.25-.578 1 0 1.813.297.812.281 1.375.89.578.61.89 1.548.313.922.313 2.203v7.984h-2.172v-8q0-1.562-.75-2.328-.734-.766-2.11-.75-1.046 0-1.905.516-.844.5-1.375 1.343v9.22h-2.157v-18h2.157v7.202zm17.855-5.906l-.25 4.313h-1.61v-5.61h1.86v1.297z"/><path d="M240.373 250.247l202.803-48.22"/><path stroke="#666" stroke-width="4" stroke-linejoin="round" stroke-linecap="butt" d="M255.122 246.74l164.705-39.162"/><path fill="#666" stroke="#666" stroke-width="4" stroke-linecap="butt" d="M242.318 249.784a6.58 6.58 0 1 1 12.804-3.044 6.58 6.58 0 0 1-12.804 3.044z"/><path fill="#666" stroke="#666" stroke-width="4" stroke-linecap="butt" d="M421.355 214.006l16.132-10.627-19.189-2.229z" fill-rule="evenodd"/><path fill="#34a853" d="M92.79 332.664c0-6.282 5.093-11.375 11.376-11.375H270.39a11.376 11.376 0 0 1 11.375 11.375v45.501c0 6.283-5.093 11.376-11.375 11.376H104.166c-6.283 0-11.376-5.093-11.376-11.376z" fill-rule="evenodd"/><path stroke="#666" stroke-linejoin="round" stroke-linecap="butt" d="M92.79 332.664c0-6.282 5.093-11.375 11.376-11.375H270.39a11.376 11.376 0 0 1 11.375 11.375v45.501c0 6.283-5.093 11.376-11.375 11.376H104.166c-6.283 0-11.376-5.093-11.376-11.376z"/><path fill="#fff" d="M130.736 346.062h3.656l.016 13.14q-.016 1.344-.516 2.469-.5 1.11-1.375 1.922-.86.797-2.047 1.25-1.171.437-2.53.437-1.423 0-2.595-.359-1.171-.375-2.015-1.094-.844-.719-1.313-1.812-.468-1.094-.484-2.578h3.672q.015 1.53.672 2.218.672.672 2.062.672.625 0 1.14-.234.532-.235.891-.656.375-.422.563-1 .203-.579.203-1.235v-13.14zm16.903 14q0-.5-.188-.938-.172-.453-.594-.828-.421-.39-1.109-.703-.672-.328-1.687-.594-1.235-.344-2.36-.844-1.125-.515-1.984-1.218-.86-.72-1.375-1.672-.516-.953-.516-2.188 0-1.203.5-2.172.516-.984 1.406-1.672.907-.687 2.125-1.062 1.22-.375 2.657-.375 1.484 0 2.703.437 1.234.422 2.125 1.204.89.78 1.375 1.843.5 1.063.5 2.344h-3.563q-.031-.64-.234-1.172-.203-.531-.61-.906-.39-.39-.984-.61-.578-.218-1.375-.218-.734 0-1.297.187-.562.172-.953.485-.39.312-.594.75-.203.437-.203.953 0 .531.266.969.266.421.766.765.515.344 1.234.64.719.282 1.64.516 1.297.391 2.391.938 1.094.547 1.875 1.297.797.734 1.235 1.703.437.953.437 2.125 0 1.25-.516 2.219-.5.968-1.39 1.64-.875.672-2.094 1.016-1.219.344-2.672.344-.89 0-1.781-.172-.89-.156-1.719-.485-.812-.343-1.515-.843-.704-.516-1.22-1.188-.5-.687-.796-1.547-.297-.859-.297-1.906h3.594q.031.86.297 1.484.28.61.765 1 .485.391 1.172.579.688.171 1.5.171.735 0 1.297-.171.563-.172.953-.47.39-.296.594-.718.219-.422.219-.937zm15.48 1h-5.687l-1.125 3.953h-3.86l6.22-18.953h3.312l6.093 18.953h-3.859l-1.094-3.953zm-4.797-3.11h3.938l-1.953-6.984-1.985 6.984zm21.716-7.281q.812 0 1.5.11.703.109 1.14.25l-.531 3.593q-.719-.172-1.469-.25-.75-.078-1.422-.078-1.53 0-2.453.594-.906.578-1.36 1.672v8.453h-3.624v-14.078h3.375l.172 2.296q.86-1.203 2.047-1.875 1.203-.687 2.625-.687zm15.996 0q.812 0 1.5.11.703.109 1.14.25l-.53 3.593q-.72-.172-1.47-.25-.75-.078-1.421-.078-1.532 0-2.453.594-.907.578-1.36 1.672v8.453h-3.625v-14.078h3.375l.172 2.296q.86-1.203 2.047-1.875 1.203-.687 2.625-.687zm14.684 14.344q-.14-.266-.235-.594-.078-.344-.156-.719-.297.328-.687.61-.39.28-.875.5-.47.218-1.047.343-.563.125-1.219.125-1.078 0-1.984-.312-.907-.313-1.563-.875-.656-.563-1.015-1.328-.36-.782-.36-1.688 0-2.234 1.656-3.453 1.657-1.219 4.954-1.219h2.015v-.828q0-1.015-.672-1.61-.656-.593-1.906-.593-1.11 0-1.625.484-.5.47-.5 1.266h-3.61q0-.906.391-1.703.407-.813 1.157-1.422.765-.61 1.859-.969 1.11-.359 2.531-.359 1.266 0 2.36.312 1.109.313 1.906.922.812.61 1.265 1.547.47.922.47 2.156v6.032q0 1.14.14 1.89.14.735.406 1.266v.219h-3.656zm-3.453-2.532q.547 0 1.015-.125.47-.14.844-.343.375-.219.64-.485.282-.265.438-.53v-2.423h-1.844q-.843 0-1.453.156-.593.157-.968.454-.375.296-.563.703-.187.406-.187.89 0 .735.515 1.22.516.483 1.563.483zm16.637-3.375l.422 1.5 3.75-9.671h4l-7.157 16.187q-.234.531-.61 1.156-.358.625-.921 1.157-.562.53-1.36.89-.796.375-1.89.375-.266 0-.484-.015-.22-.016-.438-.063-.203-.031-.406-.078-.203-.031-.438-.11l.454-2.75q.218 0 .562.016.344.016.547.016.437 0 .766-.266.328-.25.562-.562.234-.313.375-.578.156-.25.203-.25l.875-1.641-5.969-13.484h3.97l3.187 8.171zm26.801 5.907q-.094-.188-.156-.422-.063-.235-.11-.5-.203.234-.484.437-.266.188-.61.344-.328.156-.734.234-.39.094-.86.094-.75 0-1.39-.219-.625-.218-1.078-.609-.453-.39-.719-.937-.25-.547-.25-1.188 0-1.547 1.157-2.39 1.171-.86 3.468-.86h1.422v-.594q0-.703-.469-1.109-.468-.422-1.343-.422-.766 0-1.125.328-.36.328-.36.89h-2.53q0-.624.28-1.187.282-.578.813-1 .531-.422 1.297-.672.765-.25 1.765-.25.89 0 1.657.22.78.218 1.343.64.563.422.875 1.078.328.656.328 1.5v4.234q0 .797.094 1.313.094.515.297.89v.157h-2.578zm-2.406-1.782q.375 0 .703-.078.328-.093.594-.234.265-.156.453-.344.203-.187.312-.375V360.5h-1.297q-.593 0-1.015.125-.422.11-.688.313-.265.203-.39.5-.125.28-.125.625 0 .5.359.843.36.328 1.094.328z"/><path fill="#bdbdbd" d="M105.411 389.718h163.496v59.717H105.411z" fill-rule="evenodd"/><path stroke="#666" stroke-linejoin="round" stroke-linecap="butt" d="M105.411 389.718h163.496v59.717H105.411z"/><path fill="#000" d="M189.036 428.116h-2.172V413.82l-4.469 1.704v-1.985l6.453-2.484h.188v17.062z"/><path d="M187.278 321.289c0-11.359-.031-17.036-.063-22.717-.031-5.681-.063-11.366-.063-22.732"/><path stroke="#595959" stroke-width="4" stroke-linejoin="round" stroke-linecap="butt" d="M187.278 321.289a4007.404 4007.404 0 0 0-.04-18.368l-.016-3.081"/><path fill="#595959" stroke="#595959" stroke-width="4" stroke-linecap="butt" d="M193.829 299.82l-6.66-18.133-6.554 18.172z" fill-rule="evenodd"/><path fill="#fbbc05" fill-opacity=".377" d="M443.176 152.095c0-13.789 11.178-24.966 24.966-24.966h200.84a24.966 24.966 0 0 1 24.966 24.966v99.863c0 13.788-11.178 24.966-24.967 24.966H468.142c-13.788 0-24.966-11.178-24.966-24.966z" fill-rule="evenodd"/><path stroke="#666" stroke-linejoin="round" stroke-linecap="butt" d="M443.176 152.095c0-13.789 11.178-24.966 24.966-24.966h200.84a24.966 24.966 0 0 1 24.966 24.966v99.863c0 13.788-11.178 24.966-24.967 24.966H468.142c-13.788 0-24.966-11.178-24.966-24.966z"/><path fill="#000" d="M462.566 152.278v3.828h-2.015v-10.422h3.562q.86 0 1.547.25.688.25 1.172.688.484.437.734 1.062.266.61.266 1.36 0 .703-.266 1.297-.25.593-.734 1.03-.484.423-1.172.673-.687.234-1.547.234h-1.547zm0-1.625h1.547q.438 0 .75-.125.313-.125.516-.344.219-.234.312-.515.11-.297.11-.61 0-.359-.11-.672-.093-.328-.312-.562-.203-.234-.516-.36-.312-.14-.75-.14h-1.547v3.328zm12.28-2.437q.453 0 .828.062.39.063.625.14l-.281 1.985q-.406-.094-.813-.14-.406-.047-.78-.047-.845 0-1.345.328-.5.312-.75.906v4.656h-2v-7.75h1.86l.093 1.281q.47-.671 1.125-1.046.672-.375 1.438-.375zm2.967 3.953q0-.844.234-1.563.25-.719.72-1.25.468-.531 1.14-.828.687-.312 1.562-.312t1.547.312q.688.297 1.156.828.47.531.703 1.25.25.719.25 1.563v.14q0 .86-.25 1.578-.234.72-.703 1.25-.468.532-1.156.829-.672.296-1.531.296-.875 0-1.563-.296-.687-.297-1.156-.829-.469-.53-.719-1.25-.234-.718-.234-1.578v-.14zm2 .14q0 .485.078.922.094.422.297.75.203.313.516.5.328.172.78.172.438 0 .75-.172.313-.187.5-.5.204-.328.298-.75.093-.437.093-.922v-.14q0-.485-.093-.907-.094-.421-.297-.734-.188-.328-.5-.516-.313-.187-.766-.187t-.765.187q-.313.188-.516.516-.203.313-.297.734-.078.422-.078.907v.14zm14.03 0q0 .844-.204 1.563-.187.719-.578 1.25-.375.531-.953.828-.562.297-1.297.297-.61 0-1.093-.203-.47-.219-.813-.61v3.657h-2v-10.735h1.844l.078.766q.36-.422.844-.656.484-.25 1.14-.25.735 0 1.297.28.563.282.953.813.39.516.578 1.25.204.72.204 1.594v.156zm-2-.156q0-.484-.094-.906-.078-.422-.266-.735-.187-.312-.484-.484-.297-.187-.719-.187-.531 0-.86.203-.327.203-.515.578v3.234q.188.36.516.578.328.22.875.22.422 0 .718-.188.297-.188.47-.5.187-.329.265-.75.094-.438.094-.907v-.156zm7.592 4.094q-.891 0-1.625-.281-.735-.297-1.266-.797-.516-.516-.797-1.188-.281-.687-.281-1.469v-.296q0-.875.281-1.61.281-.734.781-1.265.5-.532 1.188-.829.687-.296 1.5-.296.828 0 1.484.28.656.282 1.11.782.453.5.687 1.203.25.703.25 1.547v.844h-5.266q.063.406.235.734.187.313.453.563.266.234.61.36.359.124.78.124.297 0 .579-.047.297-.062.562-.172.266-.125.485-.28.234-.173.406-.392l1 1.079q-.188.265-.485.515-.296.25-.703.453-.406.203-.906.313-.484.125-1.062.125zm-.235-6.422q-.344 0-.625.125-.265.11-.484.344-.203.218-.36.531-.14.297-.203.687h3.266v-.171q-.016-.313-.125-.579-.11-.28-.313-.484-.203-.219-.5-.328-.28-.125-.656-.125zm10.827-1.61q.453 0 .828.063.39.063.625.14l-.281 1.985q-.407-.094-.813-.14-.406-.047-.781-.047-.844 0-1.344.328-.5.312-.75.906v4.656h-2v-7.75h1.86l.093 1.281q.469-.671 1.125-1.046.672-.375 1.438-.375zm6.889-1.75v1.891h2.89v1.469h-2.89v3.328q0 .422.093.719.11.281.282.453.171.156.421.234.266.063.579.063.234 0 .468-.016.235-.031.453-.062.22-.032.407-.063.203-.031.328-.078l.203 1.375q-.219.125-.5.219-.266.078-.594.125-.312.062-.656.094-.328.046-.656.046-.64 0-1.157-.171-.515-.172-.89-.516-.375-.36-.578-.906-.188-.547-.188-1.313v-3.531h-1.765v-1.469h1.765v-1.89h1.985zm8.451 6.391l.219.828 2.062-5.328h2.203l-3.937 8.906q-.125.297-.328.641-.203.344-.516.64-.297.298-.75.485-.437.203-1.031.203-.14 0-.266-.015-.125 0-.234-.032-.11-.015-.234-.047-.11-.015-.235-.046l.25-1.516h.297q.203.016.313.016.234 0 .421-.141.188-.14.313-.313.125-.171.203-.312.078-.14.11-.14l.484-.907-3.281-7.422h2.171l1.766 4.5zm14.81-4.5h4.218v6.125h2.094v1.625h-6.313v-1.625h2.219v-4.5h-2.219v-1.625zm2.062-1.969q0-.234.078-.421.094-.204.234-.344.156-.14.36-.219.218-.078.484-.078.531 0 .828.297.313.297.313.765 0 .454-.313.75-.297.297-.828.297-.266 0-.484-.078-.204-.078-.36-.219-.14-.14-.234-.328-.078-.203-.078-.422zm8.014 1.97l.125 1.077q.406-.578 1-.89.593-.328 1.328-.328.578 0 1.062.171.485.172.844.547.36.375.547.97.203.593.203 1.437v4.765h-1.984v-4.734q0-.469-.11-.766-.11-.297-.297-.469-.187-.171-.468-.234-.266-.062-.61-.062-.515 0-.875.203-.344.203-.578.562v5.5h-1.984v-7.75h1.797zm8.92 7.75v-6.282h-2.032v-1.469h2.032v-.422q0-.765.234-1.343.25-.594.703-.985.453-.406 1.094-.61.64-.202 1.437-.202.25 0 .485.015.234.016.453.047l.437.063q.235.031.485.078l-.14 1.562q-.266-.062-.61-.093-.344-.047-.813-.047-.922 0-1.343.39-.422.391-.422 1.125v.422h2.781v1.469h-2.781v6.281h-2zm6.592-3.938q0-.844.234-1.563.25-.719.719-1.25t1.14-.828q.688-.312 1.563-.312t1.547.312q.687.297 1.156.828.469.531.703 1.25.25.719.25 1.563v.14q0 .86-.25 1.578-.234.72-.703 1.25-.469.532-1.156.829-.672.296-1.531.296-.875 0-1.563-.296-.687-.297-1.156-.829-.469-.53-.719-1.25-.234-.718-.234-1.578v-.14zm2 .14q0 .485.078.922.094.422.297.75.203.313.515.5.329.172.782.172.437 0 .75-.172.312-.187.5-.5.203-.328.297-.75.093-.437.093-.922v-.14q0-.485-.093-.907-.094-.421-.297-.734-.188-.328-.5-.516-.313-.187-.766-.187t-.766.187q-.312.188-.515.516-.203.313-.297.734-.078.422-.078.907v.14zm12.623-4.093q.453 0 .828.062.39.063.625.14l-.281 1.985q-.406-.094-.812-.14-.407-.047-.782-.047-.843 0-1.343.328-.5.312-.75.906v4.656h-2v-7.75h1.859l.094 1.281q.468-.671 1.125-1.046.672-.375 1.437-.375zm4.483.14l.047.938q.234-.5.625-.782.39-.296.937-.296.938 0 1.235.828.218-.39.578-.61.359-.218.859-.218.344 0 .64.14.313.125.532.406.234.282.36.735.124.437.124 1.078v5.531h-1.812v-5.531q0-.219-.047-.36-.047-.156-.125-.234-.078-.078-.188-.11-.093-.03-.203-.03-.203 0-.36.093-.14.094-.218.266v5.906h-1.75v-5.531q0-.234-.047-.375-.031-.14-.11-.219-.077-.078-.187-.11-.093-.03-.203-.03-.234 0-.375.125-.14.125-.218.343v5.797h-1.813v-7.75h1.719zm12.389 7.75q-.063-.14-.125-.328-.047-.187-.078-.39-.172.171-.391.328-.203.156-.469.28-.265.11-.578.173-.312.078-.672.078-.594 0-1.094-.172-.5-.172-.859-.469-.36-.312-.562-.734-.188-.438-.188-.938 0-1.218.906-1.89.907-.672 2.72-.672h1.108v-.453q0-.563-.359-.875-.36-.328-1.047-.328-.61 0-.89.265-.282.25-.282.688h-1.984q0-.5.219-.938.218-.437.625-.781.422-.344 1.031-.531.61-.203 1.39-.203.688 0 1.297.171.61.172 1.047.516.453.328.703.844.25.515.25 1.187v3.313q0 .625.079 1.031.078.406.218.703v.125h-2.015zm-1.89-1.39q.296 0 .546-.063.266-.078.469-.187.218-.125.36-.266.155-.156.233-.313v-1.328h-1.015q-.453 0-.797.094-.328.094-.531.25t-.313.39q-.094.22-.094.485 0 .406.282.672.281.266.86.266zm9.497-8.25v1.89h2.891v1.469h-2.89v3.328q0 .422.093.719.11.281.281.453.172.156.422.234.266.063.578.063.235 0 .47-.016.234-.031.452-.062.22-.032.407-.063.203-.031.328-.078l.203 1.375q-.219.125-.5.219-.266.078-.594.125-.312.062-.656.094-.328.046-.656.046-.641 0-1.157-.171-.515-.172-.89-.516-.375-.36-.578-.906-.188-.547-.188-1.313v-3.531h-1.766v-1.469h1.766v-1.89h1.984zm5.67 1.89h4.22v6.125h2.093v1.625h-6.312v-1.625h2.218v-4.5h-2.218v-1.625zm2.063-1.969q0-.234.078-.421.094-.204.235-.344.156-.14.359-.219.219-.078.484-.078.532 0 .828.297.313.297.313.765 0 .454-.313.75-.296.297-.828.297-.265 0-.484-.078-.203-.078-.36-.219-.14-.14-.234-.328-.078-.203-.078-.422zm5.936 5.782q0-.844.234-1.563.25-.719.719-1.25t1.14-.828q.688-.312 1.563-.312t1.547.312q.688.297 1.156.828.469.531.703 1.25.25.719.25 1.563v.14q0 .86-.25 1.578-.234.72-.703 1.25-.468.532-1.156.829-.672.296-1.531.296-.875 0-1.563-.296-.687-.297-1.156-.829-.469-.53-.719-1.25-.234-.718-.234-1.578v-.14zm2 .14q0 .485.078.922.094.422.297.75.203.313.516.5.328.172.78.172.438 0 .75-.172.313-.187.5-.5.204-.328.298-.75.093-.437.093-.922v-.14q0-.485-.093-.907-.094-.421-.297-.734-.188-.328-.5-.516-.313-.187-.766-.187t-.765.187q-.313.188-.516.516-.203.313-.297.734-.078.422-.078.907v.14zm8.873-3.953l.125 1.078q.406-.578 1-.89.594-.328 1.328-.328.578 0 1.063.171.484.172.844.547.359.375.546.97.204.593.204 1.437v4.765h-1.985v-4.734q0-.469-.11-.766-.109-.297-.296-.469-.188-.171-.469-.234-.265-.062-.61-.062-.515 0-.874.203-.344.203-.578.562v5.5h-1.985v-7.75h1.797z"/><path fill="#673ab7" d="M467.504 191.497q0 .562-.094 1.14-.078.563-.265 1.094-.188.516-.485.985-.281.453-.687.796-.407.344-.922.547-.516.188-1.156.188-.657 0-1.172-.188-.516-.203-.922-.547-.39-.343-.688-.796-.297-.47-.484-1-.188-.532-.281-1.094-.094-.563-.094-1.125v-1.188q0-.562.078-1.125.094-.578.281-1.093.203-.532.485-.985.297-.469.687-.812.406-.36.922-.547.531-.203 1.172-.203.64 0 1.156.203.531.187.922.531.406.344.688.813.296.453.484.984.203.531.281 1.11.094.562.094 1.124v1.188zm-1.297-1.203q-.016-.375-.062-.766-.032-.406-.141-.797-.11-.406-.281-.765-.172-.375-.438-.641-.25-.281-.594-.438-.343-.156-.812-.156-.469 0-.813.172-.343.156-.609.438-.25.265-.422.625-.172.359-.281.765-.11.39-.156.797-.047.406-.047.766v1.203q0 .36.047.781.047.406.156.797.11.39.281.766.172.359.422.64.266.266.61.438.359.172.828.172.453 0 .812-.172.36-.172.61-.438.25-.281.421-.64.172-.36.266-.75.11-.407.14-.813.047-.406.063-.781v-1.203zm5.295 5.812v-6.719h-2.125v-1.03h2.125v-.532q0-.75.219-1.313.219-.562.61-.937.406-.375.952-.563.563-.203 1.25-.203.485 0 .922.078.453.079.922.204l-.156 1.093q-.297-.109-.688-.172-.39-.078-.828-.078-.937 0-1.406.47-.469.468-.469 1.421v.531h2.985v1.031h-2.985v6.72h-1.328zm8.803 0v-6.719h-2.125v-1.03h2.125v-.532q0-.75.218-1.313.219-.562.61-.937.406-.375.953-.563.562-.203 1.25-.203.484 0 .922.078.453.079.922.204l-.157 1.093q-.297-.109-.687-.172-.39-.078-.828-.078-.938 0-1.407.47-.468.468-.468 1.421v.531h2.984v1.031h-2.984v6.72h-1.328zm11.974-2.047q0-.25-.094-.437-.094-.188-.312-.344-.22-.156-.594-.281-.36-.14-.906-.25-.657-.14-1.204-.328-.546-.188-.937-.453-.39-.282-.61-.641-.218-.36-.218-.844 0-.469.219-.875.218-.406.625-.719.406-.312.953-.484.562-.187 1.218-.187.72 0 1.282.187.578.188.984.516t.625.781q.219.437.219.937H492.2q0-.25-.141-.484-.125-.25-.36-.422-.218-.187-.546-.297-.328-.125-.735-.125-.421 0-.734.094-.312.094-.531.25-.203.156-.313.375-.11.203-.11.422 0 .219.079.406.094.172.297.328.219.141.562.25.36.11.907.22.718.155 1.28.358.563.188.954.47.39.265.594.64.203.36.203.844 0 .515-.234.937-.235.422-.657.719-.406.297-.984.469-.578.156-1.266.156-.797 0-1.406-.203-.61-.219-1.047-.563-.422-.344-.656-.797-.219-.468-.219-.968h1.328q.032.421.219.703.188.265.469.437.281.172.625.25.344.063.687.063.828 0 1.313-.297.5-.313.5-.813zm7.076 2.188q-.828 0-1.515-.281-.672-.282-1.157-.782-.484-.5-.765-1.187-.266-.688-.266-1.485v-.312q0-.938.297-1.672t.797-1.25q.5-.516 1.125-.781.64-.281 1.312-.281.828 0 1.453.296.625.282 1.032.797.422.516.625 1.22.218.687.218 1.483v.594h-5.53q.015.531.187 1 .187.469.5.813.328.343.765.547.453.203.985.203.718 0 1.265-.282.547-.296.907-.765l.812.625q-.187.297-.484.578-.282.266-.672.469-.375.203-.86.328-.468.125-1.03.125zm-.172-6.938q-.406 0-.765.157-.36.14-.641.421-.281.282-.484.704-.203.406-.282.937h4.172v-.11q-.031-.374-.156-.75-.125-.39-.375-.687-.234-.297-.61-.484-.359-.188-.859-.188zm8.67-2.828v1.875h2.954v1.031h-2.954v4.204q0 .453.11.75.125.296.328.468.203.172.453.25.266.063.563.063.218 0 .437-.016.234-.031.453-.062.219-.047.406-.078.188-.047.313-.063l.187.938q-.171.093-.406.171-.234.079-.515.125-.282.047-.594.079-.313.03-.61.03-.515 0-.968-.14-.438-.156-.782-.469-.328-.312-.515-.812-.188-.516-.188-1.234v-4.204h-2.03v-1.03h2.03v-1.876h1.328z"/><path fill="#e67c73" d="M515.82 195.247q0-.219.063-.406.078-.188.203-.313.125-.14.313-.219.203-.078.468-.078.25 0 .438.078.203.078.328.22.14.124.203.312.078.187.078.406 0 .203-.078.39-.062.188-.203.329-.125.125-.328.203-.188.078-.438.078-.265 0-.468-.078-.188-.078-.313-.203-.125-.141-.203-.329-.062-.187-.062-.39zm0-6q0-.219.063-.406.078-.188.203-.313.125-.14.313-.219.203-.078.468-.078.25 0 .438.078.203.078.328.22.14.124.203.312.078.187.078.406 0 .203-.078.39-.062.188-.203.329-.125.125-.328.203-.188.078-.438.078-.265 0-.468-.078-.188-.078-.313-.203-.125-.141-.203-.329-.062-.187-.062-.39z"/><path fill="#db4437" d="M537.645 192.122q0 1-.234 1.765-.219.766-.656 1.297-.422.516-1.047.797-.625.266-1.422.266-.797 0-1.422-.266-.625-.281-1.062-.797-.438-.53-.672-1.297-.235-.765-.235-1.765v-2.438q0-1 .235-1.765.234-.766.656-1.297.437-.531 1.062-.797.625-.281 1.422-.281.797 0 1.422.281.64.266 1.063.797.437.531.656 1.297.234.765.234 1.765v2.438zm-5.406-.266l4.047-3.11q-.11-1.046-.61-1.577-.484-.547-1.406-.547-1.047 0-1.547.703-.484.703-.484 2.062v2.47zm4.078-1.844l-4.047 3.094q.125 1.016.625 1.547.5.516 1.39.516 1.048 0 1.532-.703.5-.72.5-2.063v-2.39z"/><path fill="#e67c73" d="M465.363 205.278h-1.578v11.969h1.578v1.094h-2.828V204.2h2.828v1.078zm8.795 0h-1.578v11.969h1.578v1.094h-2.828V204.2h2.828v1.078z"/><path fill="#673ab7" d="M483.485 213.294l.797-7.61h1.25l-1.266 10.422h-1.344l-1.343-7.844-1.344 7.844h-1.36l-1.28-10.422h1.265l.797 7.61 1.343-7.61h1.141l1.344 7.61zm8.701-5.078q.188 0 .39.015.204.016.376.047.187.016.344.047.156.031.25.078l-.172 1.297q-.39-.078-.735-.11-.343-.046-.718-.046-.938 0-1.516.422-.578.421-.844 1.171v4.97h-1.328v-7.75h1.25l.063 1.234q.484-.641 1.14-1 .657-.375 1.5-.375zm3.936.14h3.953v6.61h2.531v1.14h-6.484v-1.14h2.64v-5.454h-2.64v-1.156zm2.469-2.031q0-.328.187-.547.203-.234.594-.234.406 0 .594.234.203.219.203.547 0 .328-.203.547-.188.203-.594.203-.39 0-.594-.203-.187-.219-.187-.547zm9.248.156v1.875h2.953v1.031h-2.953v4.204q0 .453.11.75.125.296.328.468.203.172.453.25.265.063.562.063.219 0 .438-.016.234-.031.453-.062.219-.047.406-.078.188-.047.313-.063l.187.938q-.172.093-.406.171-.234.079-.516.125-.281.047-.593.079-.313.03-.61.03-.515 0-.969-.14-.437-.156-.78-.469-.329-.312-.516-.812-.188-.516-.188-1.234v-4.204h-2.031v-1.03h2.031v-1.876h1.328zm10.748 9.625q-.078-.156-.125-.375-.046-.219-.062-.469-.203.204-.453.391-.235.172-.531.313-.297.125-.641.203-.344.078-.719.078-.61 0-1.11-.172-.5-.188-.843-.484-.344-.313-.547-.72-.187-.421-.187-.905 0-.641.25-1.125.265-.485.734-.797.469-.313 1.11-.469.656-.156 1.468-.156h1.453v-.61q0-.359-.14-.64-.125-.282-.36-.469-.234-.203-.578-.297-.344-.11-.765-.11-.391 0-.704.094-.312.094-.53.266-.204.156-.329.39-.11.22-.11.47h-1.327q0-.422.203-.829.218-.406.61-.734.405-.328.968-.531.578-.203 1.297-.203.656 0 1.218.171.563.157.97.485.421.328.655.812.235.485.235 1.141v3.594q0 .39.062.828.078.422.22.75v.11h-1.392zm-2.328-1.015q.375 0 .703-.094.344-.094.625-.25.282-.172.47-.375.202-.219.327-.453v-1.563h-1.234q-1.156 0-1.813.344-.64.344-.64 1.078 0 .281.094.531.109.235.296.422.188.172.485.266.297.094.687.094zm12.608-2.766q0 .828-.203 1.547t-.594 1.25q-.375.531-.953.828-.562.297-1.297.297-.75 0-1.297-.266-.547-.265-.937-.75l-.063.875h-1.218v-11h1.328v4.094q.375-.484.906-.734.547-.25 1.266-.25.734 0 1.312.296.578.297.953.829.39.515.594 1.25.203.718.203 1.578v.156zm-1.328-.156q0-.563-.11-1.078-.109-.516-.359-.907-.234-.39-.64-.609-.391-.234-.954-.234-.343 0-.64.093-.281.094-.516.25-.219.157-.39.375-.172.22-.297.485v3.375q.125.265.297.484.187.219.406.39.234.157.515.25.297.079.641.079.531 0 .922-.219.39-.234.64-.61.25-.39.36-.89.125-.516.125-1.078v-.156zm3.764-7.063h3.953v9.86h2.531v1.14h-6.484v-1.14h2.64v-8.704h-2.64v-1.156zm12.014 11.14q-.828 0-1.516-.28-.672-.282-1.156-.782-.484-.5-.766-1.187-.265-.688-.265-1.485v-.312q0-.938.297-1.672.296-.734.796-1.25t1.125-.781q.641-.281 1.313-.281.828 0 1.453.296.625.282 1.031.797.422.516.625 1.22.219.687.219 1.483v.594h-5.531q.015.531.187 1 .188.469.5.813.328.343.766.547.453.203.984.203.719 0 1.266-.282.547-.296.906-.765l.813.625q-.188.297-.485.578-.281.266-.672.469-.375.203-.859.328-.469.125-1.031.125zm-.172-6.937q-.406 0-.766.157-.36.14-.64.421-.282.282-.485.704-.203.406-.281.937h4.172v-.11q-.031-.374-.156-.75-.125-.39-.375-.687-.235-.297-.61-.484-.36-.188-.86-.188z"/><path fill="#e67c73" d="M550.33 204.2h2.844v14.14h-2.843v-1.093h1.593v-11.969h-1.593V204.2zm8.796 0h2.844v14.14h-2.844v-1.093h1.594v-11.969h-1.594V204.2zm9.451 11.047q0-.219.063-.406.078-.188.203-.313.125-.14.312-.219.204-.078.47-.078.25 0 .437.078.203.078.328.22.14.124.203.312.078.187.078.406 0 .203-.078.39-.063.188-.203.329-.125.125-.328.203-.188.078-.438.078-.265 0-.469-.078-.187-.078-.312-.203-.125-.141-.203-.329-.063-.187-.063-.39zm0-6q0-.219.063-.406.078-.188.203-.313.125-.14.312-.219.204-.078.47-.078.25 0 .437.078.203.078.328.22.14.124.203.312.078.187.078.406 0 .203-.078.39-.063.188-.203.329-.125.125-.328.203-.188.078-.438.078-.265 0-.469-.078-.187-.078-.312-.203-.125-.141-.203-.329-.063-.187-.063-.39z"/><path fill="#4285f4" d="M586.996 206.481v1.875h2.953v1.031h-2.953v4.204q0 .453.11.75.124.296.327.468.203.172.453.25.266.063.563.063.219 0 .437-.016.235-.031.454-.062.218-.047.406-.078.187-.047.312-.063l.188.938q-.172.093-.406.171-.235.079-.516.125-.281.047-.594.079-.312.03-.61.03-.515 0-.968-.14-.437-.156-.781-.469-.328-.312-.516-.812-.187-.516-.187-1.234v-4.204h-2.032v-1.03h2.032v-1.876h1.328zm10.732 1.735q.188 0 .391.015.203.016.375.047.188.016.344.047.156.031.25.078l-.172 1.297q-.39-.078-.734-.11-.344-.046-.72-.046-.937 0-1.515.422-.578.421-.844 1.171v4.97h-1.328v-7.75h1.25l.063 1.234q.484-.641 1.14-1 .657-.375 1.5-.375zm8.749 6.828q-.39.562-.969.89-.578.313-1.328.313-.61 0-1.11-.188-.484-.187-.843-.578-.344-.406-.547-1.031-.188-.625-.188-1.484v-4.61h1.329v4.625q0 .625.093 1.047.11.406.313.656t.484.36q.297.093.672.093.813 0 1.297-.328.5-.328.75-.89v-5.563h1.328v7.75h-1.203l-.078-1.062zm7.201 1.203q-.828 0-1.515-.281-.672-.282-1.157-.782-.484-.5-.765-1.187-.266-.688-.266-1.485v-.312q0-.938.297-1.672t.797-1.25q.5-.516 1.125-.781.64-.281 1.312-.281.828 0 1.453.296.625.282 1.032.797.422.516.625 1.22.218.687.218 1.483v.594h-5.53q.015.531.187 1 .187.469.5.813.328.343.765.547.453.203.985.203.718 0 1.265-.282.547-.296.907-.765l.812.625q-.187.297-.484.578-.282.266-.672.469-.375.203-.86.328-.468.125-1.03.125zm-.172-6.938q-.406 0-.765.157-.36.14-.64.421-.282.282-.485.704-.203.406-.282.937h4.172v-.11q-.03-.374-.156-.75-.125-.39-.375-.687-.234-.297-.61-.484-.359-.188-.859-.188z"/><path fill="#e67c73" d="M465.363 225.278h-1.578v11.969h1.578v1.094h-2.828V224.2h2.828v1.078zm8.795 0h-1.578v11.969h1.578v1.094h-2.828V224.2h2.828v1.078z"/><path fill="#673ab7" d="M484.063 231.294h-4.36v3.687h5.079v1.125h-6.406v-10.422h6.343v1.141h-5.015v3.344h4.359v1.125zm4.248-2.938l.094 1.156q.422-.609 1.031-.937.61-.344 1.375-.36.61 0 1.11.172.5.172.843.547.36.36.547.922.188.563.188 1.328v4.922h-1.328v-4.89q0-.516-.125-.875-.11-.36-.328-.579-.22-.218-.547-.312-.328-.11-.75-.11-.672 0-1.172.344-.5.328-.813.875v5.547h-1.312v-7.75h1.187zm12.624 6.688q-.391.562-.97.89-.577.313-1.327.313-.61 0-1.11-.188-.484-.187-.843-.578-.344-.406-.547-1.031-.188-.625-.188-1.484v-4.61h1.328v4.625q0 .625.094 1.047.11.406.313.656t.484.36q.297.093.672.093.812 0 1.297-.328.5-.328.75-.89v-5.563h1.328v7.75h-1.203l-.078-1.062zm4.389-6.688l.03.735q.235-.407.61-.625.39-.235.938-.25 1.062 0 1.422.828.234-.36.609-.578.375-.235.906-.25.86 0 1.313.53.453.516.453 1.579v5.781h-1.25v-5.797q0-.968-.906-.968-.235 0-.407.062-.172.063-.28.188-.11.109-.188.25-.063.14-.079.296v5.97h-1.265v-5.798q0-.468-.203-.718-.203-.25-.657-.25-.421 0-.656.171-.219.157-.328.438v6.156h-1.25v-7.75h1.188zm11.607 7.89q-.828 0-1.515-.28-.672-.282-1.157-.782-.484-.5-.765-1.187-.266-.688-.266-1.485v-.312q0-.938.297-1.672t.797-1.25q.5-.516 1.125-.781.64-.281 1.312-.281.828 0 1.453.296.625.282 1.032.797.422.516.625 1.22.218.687.218 1.483v.594h-5.53q.015.531.187 1 .187.469.5.813.328.343.765.547.453.203.985.203.718 0 1.265-.282.547-.296.907-.765l.812.625q-.187.297-.484.578-.282.266-.672.469-.375.203-.86.328-.468.125-1.03.125zm-.172-6.937q-.406 0-.765.157-.36.14-.64.421-.282.282-.485.704-.203.406-.282.937h4.172v-.11q-.03-.374-.156-.75-.125-.39-.375-.687-.234-.297-.61-.484-.359-.188-.859-.188zm10.608-1.093q.188 0 .39.015.204.016.376.047.187.016.343.047.157.031.25.078l-.171 1.297q-.391-.078-.735-.11-.344-.046-.719-.046-.937 0-1.515.422-.578.421-.844 1.171v4.97h-1.328v-7.75h1.25l.062 1.234q.485-.641 1.141-1 .656-.375 1.5-.375zm8.81 7.89q-.077-.156-.124-.375t-.063-.469q-.203.204-.453.391-.234.172-.531.313-.297.125-.64.203-.344.078-.72.078-.609 0-1.109-.172-.5-.188-.844-.484-.343-.313-.546-.72-.188-.421-.188-.905 0-.641.25-1.125.266-.485.734-.797.47-.313 1.11-.469.656-.156 1.469-.156h1.453v-.61q0-.359-.14-.64-.126-.282-.36-.469-.235-.203-.578-.297-.344-.11-.766-.11-.39 0-.703.094-.313.094-.531.266-.204.156-.329.39-.109.22-.109.47h-1.328q0-.422.203-.829.219-.406.61-.734.406-.328.968-.531.578-.203 1.297-.203.656 0 1.219.171.562.157.969.485.421.328.656.812.234.485.234 1.141v3.594q0 .39.063.828.078.422.218.75v.11h-1.39zm-2.327-1.015q.375 0 .703-.094.344-.094.625-.25.281-.172.469-.375.203-.219.328-.453v-1.563h-1.235q-1.156 0-1.812.344-.64.344-.64 1.078 0 .281.093.531.11.235.297.422.187.172.484.266.297.094.688.094zm12.607-2.766q0 .828-.203 1.547t-.593 1.25q-.375.531-.954.828-.562.297-1.296.297-.75 0-1.297-.266-.547-.265-.938-.75l-.062.875h-1.22v-11h1.329v4.094q.375-.484.906-.734.547-.25 1.266-.25.734 0 1.312.296.579.297.954.829.39.515.593 1.25.203.718.203 1.578v.156zm-1.328-.156q0-.563-.11-1.078-.108-.516-.358-.907-.235-.39-.641-.609-.39-.234-.953-.234-.344 0-.64.093-.282.094-.516.25-.22.157-.391.375-.172.22-.297.485v3.375q.125.265.297.484.187.219.406.39.235.157.516.25.297.079.64.079.532 0 .922-.219.39-.234.64-.61.25-.39.36-.89.125-.516.125-1.078v-.156zm3.764-7.063h3.953v9.86h2.532v1.14h-6.485v-1.14h2.64v-8.704h-2.64v-1.156zm12.014 11.14q-.828 0-1.516-.28-.671-.282-1.156-.782-.484-.5-.765-1.187-.266-.688-.266-1.485v-.312q0-.938.297-1.672t.797-1.25q.5-.516 1.125-.781.64-.281 1.312-.281.828 0 1.453.296.625.282 1.032.797.421.516.625 1.22.218.687.218 1.483v.594h-5.53q.015.531.187 1 .187.469.5.813.328.343.765.547.453.203.985.203.718 0 1.265-.282.547-.296.906-.765l.813.625q-.188.297-.484.578-.282.266-.672.469-.375.203-.86.328-.468.125-1.03.125zm-.172-6.937q-.406 0-.765.157-.36.14-.641.421-.281.282-.484.704-.204.406-.282.937h4.172v-.11q-.031-.374-.156-.75-.125-.39-.375-.687-.234-.297-.61-.484-.359-.188-.859-.188z"/><path fill="#e67c73" d="M567.921 224.2h2.844v14.14h-2.844v-1.093h1.594v-11.969h-1.594V224.2zm8.795 0h2.844v14.14h-2.844v-1.093h1.594v-11.969h-1.594V224.2zm9.452 11.047q0-.219.062-.406.078-.188.203-.313.125-.14.313-.219.203-.078.469-.078.25 0 .437.078.203.078.328.22.14.124.203.312.078.187.078.406 0 .203-.078.39-.062.188-.203.329-.125.125-.328.203-.187.078-.437.078-.266 0-.47-.078-.187-.078-.312-.203-.125-.141-.203-.329-.062-.187-.062-.39zm0-6q0-.219.062-.406.078-.188.203-.313.125-.14.313-.219.203-.078.469-.078.25 0 .437.078.203.078.328.22.14.124.203.312.078.187.078.406 0 .203-.078.39-.062.188-.203.329-.125.125-.328.203-.187.078-.437.078-.266 0-.47-.078-.187-.078-.312-.203-.125-.141-.203-.329-.062-.187-.062-.39z"/><path fill="#4285f4" d="M603.43 236.106v-6.719h-2.125v-1.03h2.125v-.532q0-.75.219-1.313.218-.562.61-.937.405-.375.952-.563.563-.203 1.25-.203.485 0 .922.078.453.079.922.204l-.156 1.093q-.297-.109-.688-.172-.39-.078-.828-.078-.937 0-1.406.47-.469.468-.469 1.421v.531h2.984v1.031h-2.984v6.72h-1.328zm11.912 0q-.079-.156-.125-.375-.047-.219-.063-.469-.203.204-.453.391-.234.172-.531.313-.297.125-.64.203-.345.078-.72.078-.609 0-1.109-.172-.5-.188-.844-.484-.344-.313-.547-.72-.187-.421-.187-.905 0-.641.25-1.125.265-.485.734-.797.469-.313 1.11-.469.656-.156 1.468-.156h1.453v-.61q0-.359-.14-.64-.125-.282-.36-.469-.234-.203-.578-.297-.343-.11-.765-.11-.39 0-.703.094-.313.094-.532.266-.203.156-.328.39-.11.22-.11.47h-1.327q0-.422.203-.829.219-.406.61-.734.405-.328.968-.531.578-.203 1.297-.203.656 0 1.219.171.562.157.968.485.422.328.657.812.234.485.234 1.141v3.594q0 .39.062.828.079.422.22.75v.11h-1.391zm-2.329-1.015q.375 0 .704-.094.343-.094.625-.25.28-.172.468-.375.203-.219.328-.453v-1.563h-1.234q-1.156 0-1.812.344-.641.344-.641 1.078 0 .281.094.531.11.235.297.422.187.172.484.266.297.094.687.094zm6.249-9.985h3.953v9.86h2.531v1.14h-6.484v-1.14h2.64v-8.704h-2.64v-1.156zm13.733 8.953q0-.25-.094-.437-.094-.188-.313-.344-.218-.156-.593-.281-.36-.14-.907-.25-.656-.14-1.203-.328t-.937-.453q-.391-.282-.61-.641-.218-.36-.218-.844 0-.469.218-.875.219-.406.625-.719.407-.312.953-.484.563-.187 1.22-.187.718 0 1.28.187.579.188.985.516t.625.781q.219.438.219.938h-1.329q0-.25-.14-.485-.125-.25-.36-.422-.218-.187-.546-.297-.329-.125-.735-.125-.422 0-.734.094-.313.094-.531.25-.204.156-.313.375-.11.203-.11.422 0 .219.079.406.094.172.297.328.218.141.562.25.36.11.906.22.72.155 1.282.358.562.188.953.47.39.265.594.64.203.36.203.844 0 .515-.235.937-.234.422-.656.719-.406.297-.984.469-.578.156-1.266.156-.797 0-1.406-.203-.61-.219-1.047-.563-.422-.344-.656-.797-.22-.468-.22-.968h1.329q.031.421.219.703.187.265.469.437.28.172.625.25.343.063.687.063.828 0 1.313-.297.5-.313.5-.813zm7.076 2.188q-.828 0-1.516-.281-.672-.282-1.156-.782-.484-.5-.766-1.187-.265-.688-.265-1.485v-.312q0-.938.297-1.672t.797-1.25q.5-.516 1.125-.781.64-.281 1.312-.281.828 0 1.453.296.625.282 1.031.797.422.516.625 1.22.22.687.22 1.483v.594h-5.532q.016.531.187 1 .188.469.5.813.329.343.766.547.453.203.984.203.72 0 1.266-.282.547-.296.906-.765l.813.625q-.188.297-.485.578-.28.266-.671.469-.375.203-.86.328-.469.125-1.031.125zm-.172-6.938q-.406 0-.766.157-.359.14-.64.421-.281.282-.485.704-.203.406-.28.937h4.171v-.11q-.031-.374-.156-.75-.125-.39-.375-.687-.235-.297-.61-.484-.359-.188-.859-.188z"/><path fill="#e67c73" d="M465.363 245.278h-1.578v11.969h1.578v1.094h-2.828V244.2h2.828v1.078zm8.795 0h-1.578v11.969h1.578v1.094h-2.828V244.2h2.828v1.078z"/><path fill="#673ab7" d="M485.079 252.966q-.094.734-.375 1.343-.282.594-.735 1.032-.437.421-1.062.672-.61.234-1.36.234-.64 0-1.172-.172-.515-.188-.937-.5-.406-.328-.703-.766-.297-.437-.5-.953-.188-.515-.297-1.078-.094-.578-.094-1.156v-1.453q0-.578.094-1.14.11-.563.297-1.079.203-.516.5-.953.297-.438.703-.766.422-.328.937-.5.532-.187 1.172-.187.782 0 1.391.25.625.234 1.062.672.454.437.72 1.062.265.61.359 1.344h-1.329q-.062-.469-.218-.875-.157-.406-.422-.703-.266-.313-.656-.485-.375-.187-.907-.187-.468 0-.828.156-.36.156-.625.422t-.437.625q-.172.344-.282.734-.109.391-.156.813-.047.406-.047.781v1.469q0 .39.047.812.047.407.156.813.11.39.282.734t.437.625q.266.266.625.422.36.14.828.14.532 0 .907-.156.39-.171.656-.468.265-.297.422-.688.156-.406.218-.89h1.329zm1.67-.797q0-.844.234-1.563.25-.719.703-1.25.453-.531 1.11-.828.656-.312 1.468-.312.813 0 1.47.312.655.297 1.109.828.453.531.703 1.25.25.719.25 1.563v.156q0 .828-.25 1.547t-.703 1.25q-.454.531-1.11.828-.64.297-1.453.297-.828 0-1.484-.297-.657-.297-1.11-.828-.453-.531-.703-1.25-.234-.719-.234-1.547v-.156zm1.328.156q0 .562.125 1.094.14.515.406.906.281.39.688.625.422.219.984.219.531 0 .938-.219.421-.234.687-.625.281-.39.422-.906.14-.532.14-1.094v-.156q0-.578-.14-1.094-.14-.516-.422-.906-.266-.39-.687-.625-.407-.235-.954-.235-.562 0-.968.235-.407.234-.688.625-.265.39-.406.906-.125.516-.125 1.094v.156zm9.03-3.969l.093 1.156q.422-.609 1.031-.937.61-.344 1.375-.36.61 0 1.11.172.5.172.844.547.359.36.546.922.188.563.188 1.328v4.922h-1.328v-4.89q0-.516-.125-.875-.11-.36-.328-.579-.219-.218-.547-.312-.328-.11-.75-.11-.672 0-1.172.344-.5.328-.813.875v5.547h-1.312v-7.75h1.187zm9.576 7.75v-6.719h-2.125v-1.03h2.125v-.532q0-.75.219-1.313.218-.562.609-.937.406-.375.953-.563.563-.203 1.25-.203.485 0 .922.078.453.079.922.204l-.156 1.093q-.297-.109-.688-.172-.39-.078-.828-.078-.937 0-1.406.47-.469.468-.469 1.421v.531h2.984v1.031h-2.984v6.72h-1.328zm7.037-7.75h3.953v6.61h2.531v1.14h-6.484v-1.14h2.64v-5.454h-2.64v-1.156zm2.468-2.031q0-.328.188-.547.203-.234.594-.234.406 0 .593.234.203.219.203.547 0 .328-.203.547-.187.203-.593.203-.391 0-.594-.203-.188-.219-.188-.547zm5.874 5.844q0-.86.203-1.578.219-.735.61-1.25.405-.532.984-.829.578-.296 1.296-.296.72 0 1.25.265.547.25.922.719l.063-.844h1.203v7.578q0 .766-.234 1.36-.235.61-.672 1.015-.438.422-1.047.625-.594.22-1.313.22-.312 0-.703-.079-.375-.062-.781-.219-.39-.14-.766-.406-.36-.25-.625-.64l.688-.782q.234.281.484.485.266.218.531.328.266.125.532.172.265.062.53.062.47 0 .845-.14.39-.126.656-.391.266-.266.406-.656.156-.375.156-.875v-.672q-.39.437-.921.672-.532.234-1.22.234-.702 0-1.28-.297-.579-.297-.97-.828-.39-.531-.609-1.25-.218-.719-.218-1.547v-.156zm1.328.156q0 .562.11 1.078.124.5.374.89.25.376.64.61.407.219.954.219.344 0 .61-.078.28-.078.5-.235.218-.156.39-.359.172-.203.312-.453v-3.547q-.14-.25-.312-.453t-.39-.344q-.22-.14-.5-.219-.266-.093-.594-.093-.563 0-.97.234-.39.219-.64.61-.25.39-.375.906-.11.515-.11 1.078v.156zm12.732 2.719q-.39.562-.968.89-.578.313-1.328.313-.61 0-1.11-.188-.484-.187-.844-.578-.343-.406-.546-1.031-.188-.625-.188-1.484v-4.61h1.328v4.625q0 .625.094 1.047.11.406.312.656.204.25.485.36.297.093.672.093.812 0 1.297-.328.5-.328.75-.89v-5.563h1.328v7.75H536.2l-.079-1.062zm8.843-6.828q.187 0 .39.015.203.016.375.047.188.016.344.047.156.031.25.078l-.172 1.297q-.39-.078-.734-.11-.344-.046-.72-.046-.937 0-1.515.422-.578.421-.843 1.171v4.97h-1.329v-7.75h1.25l.063 1.234q.484-.641 1.14-1 .657-.375 1.5-.375zm8.81 7.89q-.078-.156-.125-.375t-.062-.469q-.203.204-.453.391-.235.172-.532.313-.296.125-.64.203-.344.078-.719.078-.61 0-1.11-.172-.5-.188-.843-.484-.344-.313-.547-.72-.187-.421-.187-.905 0-.641.25-1.125.265-.485.734-.797.469-.313 1.11-.469.656-.156 1.468-.156h1.453v-.61q0-.359-.14-.64-.125-.282-.36-.469-.234-.203-.578-.297-.344-.11-.766-.11-.39 0-.703.094-.312.094-.53.266-.204.156-.33.39-.108.22-.108.47h-1.329q0-.422.204-.829.218-.406.609-.734.406-.328.969-.531.578-.203 1.297-.203.656 0 1.218.171.563.157.97.485.42.328.655.812.235.485.235 1.141v3.594q0 .39.062.828.078.422.219.75v.11h-1.39zm-2.328-1.015q.375 0 .703-.094.344-.094.625-.25.282-.172.47-.375.202-.219.327-.453v-1.563h-1.234q-1.156 0-1.813.344-.64.344-.64 1.078 0 .281.093.531.11.235.297.422.188.172.485.266.297.094.687.094zm12.608-2.766q0 .828-.203 1.547t-.594 1.25q-.375.531-.953.828-.563.297-1.297.297-.75 0-1.297-.266-.547-.265-.937-.75l-.063.875h-1.219v-11h1.329v4.094q.375-.484.906-.734.547-.25 1.265-.25.735 0 1.313.296.578.297.953.829.39.515.594 1.25.203.718.203 1.578v.156zm-1.328-.156q0-.563-.11-1.078-.109-.516-.359-.907-.234-.39-.64-.609-.391-.234-.954-.234-.343 0-.64.093-.282.094-.516.25-.219.157-.39.375-.172.22-.297.485v3.375q.125.265.296.484.188.219.407.39.234.157.515.25.297.079.64.079.532 0 .923-.219.39-.234.64-.61.25-.39.36-.89.125-.516.125-1.078v-.156zm3.764-7.063h3.953v9.86h2.531v1.14h-6.484v-1.14h2.64v-8.704h-2.64v-1.156zm12.014 11.14q-.828 0-1.516-.28-.672-.282-1.156-.782-.485-.5-.766-1.187-.265-.688-.265-1.485v-.312q0-.938.296-1.672.297-.734.797-1.25t1.125-.781q.64-.281 1.313-.281.828 0 1.453.296.625.282 1.031.797.422.516.625 1.22.219.687.219 1.483v.594h-5.531q.015.531.187 1 .188.469.5.813.328.343.766.547.453.203.984.203.719 0 1.266-.282.547-.296.906-.765l.813.625q-.188.297-.485.578-.281.266-.672.469-.375.203-.86.328-.468.125-1.03.125zm-.172-6.937q-.406 0-.766.157-.36.14-.64.421-.282.282-.485.704-.203.406-.281.937h4.172v-.11q-.031-.374-.156-.75-.125-.39-.375-.687-.235-.297-.61-.484-.36-.188-.86-.188z"/><path fill="#e67c73" d="M585.519 244.2h2.843v14.14h-2.843v-1.093h1.593v-11.969h-1.593V244.2zm8.795 0h2.844v14.14h-2.844v-1.093h1.594v-11.969h-1.594V244.2zm9.451 11.047q0-.219.063-.406.078-.188.203-.313.125-.14.312-.219.203-.078.47-.078.25 0 .437.078.203.078.328.22.14.124.203.312.078.187.078.406 0 .203-.078.39-.063.188-.203.329-.125.125-.328.203-.188.078-.438.078-.266 0-.469-.078-.187-.078-.312-.203-.125-.141-.203-.329-.063-.187-.063-.39zm0-6q0-.219.063-.406.078-.188.203-.313.125-.14.312-.219.203-.078.47-.078.25 0 .437.078.203.078.328.22.14.124.203.312.078.187.078.406 0 .203-.078.39-.063.188-.203.329-.125.125-.328.203-.188.078-.438.078-.266 0-.469-.078-.187-.078-.312-.203-.125-.141-.203-.329-.063-.187-.063-.39z"/><path fill="#4285f4" d="M621.027 256.106v-6.719h-2.125v-1.03h2.125v-.532q0-.75.22-1.313.218-.562.609-.937.406-.375.953-.563.562-.203 1.25-.203.484 0 .922.078.453.079.921.204l-.156 1.093q-.297-.109-.687-.172-.391-.078-.828-.078-.938 0-1.407.47-.468.468-.468 1.421v.531h2.984v1.031h-2.984v6.72h-1.329zm11.912 0q-.078-.156-.125-.375t-.062-.469q-.203.204-.453.391-.235.172-.532.313-.297.125-.64.203-.344.078-.72.078-.608 0-1.108-.172-.5-.188-.844-.484-.344-.313-.547-.72-.188-.421-.188-.905 0-.641.25-1.125.266-.485.735-.797.469-.313 1.11-.469.655-.156 1.468-.156h1.453v-.61q0-.359-.14-.64-.126-.282-.36-.469-.234-.203-.578-.297-.344-.11-.766-.11-.39 0-.703.094-.312.094-.531.266-.203.156-.328.39-.11.22-.11.47h-1.328q0-.422.203-.829.22-.406.61-.734.406-.328.969-.531.578-.203 1.296-.203.657 0 1.22.171.562.157.968.485.422.328.656.812.235.485.235 1.141v3.594q0 .39.062.828.078.422.219.75v.11h-1.39zm-2.328-1.015q.375 0 .703-.094.344-.094.625-.25.281-.172.469-.375.203-.219.328-.453v-1.563h-1.234q-1.157 0-1.813.344-.64.344-.64 1.078 0 .281.093.531.11.235.297.422.188.172.485.266.296.094.687.094zm6.248-9.985h3.953v9.86h2.532v1.14h-6.485v-1.14h2.64v-8.704h-2.64v-1.156zm13.733 8.953q0-.25-.094-.437-.094-.188-.312-.344-.219-.156-.594-.281-.36-.14-.906-.25-.657-.14-1.203-.328-.547-.188-.938-.453-.39-.282-.61-.641-.218-.36-.218-.844 0-.469.219-.875.218-.406.625-.719.406-.312.953-.484.562-.187 1.219-.187.718 0 1.28.187.579.188.985.516t.625.781q.219.437.219.937h-1.328q0-.25-.14-.484-.126-.25-.36-.422-.219-.187-.547-.297-.328-.125-.734-.125-.422 0-.735.094-.312.094-.531.25-.203.156-.313.375-.109.203-.109.422 0 .219.078.406.094.172.297.328.219.141.563.25.359.11.906.22.719.155 1.281.358.563.188.953.47.39.265.594.64.203.36.203.844 0 .515-.234.937-.235.422-.657.719-.406.297-.984.469-.578.156-1.266.156-.796 0-1.406-.203-.61-.219-1.047-.563-.422-.344-.656-.797-.219-.468-.219-.968h1.328q.032.421.22.703.187.265.468.437t.625.25q.344.063.687.063.829 0 1.313-.297.5-.313.5-.813zm7.076 2.188q-.828 0-1.515-.281-.672-.282-1.156-.782-.485-.5-.766-1.187-.266-.688-.266-1.485v-.312q0-.938.297-1.672t.797-1.25q.5-.516 1.125-.781.64-.281 1.313-.281.828 0 1.453.296.625.282 1.031.797.422.516.625 1.22.219.687.219 1.483v.594h-5.532q.016.531.188 1 .187.469.5.813.328.343.766.547.453.203.984.203.719 0 1.266-.282.546-.296.906-.765l.812.625q-.187.297-.484.578-.281.266-.672.469-.375.203-.86.328-.468.125-1.03.125zm-.171-6.938q-.407 0-.766.157-.36.14-.64.421-.282.282-.485.704-.203.406-.281.937h4.172v-.11q-.032-.374-.157-.75-.125-.39-.375-.687-.234-.297-.609-.484-.36-.188-.86-.188z"/></g></svg>