<svg viewBox="0 0 960 540" fill="none" stroke-linecap="square" stroke-miterlimit="10" xmlns="http://www.w3.org/2000/svg"><clipPath id="a"><path d="M0 0h960v540H0V0z"/></clipPath><g clip-path="url(#a)"><path fill="#fff" d="M0 0h960v540H0z" fill-rule="evenodd"/><path fill="#fbbc05" fill-opacity=".377" d="M501.163 305.156H879.87v26.173H501.163z" fill-rule="evenodd"/><path stroke="#666" stroke-linejoin="round" stroke-linecap="butt" d="M501.163 305.156H879.87v26.173H501.163z"/><path fill="#000" d="M511.256 319.806q0-.953.235-1.735.234-.796.672-1.359.437-.578 1.062-.89.625-.329 1.406-.329.782 0 1.375.282.594.265 1 .796l.079-.921h1.312v8.265q0 .844-.266 1.485-.265.656-.734 1.109-.469.453-1.125.687-.656.235-1.453.235-.328 0-.75-.078-.422-.063-.86-.235-.437-.172-.843-.453-.39-.281-.688-.687l.75-.875q.266.328.547.547.281.218.563.343.297.14.578.203.297.063.594.063.515 0 .921-.156.422-.141.704-.438.296-.281.453-.703.156-.422.156-.969v-.734q-.422.484-1 .75-.563.25-1.328.25-.766 0-1.39-.328-.626-.328-1.063-.906-.438-.579-.672-1.36-.235-.797-.235-1.703v-.156zm1.454.156q0 .625.125 1.188.125.546.406.968.281.422.703.672.437.235 1.031.235.375 0 .672-.079.313-.093.547-.25.234-.171.422-.39.187-.235.328-.516v-3.875q-.14-.265-.328-.484-.188-.219-.438-.375-.234-.156-.53-.25-.298-.094-.657-.094-.61 0-1.047.25-.422.25-.703.688-.281.421-.406.984-.125.547-.125 1.172v.156zm12.148 4.297q-.89 0-1.64-.297-.735-.312-1.266-.86-.531-.546-.828-1.296-.297-.75-.297-1.64v-.329q0-1.016.328-1.828.328-.813.86-1.36.546-.562 1.234-.859.703-.297 1.422-.297.921 0 1.593.313.688.312 1.14.875.454.562.673 1.328.234.75.234 1.625v.656h-6.047q.032.578.219 1.094.203.5.547.875.36.375.844.594.484.218 1.062.218.781 0 1.375-.312.61-.313 1-.828l.89.687q-.218.328-.53.625-.313.282-.735.516-.406.219-.937.36-.516.14-1.141.14zm-.187-7.578q-.438 0-.829.156-.39.156-.703.469-.312.312-.531.765-.203.438-.297 1.032h4.547v-.11q-.016-.422-.156-.828-.14-.422-.406-.75t-.672-.531q-.391-.203-.953-.203zm9.476-3.078v2.047h3.219v1.109h-3.219v4.594q0 .5.125.828.125.312.344.5.219.187.5.265.297.079.61.079.234 0 .484-.016.25-.031.484-.063.25-.046.453-.093l.344-.078.203 1.03q-.188.11-.453.188-.25.078-.563.14-.297.063-.64.095-.328.03-.672.03-.563 0-1.047-.155-.484-.172-.844-.516-.36-.344-.578-.89-.203-.563-.203-1.344v-4.594h-2.219v-1.11h2.219v-2.046h1.453zm13.195 11.687h-7.156v-1.187h7.156v1.187zm9.758-5.328q0 .906-.219 1.703-.218.781-.64 1.36-.422.578-1.047.906-.625.328-1.422.328-.812 0-1.422-.281-.594-.297-1.015-.844l-.063.969h-1.328v-12h1.437v4.453q.422-.516 1-.781.594-.282 1.375-.282.813 0 1.438.328.625.313 1.047.891.422.563.64 1.36.22.78.22 1.734v.156zm-1.453-.156q0-.625-.125-1.172-.11-.563-.375-.984-.266-.438-.703-.688-.422-.25-1.047-.25-.375 0-.687.11-.313.093-.563.265-.25.172-.437.422-.188.234-.329.516v3.687q.141.281.329.531.203.235.453.422.25.172.562.266.313.094.688.094.593 0 1.015-.235.422-.25.688-.672.281-.422.406-.968.125-.563.125-1.188v-.156zm6.992 1.297l.375 1.015 2.578-6.468h1.625l-4.296 9.765q-.141.328-.375.688-.235.375-.563.687-.328.313-.766.516-.437.219-1 .219-.109 0-.234-.016l-.25-.031q-.125-.016-.234-.047-.11-.016-.172-.031l.234-1.188h.14q.095.016.188.016.11.015.203.015.094.016.157.016.297 0 .53-.172.25-.156.438-.39.204-.22.329-.47.14-.234.218-.39l.578-1.14-3.64-8.047h1.625l2.312 5.453zm13.508 4.187h-7.156v-1.187h7.156v1.187zm2.82-9.64h4.313v7.203h2.766v1.25h-7.079v-1.25h2.875V316.9h-2.875v-1.25zm2.688-2.22q0-.359.203-.609.219-.25.656-.25.438 0 .657.25.218.25.218.61 0 .344-.218.578-.22.234-.657.234-.437 0-.656-.234-.203-.234-.203-.578zm6.414 6.376q0-.953.234-1.735.235-.796.672-1.359.453-.578 1.078-.89.625-.329 1.391-.329t1.328.25q.563.25.984.735v-4.375h1.438v12h-1.328l-.063-.891q-.422.516-1.015.781-.578.266-1.36.266-.765 0-1.39-.328-.61-.328-1.047-.906-.438-.579-.688-1.36-.234-.797-.234-1.703v-.156zm1.437.156q0 .625.125 1.188.141.546.422.968.282.422.703.672.438.235 1.032.235.375 0 .672-.079.296-.093.53-.25.25-.156.438-.375.188-.234.328-.5V317.9q-.28-.516-.765-.844-.469-.344-1.188-.344-.609 0-1.047.25-.421.25-.703.688-.28.421-.422.984-.125.547-.125 1.172v.156zm18.266-7.86h4.313v10.75h2.765v1.25h-7.078v-1.25h2.875v-9.5h-2.875v-1.25zm8.961 7.688q0-.906.266-1.687.265-.797.765-1.375t1.203-.907q.72-.328 1.61-.328.89 0 1.61.328.718.329 1.202.907.5.578.766 1.375.266.78.266 1.687v.172q0 .922-.266 1.703t-.766 1.36q-.484.578-1.203.906-.703.328-1.594.328-.906 0-1.625-.328-.703-.328-1.203-.906-.5-.579-.765-1.36-.266-.781-.266-1.703v-.172zm1.453.172q0 .625.14 1.203.157.563.454 1 .297.422.75.672.453.25 1.062.25.594 0 1.032-.25.453-.25.75-.672.312-.437.453-1 .156-.578.156-1.203v-.172q0-.61-.156-1.172-.156-.578-.453-1-.297-.437-.75-.687-.453-.25-1.047-.25-.61 0-1.063.25-.437.25-.734.687-.297.422-.453 1-.14.563-.14 1.172v.172zm12.164 3.125q.39 0 .75-.125.375-.125.656-.344.297-.234.47-.531.187-.297.187-.656h1.375q-.016.562-.297 1.078-.281.516-.766.906-.469.375-1.094.61-.609.234-1.28.234-.97 0-1.688-.344-.719-.344-1.203-.922-.47-.593-.72-1.343-.234-.766-.234-1.61v-.328q0-.844.235-1.61.25-.765.719-1.343.484-.578 1.203-.922.718-.344 1.687-.344.75 0 1.375.235.625.234 1.078.656.47.406.72.969.265.562.265 1.203h-1.375q0-.39-.172-.719-.156-.344-.438-.594-.265-.265-.64-.406-.375-.156-.813-.156-.672 0-1.14.265-.454.266-.735.704-.281.437-.406.984-.11.531-.11 1.078v.328q0 .547.11 1.094.125.547.406.984.281.422.735.703.453.266 1.14.266zm13.133-3.344q0 1.094-.25 1.938-.25.828-.719 1.406-.468.578-1.156.875-.672.297-1.547.297-.86 0-1.547-.297-.687-.297-1.172-.875-.468-.578-.718-1.406-.25-.844-.25-1.938v-2.656q0-1.094.25-1.922.25-.844.718-1.422.47-.578 1.157-.875.687-.312 1.547-.312.875 0 1.562.312.688.297 1.156.875.469.578.719 1.422.25.828.25 1.922v2.656zm-5.906-.281l4.422-3.406q-.125-1.125-.657-1.719-.53-.594-1.546-.594-1.141 0-1.688.782-.531.765-.531 2.234v2.703zm4.453-2.016l-4.422 3.375q.14 1.11.688 1.688.546.578 1.515.578 1.156 0 1.688-.781.53-.781.53-2.25v-2.61zm7.586 6.313q0 .375-.094.781t-.266.797q-.171.39-.421.75-.25.36-.579.64l-.906-.484q.375-.547.531-1.172.157-.609.157-1.28v-1.407h1.578v1.375zm21.094.344q-.094-.172-.141-.407-.047-.25-.078-.515-.219.219-.485.422-.265.187-.593.343-.328.141-.703.22-.36.093-.766.093-.672 0-1.219-.188-.547-.203-.922-.53-.375-.345-.593-.798-.204-.453-.204-.984 0-.703.282-1.219.281-.531.781-.875.516-.344 1.219-.515.718-.172 1.61-.172h1.577v-.672q0-.375-.14-.672-.141-.313-.407-.531-.25-.22-.625-.328-.375-.125-.828-.125-.437 0-.781.109-.328.11-.563.297-.234.172-.375.422-.125.25-.125.515h-1.453q.016-.468.235-.906.234-.453.672-.797.437-.36 1.046-.578.625-.219 1.422-.219.72 0 1.328.172.625.172 1.063.531.453.36.703.891.266.531.266 1.234v3.938q0 .422.078.89.078.47.219.829v.125h-1.5zm-2.563-1.11q.422 0 .781-.11.375-.108.672-.28.313-.188.531-.407.22-.234.344-.484v-1.719h-1.344q-1.265 0-1.968.375-.703.375-.703 1.188 0 .312.093.578.11.266.313.453.219.188.531.297.328.11.75.11zm12.149-7.5q.203 0 .421.016.22 0 .407.031.203.031.375.078.172.032.28.078l-.202 1.407q-.422-.094-.797-.125-.375-.047-.797-.047-1.016 0-1.64.469-.626.453-.922 1.28v5.423h-1.454v-8.453h1.375l.063 1.343q.516-.703 1.234-1.093.735-.407 1.657-.407zm3.789 4.313q0-.953.234-1.735.234-.796.672-1.359.437-.578 1.062-.89.625-.329 1.407-.329.78 0 1.375.282.593.265 1 .796l.078-.921h1.312v8.265q0 .844-.265 1.485-.266.656-.735 1.109-.469.453-1.125.687-.656.235-1.453.235-.328 0-.75-.078-.422-.063-.86-.235-.437-.172-.843-.453-.39-.281-.688-.687l.75-.875q.266.328.547.547.282.218.563.343.297.14.578.203.297.063.594.063.515 0 .922-.156.421-.141.703-.438.297-.281.453-.703.156-.422.156-.969v-.734q-.422.484-1 .75-.562.25-1.328.25t-1.39-.328q-.626-.328-1.063-.906-.438-.579-.672-1.36-.234-.797-.234-1.703v-.156zm1.453.156q0 .625.125 1.188.125.546.406.968.281.422.703.672.438.235 1.031.235.375 0 .672-.079.313-.093.547-.25.234-.171.422-.39.187-.235.328-.516v-3.875q-.14-.265-.328-.484-.188-.219-.438-.375-.234-.156-.53-.25-.298-.094-.657-.094-.61 0-1.047.25-.422.25-.703.688-.281.421-.406.984-.125.547-.125 1.172v.156zm13.101 4.14h-1.437v-9.53l-2.985 1.124v-1.312l4.313-1.656h.11v11.375zm8.586-.343q0 .375-.094.781-.093.406-.265.797-.172.39-.422.75t-.578.64l-.906-.484q.375-.547.53-1.172.157-.609.157-1.28v-1.407h1.578v1.375zm19.031-4.984l2.25-3.125h1.704l-3.157 4.171 3.235 4.282h-1.672l-2.328-3.22-2.344 3.22h-1.688l3.235-4.282-3.14-4.171h1.671l2.234 3.125z"/><path fill="#fbbc05" fill-opacity=".377" d="M501.163 331.217H879.87v26.173H501.163z" fill-rule="evenodd"/><path stroke="#666" stroke-linejoin="round" stroke-linecap="butt" d="M501.163 331.217H879.87v26.173H501.163z"/><path fill="#000" d="M517.069 341.554q.203 0 .422.015.219 0 .406.032.203.03.375.078.172.031.281.078l-.203 1.406q-.422-.094-.797-.125-.375-.047-.797-.047-1.015 0-1.64.469-.625.453-.922 1.281v5.422h-1.453v-8.453h1.375l.062 1.344q.516-.703 1.235-1.094.734-.406 1.656-.406zm7.79 8.765q-.892 0-1.642-.296-.734-.313-1.265-.86-.531-.547-.828-1.297-.297-.75-.297-1.64v-.328q0-1.016.328-1.829.328-.812.86-1.359.546-.562 1.234-.86.703-.296 1.422-.296.921 0 1.593.312.688.313 1.14.875.454.563.673 1.328.234.75.234 1.625v.657h-6.047q.032.578.22 1.093.202.5.546.875.36.375.844.594.484.219 1.062.219.781 0 1.375-.313.61-.312 1-.828l.89.688q-.218.328-.53.625-.313.281-.735.515-.406.22-.937.36-.516.14-1.14.14zm-.188-7.578q-.438 0-.829.157-.39.156-.703.468-.312.313-.53.766-.204.437-.298 1.031h4.547v-.11q-.016-.421-.156-.827-.14-.422-.406-.75t-.672-.532q-.39-.203-.953-.203zm9.476-3.078v2.047h3.219v1.11h-3.219v4.593q0 .5.125.828.125.313.344.5.219.188.5.266.297.078.61.078.234 0 .484-.016.25-.03.484-.062.25-.047.453-.094l.344-.078.203 1.031q-.188.11-.453.188-.25.078-.563.14-.297.063-.64.094-.328.031-.672.031-.563 0-1.047-.156-.484-.172-.844-.515-.36-.344-.578-.891-.203-.563-.203-1.344v-4.594h-2.219v-1.109h2.219v-2.047h1.453zm11.664 9.328q-.422.625-1.062.985-.625.343-1.453.343-.657 0-1.204-.203-.53-.218-.921-.656-.375-.437-.594-1.11-.203-.671-.203-1.624v-5.016h1.453v5.031q0 .688.11 1.14.109.454.327.735.22.266.532.375.312.11.734.11.875 0 1.422-.36.547-.36.812-.968v-6.063h1.453v8.453h-1.312l-.094-1.172zm9.664-7.437q.203 0 .422.015.219 0 .406.032.203.03.375.078.172.031.282.078l-.204 1.406q-.421-.094-.796-.125-.375-.047-.797-.047-1.016 0-1.64.469-.626.453-.923 1.281v5.422h-1.453v-8.453h1.375l.063 1.344q.515-.703 1.234-1.094.734-.406 1.656-.406zm5.352.156l.11 1.25q.452-.656 1.124-1.031.672-.375 1.5-.375.672 0 1.203.187.547.188.922.594.39.39.594 1 .219.61.219 1.453v5.375h-1.453v-5.344q0-.562-.125-.953-.125-.39-.375-.625-.235-.25-.594-.36-.36-.108-.813-.108-.734 0-1.28.375-.548.359-.876.953v6.062h-1.453v-8.453h1.297zm18.14-3.547h4.313v10.75h2.766v1.25h-7.079v-1.25h2.875v-9.5h-2.875v-1.25zm8.961 7.688q0-.907.266-1.688.266-.797.766-1.375t1.203-.906q.718-.328 1.61-.328.89 0 1.608.328.72.328 1.204.906.5.578.765 1.375.266.781.266 1.688v.172q0 .921-.266 1.703-.265.78-.765 1.359-.485.578-1.204.906-.703.328-1.593.328-.907 0-1.625-.328-.703-.328-1.203-.906-.5-.578-.766-1.36-.266-.78-.266-1.702v-.172zm1.453.172q0 .625.141 1.203.156.562.453 1 .297.422.75.672.453.25 1.063.25.593 0 1.031-.25.453-.25.75-.672.313-.438.453-1 .156-.578.156-1.203v-.172q0-.61-.156-1.172-.156-.578-.453-1-.297-.438-.75-.688-.453-.25-1.047-.25-.61 0-1.062.25-.438.25-.735.688-.297.422-.453 1-.14.562-.14 1.172v.172zm12.165 3.125q.39 0 .75-.125.375-.125.656-.344.297-.235.469-.531.187-.297.187-.657h1.375q-.016.563-.297 1.078-.281.516-.765.907-.47.375-1.094.609-.61.234-1.281.234-.97 0-1.688-.343-.719-.344-1.203-.922-.469-.594-.719-1.344-.234-.766-.234-1.61v-.327q0-.844.234-1.61.25-.765.719-1.344.484-.578 1.203-.921.719-.344 1.688-.344.75 0 1.375.234.625.235 1.078.656.468.407.718.97.266.562.266 1.202h-1.375q0-.39-.172-.718-.156-.344-.437-.594-.266-.266-.64-.406-.376-.157-.813-.157-.672 0-1.141.266-.453.266-.734.703-.282.438-.407.984-.11.532-.11 1.079v.328q0 .547.11 1.093.125.547.407.985.28.422.734.703.453.266 1.14.266zm13.132-3.344q0 1.094-.25 1.937-.25.828-.718 1.407-.47.578-1.157.875-.672.296-1.547.296-.859 0-1.546-.296-.688-.297-1.172-.875-.469-.579-.719-1.407-.25-.843-.25-1.937v-2.656q0-1.094.25-1.922.25-.844.719-1.422.468-.578 1.156-.875.688-.313 1.547-.313.875 0 1.562.313.688.297 1.157.875.468.578.718 1.422.25.828.25 1.922v2.656zm-5.906-.281l4.422-3.407q-.125-1.125-.656-1.718-.532-.594-1.547-.594-1.14 0-1.688.781-.53.766-.53 2.234v2.704zm4.453-2.016l-4.422 3.375q.141 1.11.688 1.687.547.579 1.515.579 1.157 0 1.688-.782.531-.781.531-2.25v-2.61z"/><path fill="#34a853" d="M489.979 247.25c0-6.283 5.093-11.376 11.376-11.376h376.304a11.375 11.375 0 0 1 11.375 11.376v45.5c0 6.283-5.093 11.376-11.375 11.376H501.355c-6.283 0-11.376-5.093-11.376-11.376z" fill-rule="evenodd"/><path stroke="#666" stroke-linejoin="round" stroke-linecap="butt" d="M489.979 247.25c0-6.283 5.093-11.376 11.376-11.376h376.304a11.375 11.375 0 0 1 11.375 11.376v45.5c0 6.283-5.093 11.376-11.375 11.376H501.355c-6.283 0-11.376-5.093-11.376-11.376z"/><path fill="#fff" d="M580.98 260.647h3.657l.016 13.14q-.016 1.344-.516 2.47-.5 1.109-1.375 1.921-.86.797-2.047 1.25-1.172.438-2.531.438-1.422 0-2.594-.36-1.172-.375-2.015-1.093-.844-.72-1.313-1.813-.469-1.094-.484-2.578h3.672q.015 1.531.672 2.219.671.672 2.062.672.625 0 1.14-.235.532-.234.891-.656.375-.422.563-1 .203-.578.203-1.234v-13.141zm16.904 14q0-.5-.188-.938-.172-.453-.594-.828-.422-.39-1.11-.703-.671-.328-1.687-.594-1.234-.343-2.359-.843-1.125-.516-1.984-1.22-.86-.718-1.375-1.671-.516-.953-.516-2.187 0-1.204.5-2.172.516-.985 1.406-1.672.907-.688 2.125-1.063 1.219-.375 2.657-.375 1.484 0 2.703.438 1.234.422 2.125 1.203.89.781 1.375 1.844.5 1.062.5 2.343h-3.563q-.031-.64-.234-1.171-.203-.532-.61-.907-.39-.39-.984-.61-.578-.218-1.375-.218-.734 0-1.297.188-.562.172-.953.484-.39.313-.594.75-.203.438-.203.953 0 .531.266.969.265.422.765.766.516.343 1.235.64.719.281 1.64.516 1.297.39 2.391.937t1.875 1.297q.797.735 1.234 1.703.438.953.438 2.125 0 1.25-.516 2.219-.5.969-1.39 1.64-.875.673-2.094 1.016-1.219.344-2.672.344-.89 0-1.781-.172-.89-.156-1.719-.484-.812-.344-1.516-.844-.703-.516-1.218-1.187-.5-.688-.797-1.547-.297-.86-.297-1.907h3.594q.03.86.297 1.485.28.61.765 1t1.172.578q.688.172 1.5.172.734 0 1.297-.172.562-.172.953-.469.39-.297.594-.719.219-.421.219-.937zm18.183-2.89h-8.125v7.843h-3.671v-18.953h12.812v2.984h-9.14v5.157h8.124v2.968zm13.075 5.859q-.719 1.062-1.735 1.656-1 .594-2.187.594-1.094 0-2.016-.328-.906-.344-1.562-1.079-.64-.734-1-1.875-.36-1.14-.36-2.734v-8.328h3.625v8.344q0 .859.11 1.453.125.578.39.937.282.36.72.516.452.156 1.093.156 1.078 0 1.75-.406.687-.406 1.031-1.125v-9.875h3.625V279.6h-3.265l-.22-1.984zm10.293-12.094l.234 1.953q.75-1.062 1.829-1.64 1.078-.579 2.39-.579 1.078 0 1.953.313.89.312 1.532 1 .64.672 1 1.75.359 1.078.359 2.61v8.671h-3.61v-8.61q0-.843-.203-1.374-.187-.547-.546-.86-.344-.312-.844-.437-.485-.125-1.11-.125-.921 0-1.578.375-.64.375-1.047 1.015V279.6h-3.64v-14.078h3.281zm18.95 11.453q.546 0 1.015-.156.485-.156.844-.438.375-.297.578-.703.203-.406.172-.89h3.406q.031 1.093-.453 2.03-.469.938-1.297 1.61-.812.672-1.906 1.063-1.078.375-2.281.375-1.641 0-2.891-.547-1.234-.547-2.062-1.516-.813-.969-1.25-2.25-.422-1.297-.422-2.781v-.39q0-1.485.422-2.782.421-1.297 1.25-2.25.828-.969 2.062-1.531 1.234-.563 2.86-.563 1.296 0 2.406.39 1.109.392 1.906 1.11.797.703 1.234 1.719.453 1 .422 2.25h-3.406q.031-.516-.156-.984-.188-.47-.547-.813-.344-.344-.844-.547-.484-.203-1.062-.203-.86 0-1.422.36-.563.343-.891.937-.328.578-.469 1.344-.14.75-.14 1.562v.39q0 .813.125 1.579.14.766.468 1.344.329.578.891.937.578.344 1.438.344zm16.402-14.906v3.453h5.266v2.656h-5.266v6.063q0 .765.172 1.28.188.517.5.829.328.297.797.438.469.125 1.031.125.422 0 .86-.032.437-.047.828-.11.406-.062.75-.124.343-.063.578-.125l.36 2.484q-.376.219-.891.39-.5.157-1.079.25-.562.11-1.187.157-.625.063-1.219.063-1.156 0-2.11-.297-.937-.313-1.609-.953-.671-.641-1.03-1.641-.36-1-.36-2.39v-6.407h-3.219v-2.656h3.219v-3.453h3.61zm10.325 3.453h7.672v11.14h3.812v2.938h-11.484v-2.937h4.015v-8.188h-4.015v-2.953zm3.75-3.61q0-.421.14-.78.157-.36.422-.61.281-.25.656-.39.391-.141.86-.141.969 0 1.531.547.563.53.563 1.375 0 .843-.563 1.39-.562.531-1.531.531-.469 0-.86-.14-.375-.14-.656-.39-.265-.266-.422-.61-.14-.36-.14-.781zm10.793 10.516q0-1.531.437-2.844.438-1.312 1.297-2.265.86-.969 2.078-1.516 1.235-.547 2.828-.547 1.579 0 2.813.547 1.25.547 2.094 1.516.86.953 1.297 2.265.437 1.313.437 2.844v.281q0 1.547-.437 2.86-.438 1.297-1.297 2.265-.844.954-2.078 1.5-1.235.532-2.813.532t-2.828-.532q-1.234-.546-2.094-1.5-.86-.968-1.297-2.265-.437-1.313-.437-2.86v-.28zm3.61.281q0 .875.171 1.657.172.765.531 1.343.375.579.953.922.579.344 1.391.344.797 0 1.36-.344.578-.343.937-.922.36-.578.531-1.343.172-.782.172-1.657v-.28q0-.86-.172-1.626-.172-.765-.531-1.344-.36-.593-.938-.937-.562-.344-1.375-.344-.812 0-1.39.344-.563.344-.938.937-.359.579-.53 1.344-.173.766-.173 1.625v.281zm16.152-7.187l.234 1.953q.75-1.062 1.828-1.64 1.078-.579 2.39-.579 1.08 0 1.954.313.89.312 1.531 1 .64.672 1 1.75.36 1.078.36 2.61v8.671h-3.61v-8.61q0-.843-.203-1.374-.187-.547-.547-.86-.343-.312-.843-.437-.485-.125-1.11-.125-.922 0-1.578.375-.64.375-1.047 1.015V279.6h-3.64v-14.078h3.28zm28.192 1.375l-.25 3.656h-1.703V265.6h1.953v1.297zm6.117 7.703q0-1.125.266-2.047.281-.937.797-1.594.53-.671 1.265-1.03.735-.36 1.672-.36.86 0 1.469.297.625.28 1.062.812l.11-.937h2.297v9.547q0 1-.344 1.78-.328.782-.953 1.313-.61.547-1.469.813-.86.281-1.906.281-.438 0-.953-.094-.516-.078-1.016-.281-.5-.187-.953-.484-.438-.297-.75-.703l1.14-1.532q.485.547 1.094.828.61.282 1.313.282 1.062 0 1.656-.578.61-.563.61-1.61v-.562q-.454.5-1.047.78-.594.267-1.375.267-.922 0-1.657-.375-.734-.391-1.265-1.047-.516-.672-.797-1.578-.266-.922-.266-2v-.188zm2.547.188q0 .625.11 1.156.124.531.374.937.266.39.657.625.39.219.922.219.671 0 1.093-.25.438-.266.703-.719v-4.172q-.265-.468-.703-.718-.422-.25-1.062-.25-.547 0-.938.234-.39.234-.656.64-.25.407-.375.954-.125.531-.125 1.156v.188zm13.68 5q-1.14 0-2.078-.375-.922-.375-1.594-1.016-.656-.64-1.015-1.516-.36-.875-.36-1.86v-.374q0-1.125.36-2.047.359-.937.984-1.61.64-.687 1.516-1.046.875-.375 1.906-.375 1.062 0 1.89.344.844.343 1.422.984.578.64.875 1.547.313.89.313 1.969v1.078h-6.688q.063.5.282.922.234.406.578.718.343.297.78.469.454.156.985.156.375 0 .735-.078.375-.078.703-.219.344-.14.64-.343.297-.22.516-.5l1.266 1.375q-.235.328-.625.656-.375.328-.89.578-.517.25-1.142.406-.625.157-1.359.157zm-.297-8.172q-.422 0-.781.156-.36.14-.625.422-.266.281-.453.672-.188.39-.266.875h4.14v-.203q-.015-.391-.155-.75-.125-.36-.391-.61-.25-.265-.625-.406-.36-.156-.844-.156zm11.368-4.282v2.407h3.671v1.875h-3.671v4.234q0 .531.109.89.125.36.344.579.234.219.562.312.328.078.719.078.297 0 .594-.015.312-.031.593-.063.282-.047.516-.093.25-.047.422-.094l.234 1.734q-.25.156-.609.281-.36.11-.766.172-.39.078-.828.11-.437.047-.844.047-.812 0-1.484-.204-.656-.218-1.125-.671-.469-.454-.734-1.141-.25-.703-.25-1.672v-4.484h-2.25v-1.875h2.25v-2.407h2.547zm10.945 3.75l2.36-4.75h3l-3.735 6.579 3.828 6.687h-2.984L792 274.772l-2.421 4.828h-3.032l3.828-6.687-3.718-6.579h2.984l2.328 4.75zm11.618-4.187l-.25 3.656h-1.704V265.6h1.954v1.297z"/><path fill="#e67c73" d="M821.604 305.155h58.267v26.173h-58.267z" fill-rule="evenodd"/><path stroke="#666" stroke-linejoin="round" stroke-linecap="butt" d="M821.604 305.155h58.267v26.173h-58.267z"/><path fill="#000" d="M844.82 324.101h-1.47l-4.405-8.5-.032 8.5h-1.453v-11.375h1.469l4.406 8.485.031-8.485h1.454v11.375zm4.382.985h-1.296l4.75-12.36h1.296l-4.75 12.36zm13.133-3.938h-3.797l-.922 2.953h-1.437l3.672-11.375h1.203l3.61 11.375h-1.438l-.89-2.953zm-3.406-1.25h3.016l-1.5-4.937-1.516 4.937z"/><path fill="#e67c73" d="M763.336 305.155h58.268v26.173h-58.268z" fill-rule="evenodd"/><path stroke="#666" stroke-linejoin="round" stroke-linecap="butt" d="M763.336 305.155h58.268v26.173h-58.268z"/><path fill="#000" d="M786.552 324.101h-1.469l-4.406-8.5-.031 8.5h-1.454v-11.375h1.47l4.405 8.485.032-8.485h1.453v11.375zm4.383.985h-1.297l4.75-12.36h1.297l-4.75 12.36zm13.132-3.938h-3.796l-.922 2.953h-1.438l3.672-11.375h1.203l3.61 11.375h-1.438l-.89-2.953zm-3.406-1.25h3.016l-1.5-4.937-1.516 4.937z"/><path d="M40 51.14h494.74v153.92H40z"/><path fill="#4285f4" d="M54.281 83.18v-11h-3.5v-1.688h3.5V69.6q0-1.219.344-2.125.36-.922 1.016-1.547.656-.625 1.562-.937.922-.313 2.047-.313.766 0 1.5.125t1.5.328L62 66.93q-.484-.172-1.125-.297-.64-.125-1.36-.125-1.53.016-2.296.781-.766.766-.766 2.313v.89h4.89v1.688h-4.89v11h-2.172zm19.399-1.75q-.625.937-1.578 1.468-.954.515-2.188.515-1 0-1.812-.312-.813-.313-1.391-.969-.563-.656-.875-1.672-.313-1.015-.313-2.422v-7.546h2.172v7.562q0 1.031.157 1.719.171.672.5 1.078.328.406.796.578.485.156 1.094.156 1.328 0 2.14-.53.813-.548 1.22-1.47v-9.093h2.171v12.687h-1.968l-.125-1.75zm8.12-10.938l.157 1.875q.688-.985 1.688-1.532 1.015-.562 2.265-.578.985 0 1.797.281.828.282 1.39.891.579.594.891 1.516.313.922.313 2.187v8.047h-2.172v-8q0-.844-.188-1.422-.187-.594-.562-.953-.36-.375-.89-.531-.532-.172-1.235-.172-1.078 0-1.906.547-.828.547-1.328 1.437v9.094h-2.157V70.492h1.938zm17.856 11.156q.594 0 1.14-.188.563-.187 1-.515.438-.328.688-.782.266-.453.282-.984h2.047q0 .844-.438 1.61-.422.765-1.14 1.359-.72.578-1.641.922-.922.343-1.938.343-1.437 0-2.515-.515-1.078-.516-1.797-1.39-.719-.876-1.094-2.016-.36-1.141-.36-2.407v-.5q0-1.25.36-2.39.375-1.157 1.094-2.032.719-.875 1.797-1.39 1.078-.516 2.515-.516 1.125 0 2.063.36.953.359 1.64.984.688.61 1.063 1.453.39.844.39 1.797h-2.046q-.016-.563-.25-1.078-.235-.516-.657-.89-.406-.391-.984-.61-.562-.235-1.219-.235-1 0-1.687.407-.688.406-1.11 1.062-.421.64-.609 1.453-.172.813-.172 1.625v.5q0 .828.172 1.641.188.812.594 1.469.422.656 1.11 1.062.687.39 1.702.39zm14.137-14.219v3.063h4.828v1.687h-4.828v6.89q0 .735.187 1.22.188.468.516.765.328.281.75.406.438.11.922.11.344 0 .719-.032.375-.046.734-.109.36-.062.672-.125.312-.062.5-.11l.312 1.532q-.265.172-.656.297-.39.125-.844.203-.453.094-.968.14-.516.047-1.016.047-.844 0-1.578-.234-.734-.25-1.281-.766-.532-.53-.844-1.343-.297-.828-.297-2v-6.89h-3.328v-1.688h3.328v-3.063h2.172zm9.605 3.063h6.485v10.812h4.14v1.875h-10.625v-1.875h4.313v-8.922h-4.313v-1.89zm4.032-3.329q0-.53.328-.89.328-.375.984-.375.64 0 .969.375.328.36.328.89 0 .532-.328.891-.328.344-.969.344-.656 0-.984-.344-.328-.36-.328-.89zm9.433 9.563q0-1.375.39-2.547.407-1.187 1.142-2.047.75-.875 1.812-1.375 1.063-.5 2.406-.5 1.344 0 2.407.5 1.078.5 1.828 1.375.75.86 1.14 2.047.407 1.172.407 2.547v.25q0 1.375-.407 2.547-.39 1.172-1.14 2.047-.75.86-1.813 1.36-1.062.483-2.406.483t-2.422-.484q-1.062-.5-1.812-1.36-.735-.874-1.141-2.046-.39-1.172-.39-2.547v-.25zm2.157.25q0 .937.218 1.797.235.844.688 1.484.453.64 1.125 1.016.687.375 1.578.375.89 0 1.562-.375.688-.375 1.125-1.016.454-.64.672-1.484.235-.86.235-1.797v-.25q0-.938-.235-1.781-.218-.844-.672-1.485-.453-.656-1.125-1.03-.671-.392-1.578-.392-.906 0-1.578.391-.656.375-1.11 1.031-.452.641-.687 1.485-.218.843-.218 1.781v.25zm14.793-6.484l.156 1.875q.687-.985 1.687-1.532 1.016-.562 2.266-.578.984 0 1.797.281.828.282 1.39.891.579.594.891 1.516.313.922.313 2.187v8.047h-2.172v-8q0-.844-.188-1.422-.187-.594-.562-.953-.36-.375-.891-.531-.531-.172-1.234-.172-1.078 0-1.907.547-.828.547-1.328 1.437v9.094h-2.156V70.492h1.938z"/><path fill="#000" d="M180.273 76.726q0-1.406.344-2.594.344-1.203 1-2.047.656-.859 1.594-1.343.937-.485 2.125-.485 1.172 0 2.047.422.89.422 1.515 1.203l.11-1.39h1.969v12.421q0 1.25-.391 2.22-.39.984-1.11 1.655-.703.688-1.687 1.032-.984.36-2.187.36-.485 0-1.125-.126-.625-.11-1.282-.36-.64-.25-1.25-.671-.61-.422-1.03-1.047l1.124-1.297q.39.484.813.813.421.343.859.53.437.204.86.282.437.094.874.094.766 0 1.39-.219.626-.219 1.063-.656.438-.422.672-1.063.235-.625.235-1.453V81.93q-.625.719-1.5 1.11-.86.374-1.985.374-1.172 0-2.11-.484-.937-.5-1.593-1.36-.64-.874-1-2.046-.344-1.188-.344-2.547v-.25zm2.172.25q0 .922.188 1.766.203.828.61 1.468.421.625 1.062 1 .64.36 1.547.36.562 0 1.015-.125.453-.14.813-.39.36-.25.64-.579.282-.344.485-.75v-5.813q-.203-.406-.485-.734-.28-.328-.656-.562-.36-.25-.812-.375-.438-.141-.97-.141-.921 0-1.577.375-.64.375-1.063 1.016-.406.64-.61 1.484-.187.828-.187 1.75v.25zm18.23 6.437q-1.327 0-2.452-.453-1.125-.468-1.922-1.28-.797-.829-1.25-1.954-.438-1.125-.438-2.438v-.5q0-1.53.485-2.734.5-1.219 1.312-2.062.828-.844 1.86-1.282 1.03-.453 2.125-.453 1.375 0 2.39.485 1.031.468 1.703 1.312.688.828 1.016 1.969.344 1.14.344 2.469v.968h-9.063q.031.86.328 1.625.313.766.828 1.344.516.563 1.235.89.734.329 1.625.329 1.156 0 2.047-.469.906-.469 1.515-1.25l1.313 1.031q-.313.485-.797.922-.469.438-1.094.781-.61.344-1.406.547-.781.203-1.703.203zm-.28-11.375q-.657 0-1.25.25-.579.235-1.047.704-.47.453-.797 1.14-.313.672-.438 1.547h6.813v-.172q-.031-.625-.235-1.25-.203-.625-.609-1.11-.39-.5-1-.796-.61-.313-1.437-.313zm14.214-4.609v3.063h4.829v1.687h-4.829v6.89q0 .735.188 1.22.187.468.516.765.328.281.75.406.437.11.921.11.344 0 .72-.032.374-.046.734-.109.359-.062.671-.125.313-.062.5-.11l.313 1.532q-.266.172-.656.297-.391.125-.844.203-.453.094-.969.14-.515.047-1.015.047-.844 0-1.579-.234-.734-.25-1.28-.766-.532-.53-.845-1.343-.296-.828-.296-2v-6.89h-3.329v-1.688h3.329v-3.063h2.171zm14.559 5.375l3.672-6.687h2.562l-4.953 8.453 5.063 8.61h-2.532l-3.765-6.829-3.781 6.828h-2.579l5.094-8.61-4.953-8.452h2.531l3.641 6.687z"/><path fill="#e67c73" d="M240.43 76.257q0-1.687.265-3.156.266-1.484.703-2.734.454-1.266 1.032-2.297.578-1.047 1.218-1.86.641-.812 1.282-1.375.64-.578 1.234-.906l.453 1.422q-.734.547-1.453 1.5-.719.953-1.297 2.312-.562 1.344-.922 3.11-.343 1.765-.343 3.953v.172q0 2.187.343 3.953.36 1.766.922 3.125.578 1.375 1.297 2.328.719.969 1.453 1.563l-.453 1.328q-.594-.328-1.25-.907-.64-.562-1.281-1.375-.64-.812-1.219-1.859-.578-1.031-1.016-2.297-.437-1.265-.703-2.734-.265-1.485-.265-3.156v-.11z"/><path fill="#000" d="M252.082 76.726q0-1.375.39-2.547.407-1.187 1.141-2.047.75-.875 1.813-1.375 1.062-.5 2.406-.5t2.406.5q1.078.5 1.828 1.375.75.86 1.141 2.047.406 1.172.406 2.547v.25q0 1.375-.406 2.547-.39 1.172-1.14 2.047-.75.86-1.813 1.36-1.063.483-2.406.483-1.344 0-2.422-.484-1.063-.5-1.813-1.36-.734-.874-1.14-2.046-.391-1.172-.391-2.547v-.25zm2.156.25q0 .937.219 1.797.234.844.688 1.484.453.64 1.125 1.016.687.375 1.578.375.89 0 1.562-.375.688-.375 1.125-1.016.453-.64.672-1.484.234-.86.234-1.797v-.25q0-.938-.234-1.781-.219-.844-.672-1.485-.453-.656-1.125-1.03-.672-.392-1.578-.392t-1.578.391q-.656.375-1.11 1.031-.453.641-.687 1.485-.219.843-.219 1.781v.25z"/><path fill="#e67c73" d="M275 76.367q0 1.671-.266 3.156-.265 1.469-.718 2.734-.438 1.266-1.016 2.297-.578 1.047-1.219 1.86-.64.812-1.297 1.374-.64.579-1.234.907l-.453-1.328q.734-.547 1.453-1.516.719-.953 1.281-2.328.578-1.375.922-3.156.36-1.782.36-3.97v-.171q0-2.188-.375-3.969-.375-1.797-.97-3.172-.577-1.375-1.296-2.328-.703-.969-1.375-1.515l.453-1.313q.594.328 1.234.906.657.563 1.297 1.375.64.813 1.219 1.86.578 1.031 1.016 2.297.453 1.25.718 2.734.266 1.469.266 3.156v.11zm30.32 11.109q-.765-.031-1.39-.266-.625-.234-1.125-.64-.485-.39-.844-.922-.344-.516-.594-1.125-.234-.61-.36-1.25-.109-.64-.109-1.25v-1.985q0-1.687-.812-2.453-.797-.765-2.453-.765v-1.703q1.656 0 2.453-.75.812-.766.812-2.47v-1.984q0-.625.094-1.265.11-.64.328-1.235.235-.609.578-1.125.344-.53.829-.921.5-.407 1.14-.641.64-.234 1.453-.266l.235 1.344q-.844.031-1.344.406-.484.375-.75.953-.25.579-.328 1.313-.063.719-.063 1.437v1.985q0 1.406-.656 2.469-.64 1.062-2 1.609 1.36.547 2 1.61.656 1.062.656 2.452v1.985q0 .719.11 1.437.125.735.406 1.313.297.578.766.953.484.375 1.203.39l-.235 1.36z"/><path fill="#4285f4" d="M88.148 113.257q.313 0 .641.031.328.016.625.063.297.031.547.094.25.047.422.125l-.297 2.125q-.625-.14-1.203-.203-.563-.079-1.188-.079-1.515 0-2.468.704-.938.687-1.391 1.921v8.141h-2.172v-12.687h2.063l.109 2.015q.766-1.031 1.844-1.64 1.093-.61 2.468-.61zm11.7 13.156q-1.328 0-2.453-.453-1.125-.468-1.922-1.28-.797-.829-1.25-1.954-.438-1.125-.438-2.438v-.5q0-1.53.485-2.734.5-1.219 1.312-2.062.828-.844 1.86-1.282 1.03-.453 2.124-.453 1.375 0 2.391.485 1.031.468 1.703 1.312.688.828 1.016 1.969.344 1.14.344 2.469v.968h-9.063q.031.86.328 1.625.313.766.828 1.344.516.563 1.235.89.734.329 1.625.329 1.156 0 2.047-.469.906-.469 1.515-1.25l1.313 1.031q-.313.485-.797.922-.469.438-1.094.781-.61.344-1.406.547-.781.203-1.703.203zm-.282-11.375q-.656 0-1.25.25-.578.235-1.046.704-.47.453-.797 1.14-.313.672-.438 1.547h6.813v-.172q-.032-.625-.235-1.25-.203-.625-.61-1.11-.39-.5-1-.796-.608-.313-1.437-.313zm14.215-4.609v3.063h4.828v1.687h-4.828v6.89q0 .735.188 1.22.187.468.515.765.329.281.75.406.438.11.922.11.344 0 .719-.032.375-.046.734-.109.36-.062.672-.125.313-.062.5-.11l.313 1.532q-.266.172-.656.297-.391.125-.844.203-.453.094-.969.14-.516.047-1.016.047-.843 0-1.578-.234-.734-.25-1.281-.766-.531-.53-.844-1.343-.297-.828-.297-2v-6.89h-3.328v-1.688h3.328v-3.063h2.172zm17.496 14q-.625.938-1.578 1.469-.953.515-2.187.515-1 0-1.813-.312-.812-.313-1.39-.969-.563-.656-.875-1.672-.313-1.015-.313-2.422v-7.546h2.172v7.562q0 1.031.156 1.719.172.672.5 1.078t.797.578q.484.156 1.094.156 1.328 0 2.14-.53.813-.548 1.22-1.47v-9.093h2.171v12.687h-1.969l-.125-1.75zm14.48-11.172q.313 0 .641.031.329.016.625.063.297.031.547.094.25.047.422.125l-.297 2.125q-.625-.14-1.203-.203-.562-.079-1.187-.079-1.516 0-2.47.704-.937.687-1.39 1.921v8.141h-2.172v-12.687h2.063l.11 2.015q.765-1.031 1.843-1.64 1.094-.61 2.469-.61zm8.044.235l.156 1.875q.688-.985 1.688-1.532 1.015-.562 2.265-.578.985 0 1.797.281.828.282 1.39.891.579.594.891 1.516.313.922.313 2.187v8.047h-2.172v-8q0-.844-.188-1.422-.187-.594-.562-.953-.36-.375-.89-.531-.532-.172-1.235-.172-1.078 0-1.906.547-.828.547-1.328 1.437v9.094h-2.157v-12.687h1.938z"/><path fill="#000" d="M180.059 119.726q0-1.375.39-2.547.406-1.187 1.14-2.047.75-.875 1.813-1.375t2.407-.5q1.343 0 2.406.5 1.078.5 1.828 1.375.75.86 1.14 2.047.407 1.172.407 2.547v.25q0 1.375-.406 2.547-.391 1.172-1.141 2.047-.75.86-1.813 1.36-1.062.483-2.406.483t-2.422-.484q-1.062-.5-1.812-1.36-.735-.874-1.14-2.046-.391-1.172-.391-2.547v-.25zm2.156.25q0 .937.219 1.797.234.844.687 1.484.453.64 1.125 1.016.688.375 1.578.375.89 0 1.563-.375.687-.375 1.125-1.016.453-.64.672-1.484.234-.86.234-1.797v-.25q0-.938-.234-1.781-.22-.844-.672-1.485-.453-.656-1.125-1.03-.672-.392-1.578-.392-.907 0-1.579.391-.656.375-1.109 1.031-.453.641-.687 1.485-.22.843-.22 1.781v.25z"/><path fill="#e67c73" d="M198.836 124.773q0-.36.11-.656.109-.313.312-.532.219-.234.531-.359.328-.125.75-.125t.734.125q.329.125.547.36.22.218.328.53.11.297.11.657 0 .344-.11.64-.109.297-.328.516-.218.219-.547.344-.312.125-.734.125t-.75-.125q-.312-.125-.531-.344-.203-.219-.313-.516-.11-.296-.11-.64z"/><path fill="#000" d="M214.707 118.195l3.39-4.703h2.532l-4.719 6.28 4.86 6.407h-2.516l-3.5-4.828-3.5 4.828h-2.531l4.843-6.406-4.718-6.281h2.5l3.359 4.703z"/><path fill="#e67c73" d="M227.64 114.773q0-.36.11-.656.11-.313.312-.532.22-.234.532-.359.328-.125.75-.125t.734.125q.328.125.547.36.219.218.328.53.11.297.11.657 0 .344-.11.64-.11.297-.328.516-.219.219-.547.344-.312.125-.734.125t-.75-.125q-.313-.125-.532-.344-.203-.219-.312-.516-.11-.296-.11-.64zm3.72 10.906q0 .547-.141 1.14-.125.61-.39 1.204-.267.594-.642 1.125-.375.547-.859.969l-1.344-.735q.563-.828.797-1.75.235-.922.235-1.922v-2.093h2.343v2.062zM52.781 172.117q.719-.016 1.203-.391.485-.375.766-.953t.406-1.313q.125-.718.125-1.437v-1.985q0-1.39.64-2.453.657-1.062 2.017-1.609-1.36-.547-2.016-1.61-.64-1.062-.64-2.468v-1.985q0-.718-.079-1.437-.078-.734-.328-1.313-.25-.578-.75-.953-.484-.375-1.328-.406l.234-1.344q.813.032 1.453.266.641.234 1.125.64.5.391.844.922.344.516.563 1.125.218.594.328 1.235.11.64.11 1.265v1.985q0 1.703.796 2.469.813.75 2.453.75v1.703q-1.64 0-2.453.765-.797.766-.797 2.453v1.985q0 .937-.266 1.89-.25.954-.796 1.735-.547.797-1.375 1.297-.828.5-1.985.531l-.25-1.36z"/><path d="M395.462 270.043h68.913v40.284h-68.913z"/><path fill="#666" d="M416.393 285.02h3.516v11.813q0 1.625-.719 2.875t-2.031 1.938q-1.313.672-2.969.672-2.703 0-4.219-1.375-1.515-1.375-1.515-3.907h3.547q0 1.266.515 1.86.532.594 1.672.594 1 0 1.594-.688.61-.687.61-1.969v-11.812zm15.375 12.579q0-.984-.703-1.516-.703-.547-2.531-1.125-1.828-.593-2.89-1.172-2.907-1.578-2.907-4.234 0-1.375.766-2.453.78-1.094 2.234-1.703 1.469-.61 3.281-.61 1.828 0 3.25.672 1.438.657 2.235 1.86.797 1.203.797 2.734h-3.516q0-1.172-.75-1.812-.734-.657-2.063-.657-1.296 0-2.015.547-.703.547-.703 1.438 0 .828.828 1.39.844.563 2.469 1.063 3 .89 4.375 2.234 1.375 1.328 1.375 3.328 0 2.219-1.688 3.485-1.672 1.25-4.5 1.25-1.969 0-3.594-.72-1.61-.718-2.468-1.968-.844-1.265-.844-2.922h3.531q0 2.828 3.375 2.828 1.25 0 1.953-.5.703-.515.703-1.437zm19.301-1.203q-.203 2.75-2.047 4.344-1.828 1.578-4.828 1.578-3.281 0-5.156-2.203-1.875-2.22-1.875-6.079v-1.03q0-2.47.86-4.345.874-1.875 2.484-2.875 1.609-1 3.734-1 2.953 0 4.75 1.579 1.812 1.578 2.094 4.437h-3.516q-.125-1.64-.922-2.39-.781-.75-2.406-.75-1.75 0-2.625 1.265-.875 1.266-.89 3.906v1.297q0 2.766.827 4.047.844 1.266 2.641 1.266 1.64 0 2.438-.735.796-.75.921-2.312h3.516z"/><path d="M346.565 266.707h58.992v58.992h-58.992z"/><path d="M191.213 168.745v164.63h276.346"/><path stroke="#666" stroke-width="8" stroke-linejoin="round" stroke-linecap="butt" d="M191.213 168.745v164.63h228.346"/><path fill="#666" stroke="#666" stroke-width="8" stroke-linecap="butt" d="M419.56 346.59l36.304-13.215-36.305-13.214z" fill-rule="evenodd"/></g></svg>