<svg viewBox="0 0 960 540" fill="none" stroke-linecap="square" stroke-miterlimit="10" xmlns="http://www.w3.org/2000/svg"><clipPath id="a"><path d="M0 0h960v540H0V0z"/></clipPath><g clip-path="url(#a)"><path fill="#fff" d="M0 0h960v540H0z" fill-rule="evenodd"/><path fill="#666" d="M25.705 517.365v-1.93h6.463c.066.34.104.746.104 1.184 0 1.447-.397 3.24-1.672 4.515-1.24 1.293-2.827 1.982-4.929 1.982-3.895 0-7.17-3.17-7.17-7.066 0-3.895 3.275-7.066 7.17-7.066 2.154 0 3.689.844 4.843 1.947l-1.361 1.362c-.827-.776-1.948-1.379-3.481-1.379-2.844 0-5.068 2.292-5.068 5.136 0 2.844 2.224 5.136 5.068 5.136 1.844 0 2.895-.741 3.567-1.413.548-.547.908-1.333 1.048-2.407h-4.582zm16.483 1.213c0 2.62-2.05 4.55-4.567 4.55-2.517 0-4.567-1.93-4.567-4.55 0-2.637 2.05-4.55 4.567-4.55 2.516 0 4.567 1.913 4.567 4.55zm-1.999 0c0-1.637-1.189-2.758-2.568-2.758-1.378 0-2.568 1.12-2.568 2.758 0 1.62 1.189 2.758 2.568 2.758s2.568-1.138 2.568-2.758zm11.963 0c0 2.62-2.05 4.55-4.567 4.55-2.517 0-4.568-1.93-4.568-4.55 0-2.637 2.051-4.55 4.568-4.55 2.516 0 4.567 1.913 4.567 4.55zm-2 0c0-1.637-1.188-2.758-2.567-2.758-1.379 0-2.568 1.12-2.568 2.758 0 1.62 1.189 2.758 2.568 2.758 1.378 0 2.568-1.138 2.568-2.758zm11.55-4.274v8.17c0 3.36-1.982 4.739-4.326 4.739-2.206 0-3.533-1.483-4.033-2.69l1.74-.723c.311.741 1.069 1.62 2.293 1.62 1.5 0 2.43-.93 2.43-2.67v-.656h-.068c-.449.552-1.31 1.034-2.396 1.034-2.275 0-4.36-1.982-4.36-4.533 0-2.568 2.085-4.567 4.36-4.567 1.086 0 1.947.483 2.396 1.018h.068v-.742h1.896zm-1.758 4.291c0-1.602-1.068-2.775-2.43-2.775-1.379 0-2.533 1.173-2.533 2.775 0 1.586 1.154 2.741 2.533 2.741 1.361 0 2.43-1.155 2.43-2.74zm5.144-9.073v13.33H63.09v-13.33h2zm7.722 10.555l1.55 1.034c-.5.742-1.706 2.017-3.791 2.017-2.586 0-4.516-2-4.516-4.55 0-2.707 1.948-4.551 4.292-4.551 2.361 0 3.516 1.879 3.895 2.896l.207.517-6.084 2.516c.465.914 1.19 1.379 2.206 1.379s1.723-.499 2.24-1.258zm-4.775-1.637l4.067-1.69c-.224-.568-.896-.965-1.689-.965-1.017.001-2.43.897-2.378 2.655z" fill-rule="evenodd"/><path fill="#fff" d="M2.37 495.703h96v44.284h-96z" fill-rule="evenodd"/><path fill="#fbbc05" fill-opacity=".377" d="M336.856 239.25c0-25.826 20.936-46.762 46.762-46.762h375.357a46.762 46.762 0 0 1 46.763 46.762v187.043c0 25.826-20.937 46.762-46.763 46.762H383.618c-25.826 0-46.762-20.936-46.762-46.762z" fill-rule="evenodd"/><path fill="#ea4335" d="M594.698 390.344h149.256v57.126c-74.628 0-74.628 21.766-149.256 9.4z" fill-rule="evenodd"/><path stroke="#85200c" stroke-linejoin="round" stroke-linecap="butt" d="M594.698 390.344h149.256v57.126c-74.628 0-74.628 21.766-149.256 9.4z"/><path fill="#f3f3f3" d="M629.816 415.124q-1.485 0-2.64-.656-1.157-.672-1.798-1.813-.64-1.156-.64-2.578t.64-2.578q.64-1.156 1.797-1.813 1.156-.672 2.64-.672 1.454 0 2.61.672 1.156.657 1.797 1.813.64 1.156.64 2.578t-.64 2.578q-.64 1.14-1.797 1.813-1.156.656-2.61.656zm0-2.25q.703 0 1.297-.328.609-.344.953-.985.36-.64.36-1.484t-.36-1.469q-.344-.64-.953-.969-.594-.343-1.297-.343-.719 0-1.313.343-.593.329-.968.97-.36.624-.36 1.468 0 .828.36 1.484.375.64.968.985.594.328 1.313.328zm6.848-7.563h2.297v1.157h.14q.392-.61 1.142-1.032.75-.422 1.718-.422 1.282 0 2.328.641 1.063.64 1.657 1.797.593 1.156.593 2.625t-.593 2.625q-.594 1.14-1.657 1.781-1.046.64-2.328.64-.968 0-1.734-.405-.75-.407-1.125-1.032h-.14l.14 1.344v3.828h-2.438v-13.547zm4.86 7.563q.687 0 1.281-.36.61-.359.953-.984.36-.64.36-1.453 0-.828-.36-1.453-.344-.64-.953-.985-.594-.343-1.281-.343-.672 0-1.266.343-.594.344-.953.985-.344.625-.344 1.453 0 .812.344 1.453.36.625.953.984.594.36 1.266.36zm11.041 2.11q-.703 0-1.297-.22-.594-.218-.969-.593-.875-.844-.875-2.39v-4.376h-1.671v-2.094h1.671v-2.687h2.438v2.687h2.328v2.094h-2.328v3.938q0 .718.312 1.046.266.297.907.297.343 0 .578-.093.234-.094.61-.329v2.391q-.798.328-1.704.328zm5.048-10.72q-.656 0-1.125-.468-.468-.47-.468-1.11 0-.656.468-1.11.47-.468 1.125-.468.657 0 1.11.469.453.453.453 1.11 0 .64-.453 1.109-.453.468-1.11.468zm-1.234 1.047h2.437v9.516h-2.437v-9.516zm4.993 0h2.297v1.188h.156q.437-.688 1.187-1.078.766-.407 1.704-.407 1 0 1.75.485.75.469 1.062 1.187.469-.734 1.281-1.203.813-.469 1.907-.469 1.625 0 2.468 1 .86 1 .86 2.688v6.125h-2.422v-5.672q0-.89-.422-1.375-.422-.484-1.172-.484-.953 0-1.531.75-.563.75-.563 1.984v4.797h-2.437v-5.672q0-.89-.438-1.375-.437-.484-1.234-.484-.906 0-1.453.75t-.547 1.984v4.797h-2.453v-9.516zm18.386-1.047q-.656 0-1.125-.468-.468-.47-.468-1.11 0-.656.468-1.11.47-.468 1.125-.468.657 0 1.11.469.453.453.453 1.11 0 .64-.453 1.109-.453.468-1.11.468zm-1.234 1.047h2.437v9.516h-2.437v-9.516zm4.508 7.516l4.97-5.438h-4.813v-2.078H691v2l-4.953 5.438h5.11v2.078h-8.126v-2zm14.487 2.297q-1.422 0-2.563-.64-1.14-.657-1.78-1.798-.642-1.156-.642-2.593 0-1.36.625-2.532.641-1.172 1.75-1.86 1.125-.687 2.516-.687 1.469 0 2.531.641 1.063.625 1.61 1.734.562 1.094.562 2.438 0 .422-.062.828h-7.14q.187 1.125.905 1.719.72.594 1.72.594.843 0 1.452-.36.61-.375.953-.984l1.985.969q-1.453 2.53-4.422 2.53zm2.25-6.203q-.031-.453-.328-.89-.282-.438-.797-.72-.516-.297-1.203-.297-.875 0-1.5.516-.625.5-.907 1.39h4.735zm8.326 6.203q-1.281 0-2.344-.64-1.047-.641-1.656-1.782-.61-1.156-.61-2.625t.61-2.625q.61-1.156 1.656-1.797 1.063-.64 2.344-.64.969 0 1.719.421.75.422 1.14 1.032h.141l-.14-1.344v-3.656h2.421v13.359h-2.28v-1.14h-.142q-.375.624-1.14 1.03-.75.407-1.719.407zm.406-2.25q.688 0 1.282-.36.609-.359.953-.984.36-.64.36-1.453 0-.828-.36-1.453-.344-.64-.953-.985-.594-.343-1.282-.343-.672 0-1.265.343-.594.344-.953.985-.36.625-.36 1.453 0 .812.36 1.453.359.625.953.984.593.36 1.265.36zm6.085 1.953zm-62.032 22.297q-1.437 0-2.578-.64-1.14-.641-1.781-1.798-.64-1.156-.64-2.61 0-1.468.64-2.608.64-1.141 1.781-1.797 1.14-.657 2.578-.657 1.578 0 2.719.688 1.14.672 1.64 1.922l-2.234.937q-.593-1.265-2.125-1.265-1.125 0-1.843.765-.72.766-.72 2.016 0 1.266.72 2.031.718.766 1.843.766 1.547 0 2.235-1.344l2.218.969q-.609 1.25-1.75 1.937-1.14.688-2.703.688zm10.768 0q-1.484 0-2.64-.656-1.156-.672-1.797-1.813-.64-1.156-.64-2.578t.64-2.578q.64-1.156 1.797-1.813 1.156-.672 2.64-.672 1.454 0 2.61.672 1.156.657 1.797 1.813.64 1.156.64 2.578t-.64 2.578q-.64 1.14-1.797 1.813-1.156.656-2.61.656zm0-2.25q.704 0 1.297-.328.61-.344.953-.985.36-.64.36-1.484t-.36-1.469q-.343-.64-.953-.969-.593-.343-1.297-.343-.718 0-1.312.343-.594.329-.969.97-.36.624-.36 1.468 0 .828.36 1.484.375.64.969.985.594.328 1.312.328zm11.005 2.25q-1.281 0-2.343-.64-1.047-.641-1.657-1.782-.61-1.156-.61-2.625t.61-2.625q.61-1.156 1.657-1.797 1.062-.64 2.343-.64.969 0 1.719.421.75.422 1.14 1.032h.141l-.14-1.344v-3.656h2.422v13.359h-2.282v-1.14h-.14q-.375.624-1.141 1.03-.75.407-1.719.407zm.407-2.25q.687 0 1.28-.36.61-.359.954-.984.36-.64.36-1.453 0-.828-.36-1.453-.344-.64-.953-.985-.594-.343-1.281-.343-.672 0-1.266.343-.594.344-.953.985-.36.625-.36 1.453 0 .812.36 1.453.36.625.953.984.594.36 1.266.36zm11.74 2.25q-1.422 0-2.562-.64-1.14-.657-1.781-1.798-.641-1.156-.641-2.593 0-1.36.625-2.532.64-1.172 1.75-1.86 1.125-.687 2.516-.687 1.468 0 2.53.641 1.063.625 1.61 1.734.563 1.094.563 2.438 0 .422-.063.828h-7.14q.187 1.125.906 1.719.719.594 1.719.594.843 0 1.453-.36.61-.375.953-.984l1.984.969q-1.453 2.53-4.422 2.53zm2.25-6.203q-.03-.453-.328-.89-.281-.438-.797-.72-.515-.297-1.203-.297-.875 0-1.5.516-.625.5-.906 1.39h4.734z"/><path fill="#ea4335" d="M403.864 406.969a9.496 9.496 0 0 1 9.496-9.497h115.559a9.496 9.496 0 0 1 9.496 9.497v37.984a9.496 9.496 0 0 1-9.496 9.496h-115.56a9.496 9.496 0 0 1-9.495-9.496z" fill-rule="evenodd"/><path stroke="#5b0f00" stroke-linejoin="round" stroke-linecap="butt" d="M403.864 406.969a9.496 9.496 0 0 1 9.496-9.497h115.559a9.496 9.496 0 0 1 9.496 9.497v37.984a9.496 9.496 0 0 1-9.496 9.496h-115.56a9.496 9.496 0 0 1-9.495-9.496z"/><path fill="#f3f3f3" d="M429.008 422.178q-1.485 0-2.64-.657-1.157-.672-1.798-1.812-.64-1.156-.64-2.578t.64-2.578q.641-1.157 1.797-1.813 1.156-.672 2.64-.672 1.454 0 2.61.672 1.156.656 1.797 1.813.64 1.156.64 2.578t-.64 2.578q-.64 1.14-1.797 1.812-1.156.656-2.61.656zm0-2.25q.703 0 1.297-.329.61-.343.953-.984.36-.64.36-1.484t-.36-1.47q-.344-.64-.953-.968-.594-.344-1.297-.344-.719 0-1.313.344-.593.328-.968.969-.36.625-.36 1.469 0 .828.36 1.484.375.64.968.984.594.329 1.313.329zm6.848-7.563h2.297v1.156h.14q.392-.61 1.142-1.031.75-.422 1.718-.422 1.282 0 2.328.64 1.063.641 1.657 1.798.593 1.156.593 2.625 0 1.468-.593 2.625-.594 1.14-1.657 1.78-1.046.642-2.328.642-.968 0-1.734-.407-.75-.406-1.125-1.031h-.14l.14 1.344v3.828h-2.438v-13.547zm4.86 7.563q.687 0 1.281-.36.61-.36.953-.984.36-.64.36-1.453 0-.828-.36-1.453-.344-.641-.953-.985-.594-.344-1.281-.344-.672 0-1.266.344t-.953.985q-.344.625-.344 1.453 0 .812.344 1.453.36.625.953.984.594.36 1.266.36zm11.041 2.109q-.703 0-1.297-.219t-.969-.594q-.875-.843-.875-2.39v-4.375h-1.671v-2.094h1.671v-2.688h2.438v2.688h2.328v2.094h-2.328v3.937q0 .719.312 1.047.266.297.907.297.343 0 .578-.094.234-.094.61-.328v2.39q-.798.329-1.704.329zm5.048-10.719q-.656 0-1.125-.469-.468-.468-.468-1.109 0-.656.468-1.11.47-.468 1.125-.468.657 0 1.11.469.453.453.453 1.109 0 .64-.453 1.11-.453.468-1.11.468zm-1.234 1.047h2.437v9.516h-2.437v-9.516zm4.993 0h2.297v1.188h.156q.437-.688 1.187-1.079.766-.406 1.704-.406 1 0 1.75.485.75.468 1.062 1.187.469-.734 1.281-1.203.813-.469 1.907-.469 1.625 0 2.468 1 .86 1 .86 2.688v6.125h-2.422v-5.672q0-.89-.422-1.375t-1.172-.485q-.953 0-1.531.75-.563.75-.563 1.985v4.797h-2.437v-5.672q0-.89-.438-1.375-.437-.485-1.234-.485-.906 0-1.453.75t-.547 1.985v4.797h-2.453v-9.516zm18.386-1.047q-.656 0-1.125-.469-.468-.468-.468-1.109 0-.656.468-1.11.47-.468 1.125-.468.657 0 1.11.469.453.453.453 1.109 0 .64-.453 1.11-.453.468-1.11.468zm-1.234 1.047h2.437v9.516h-2.437v-9.516zm4.508 7.516l4.97-5.438h-4.813v-2.078h7.812v2l-4.953 5.438h5.11v2.078h-8.126v-2zm11.409-8.563q-.656 0-1.125-.469-.469-.468-.469-1.109 0-.656.469-1.11.469-.468 1.125-.468t1.11.469q.452.453.452 1.109 0 .64-.453 1.11-.453.468-1.11.468zm-1.235 1.047h2.438v9.516h-2.438v-9.516zm4.993 0h2.297v1.188h.156q.422-.688 1.204-1.079.796-.406 1.703-.406 1.718 0 2.609 1.047.906 1.047.906 2.86v5.906h-2.453v-5.61q0-.922-.469-1.422-.468-.5-1.296-.5-1 0-1.61.766-.594.766-.594 1.922v4.844h-2.453v-9.516zm15.566 13.844q-1.813 0-3.016-.813-1.187-.812-1.593-1.953l2.296-.922q.297.703.907 1.11.625.422 1.406.422 1.156 0 1.828-.72.688-.702.688-2.015v-.75h-.141q-.453.64-1.188.985-.718.328-1.656.328-1.172 0-2.187-.61-1.016-.61-1.64-1.719-.61-1.109-.61-2.578 0-1.468.61-2.578.624-1.11 1.64-1.719 1.015-.609 2.187-.609.938 0 1.656.344.735.328 1.188.969h.14v-1.016h2.36v8.86q0 1.53-.61 2.64-.593 1.125-1.703 1.734-1.093.61-2.562.61zm.031-6.547q1.031 0 1.75-.719.735-.719.735-1.969 0-1.28-.72-1.984-.718-.703-1.765-.703-1.031 0-1.765.719-.735.703-.735 1.968 0 1.266.735 1.985.734.703 1.765.703zm6.032 2.219zm-82.096 22.297q-1.438 0-2.578-.641-1.14-.64-1.781-1.797-.641-1.156-.641-2.61 0-1.468.64-2.609.641-1.14 1.782-1.797 1.14-.656 2.578-.656 1.578 0 2.719.688 1.14.672 1.64 1.922l-2.234.937q-.594-1.266-2.125-1.266-1.125 0-1.844.766-.719.766-.719 2.016 0 1.265.72 2.03.718.767 1.843.767 1.547 0 2.234-1.344l2.219.969q-.61 1.25-1.75 1.937-1.14.688-2.703.688zm10.768 0q-1.484 0-2.64-.657-1.157-.672-1.797-1.812-.641-1.156-.641-2.578t.64-2.578q.641-1.157 1.797-1.813 1.157-.672 2.641-.672 1.453 0 2.61.672 1.156.656 1.796 1.813.641 1.156.641 2.578t-.64 2.578q-.641 1.14-1.798 1.812-1.156.656-2.609.656zm0-2.25q.703 0 1.297-.329.61-.343.953-.984.36-.64.36-1.484t-.36-1.47q-.344-.64-.953-.968-.594-.344-1.297-.344-.719 0-1.312.344-.594.328-.97.969-.359.625-.359 1.469 0 .828.36 1.484.375.64.969.984.593.329 1.312.329zm6.911-7.563h2.297v1.188h.156q.438-.688 1.188-1.079.765-.406 1.703-.406 1 0 1.75.485.75.468 1.062 1.187.47-.734 1.282-1.203.812-.469 1.906-.469 1.625 0 2.469 1 .86 1 .86 2.688v6.125h-2.423v-5.672q0-.89-.422-1.375t-1.172-.485q-.953 0-1.53.75-.563.75-.563 1.985v4.797h-2.438v-5.672q0-.89-.437-1.375-.438-.485-1.235-.485-.906 0-1.453.75t-.547 1.985v4.797h-2.453v-9.516zm16.934 0h2.296v1.156h.141q.39-.61 1.14-1.031.75-.422 1.72-.422 1.28 0 2.328.64 1.062.641 1.656 1.798.594 1.156.594 2.625 0 1.468-.594 2.625-.594 1.14-1.656 1.78-1.047.642-2.329.642-.968 0-1.734-.407-.75-.406-1.125-1.031h-.14l.14 1.344v3.828h-2.437v-13.547zm4.859 7.563q.687 0 1.281-.36.61-.36.953-.984.36-.64.36-1.453 0-.828-.36-1.453-.343-.641-.953-.985-.594-.344-1.281-.344-.672 0-1.266.344-.593.344-.953.985-.344.625-.344 1.453 0 .812.344 1.453.36.625.953.984.594.36 1.266.36zm8.291-8.61q-.656 0-1.125-.469-.469-.468-.469-1.109 0-.656.47-1.11.468-.468 1.124-.468.656 0 1.11.469.453.453.453 1.109 0 .64-.454 1.11-.453.468-1.109.468zm-1.234 1.047h2.437v9.516h-2.437v-9.516zm4.993-3.844h2.453v13.36h-2.453v-13.36zm9.319 13.656q-1.422 0-2.563-.64-1.14-.656-1.78-1.797-.641-1.156-.641-2.594 0-1.36.625-2.531.64-1.172 1.75-1.86 1.125-.687 2.515-.687 1.469 0 2.531.64 1.063.626 1.61 1.735.562 1.094.562 2.438 0 .422-.062.828h-7.14q.187 1.125.905 1.719.72.593 1.72.593.843 0 1.452-.36.61-.374.953-.983l1.985.968q-1.453 2.531-4.422 2.531zm2.25-6.203q-.031-.453-.328-.89-.281-.438-.797-.719-.516-.297-1.203-.297-.875 0-1.5.516-.625.5-.906 1.39h4.734zm4.232-3.609h2.297v1.266h.157q.359-.672 1.093-1.11.75-.437 1.641-.437.656 0 1.203.203v2.453q-.5-.188-.86-.266-.343-.093-.734-.093-1.078 0-1.718.78-.625.782-.625 1.985v4.735h-2.454v-9.516z"/><path fill="#0b5394" d="M226.672 58.102a8.304 8.304 0 0 1 8.304-8.304h102.415a8.304 8.304 0 0 1 8.305 8.304V91.32a8.304 8.304 0 0 1-8.305 8.305H234.976a8.304 8.304 0 0 1-8.304-8.305z" fill-rule="evenodd"/><path stroke="#073763" stroke-linejoin="round" stroke-linecap="butt" d="M226.672 58.102a8.304 8.304 0 0 1 8.304-8.304h102.415a8.304 8.304 0 0 1 8.305 8.304V91.32a8.304 8.304 0 0 1-8.305 8.305H234.976a8.304 8.304 0 0 1-8.304-8.305z"/><path fill="#f3f3f3" d="M258.074 72.116h2.297v1.156h.14q.392-.61 1.142-1.031.75-.422 1.718-.422 1.282 0 2.328.64 1.063.64 1.657 1.797.593 1.156.593 2.625t-.593 2.625q-.594 1.14-1.657 1.781-1.046.641-2.328.641-.968 0-1.734-.406-.75-.406-1.125-1.031h-.14l.14 1.343v3.828h-2.438V72.116zm4.86 7.562q.687 0 1.281-.36.61-.359.953-.984.36-.64.36-1.453 0-.828-.36-1.453-.344-.64-.953-.984-.594-.344-1.281-.344-.672 0-1.266.344-.594.343-.953.984-.344.625-.344 1.453 0 .813.344 1.453.36.625.953.985.594.36 1.266.36zm9.822 2.25q-1.515 0-2.484-.875-.969-.89-.969-2.328 0-.953.5-1.672.5-.734 1.375-1.125.89-.39 1.953-.39 1.469 0 2.516.421v-.406q0-.781-.594-1.266-.578-.484-1.578-.484-.672 0-1.297.313-.625.296-1.031.796l-1.563-1.234q.688-.89 1.735-1.375 1.047-.484 2.265-.484 2.188 0 3.328 1.015 1.141 1 1.141 2.938v5.86h-2.406v-.97h-.156q-.422.563-1.125.922-.704.344-1.61.344zm.578-1.906q1.063 0 1.688-.672.625-.688.625-1.594-.953-.453-2-.453-1.906 0-1.906 1.422 0 .578.406.937.422.36 1.187.36zm6.967-7.906h2.296v1.265h.157q.359-.672 1.093-1.11.75-.437 1.641-.437.656 0 1.203.203v2.454q-.5-.188-.86-.266-.343-.094-.734-.094-1.078 0-1.718.781-.625.782-.625 1.985v4.734H280.3v-9.515zm11.59 9.812q-1.734 0-2.812-.703-1.062-.719-1.5-1.844l2.188-.953q.297.672.843 1.016.547.343 1.282.343.672 0 1.11-.218.452-.22.452-.703 0-.47-.406-.688-.406-.234-1.234-.422l-1.11-.25q-1.156-.281-1.922-1.015-.765-.735-.765-1.844 0-.813.484-1.469.5-.656 1.344-1 .86-.36 1.875-.36 2.953 0 3.937 2.063l-2.078.922q-.562-1-1.797-1-.64 0-1.015.234-.36.22-.36.579 0 .671 1.266 1.015l1.39.328q1.422.36 2.141 1.094.719.719.719 1.781 0 .907-.531 1.61-.532.703-1.453 1.093-.922.391-2.047.391zm10.266 0q-1.422 0-2.563-.64-1.14-.657-1.78-1.797-.641-1.157-.641-2.594 0-1.36.625-2.531.64-1.172 1.75-1.86 1.125-.687 2.515-.687 1.469 0 2.531.64 1.063.625 1.61 1.735.562 1.093.562 2.437 0 .422-.062.828h-7.14q.187 1.125.905 1.72.72.593 1.72.593.843 0 1.452-.36.61-.375.953-.984l1.985.969q-1.453 2.531-4.422 2.531zm2.25-6.203q-.031-.453-.328-.89-.281-.438-.797-.72-.516-.296-1.203-.296-.875 0-1.5.515-.625.5-.906 1.39h4.734zm4.232-3.61h2.297v1.266h.156q.36-.672 1.094-1.11.75-.437 1.64-.437.657 0 1.204.203v2.454q-.5-.188-.86-.266-.343-.094-.734-.094-1.078 0-1.719.781-.625.782-.625 1.985v4.734h-2.453v-9.515z"/><path fill="#3d85c6" d="M389.176 39.094H538.43v57.127c-74.627 0-74.627 21.766-149.255 9.399z" fill-rule="evenodd"/><path stroke="#0b5394" stroke-linejoin="round" stroke-linecap="butt" d="M389.176 39.094H538.43v57.127c-74.627 0-74.627 21.766-149.255 9.399z"/><path fill="#f3f3f3" d="M429.394 50.218h2.89l5.016 13.36h-2.781l-1.11-3.188h-5.125l-1.11 3.188h-2.78l5-13.36zm3.187 7.86l-1.172-3.36-.484-1.61h-.156l-.485 1.61-1.187 3.36h3.484zm11.501 5.796q-.984 0-1.734-.406t-1.125-1.031h-.156v1.14h-2.297V50.219h2.453v3.656l-.156 1.344h.156q.39-.61 1.125-1.031.75-.422 1.734-.422 1.281 0 2.328.64 1.063.641 1.657 1.798.593 1.156.593 2.625 0 1.468-.593 2.625-.594 1.14-1.657 1.78-1.047.641-2.328.641zm-.437-2.25q.687 0 1.281-.359.61-.36.953-.984.36-.64.36-1.453 0-.829-.36-1.454-.344-.64-.953-.984-.594-.344-1.281-.344-.672 0-1.266.344t-.953.984q-.36.625-.36 1.454 0 .812.36 1.453.36.625.953.984.594.36 1.266.36zm10.522 2.25q-1.735 0-2.813-.703-1.062-.718-1.5-1.843l2.188-.954q.297.672.844 1.016.546.344 1.28.344.673 0 1.11-.219.453-.219.453-.703 0-.469-.406-.688-.406-.234-1.234-.421l-1.11-.25q-1.156-.282-1.922-1.016-.765-.734-.765-1.844 0-.812.484-1.469.5-.656 1.344-1 .86-.359 1.875-.359 2.953 0 3.937 2.063l-2.078.921q-.562-1-1.797-1-.64 0-1.015.235-.36.219-.36.578 0 .672 1.266 1.016l1.39.328q1.423.36 2.141 1.093.72.72.72 1.782 0 .906-.532 1.61-.531.702-1.453 1.093-.922.39-2.047.39zm9.937-.14q-.703 0-1.297-.219t-.969-.594q-.875-.843-.875-2.39v-4.375h-1.672v-2.094h1.672v-2.688h2.438v2.688h2.328v2.094H463.4v3.937q0 .719.312 1.047.266.297.906.297.344 0 .579-.094.234-.094.609-.328v2.39q-.797.329-1.703.329zm3.658-9.672h2.296v1.266h.157q.359-.672 1.093-1.11.75-.437 1.641-.437.656 0 1.203.203v2.453q-.5-.188-.86-.266-.343-.093-.734-.093-1.078 0-1.718.78-.625.782-.625 1.985v4.735h-2.453v-9.516zm10.888 9.812q-1.516 0-2.485-.875-.968-.89-.968-2.328 0-.953.5-1.672.5-.734 1.375-1.125.89-.39 1.953-.39 1.468 0 2.515.422v-.407q0-.78-.593-1.265-.579-.485-1.579-.485-.671 0-1.296.313-.625.297-1.032.797l-1.562-1.235q.687-.89 1.734-1.375 1.047-.484 2.266-.484 2.187 0 3.328 1.016 1.14 1 1.14 2.937v5.86h-2.406v-.97h-.156q-.422.563-1.125.923-.703.343-1.61.343zm.578-1.906q1.062 0 1.687-.672.625-.687.625-1.593-.953-.454-2-.454-1.906 0-1.906 1.422 0 .578.406.938.422.36 1.188.36zm11.45 1.906q-1.437 0-2.578-.64-1.14-.64-1.781-1.797-.64-1.156-.64-2.61 0-1.468.64-2.609.64-1.14 1.781-1.797 1.14-.656 2.578-.656 1.578 0 2.719.688 1.14.671 1.64 1.921l-2.234.938q-.593-1.266-2.125-1.266-1.125 0-1.843.766-.72.766-.72 2.016 0 1.265.72 2.03.718.766 1.843.766 1.547 0 2.235-1.343l2.218.968q-.609 1.25-1.75 1.938-1.14.687-2.703.687zm10.347-.14q-.704 0-1.297-.219-.594-.219-.97-.594-.874-.843-.874-2.39v-4.375h-1.672v-2.094h1.672v-2.688h2.437v2.688h2.329v2.094h-2.329v3.937q0 .719.313 1.047.266.297.906.297.344 0 .578-.094.235-.094.61-.328v2.39q-.797.329-1.703.329zm2.47-.156zm-87.337 22.296q-1.75 0-3.093-.984-1.344-.984-1.89-2.797l2.374-.937q.281 1.062.953 1.703.672.625 1.672.625.844 0 1.438-.406.593-.422.593-1.172t-.578-1.219q-.562-.484-2.015-1.016l-.813-.312q-1.297-.438-2.219-1.36-.906-.921-.906-2.328 0-1.047.547-1.906.547-.86 1.531-1.344.985-.5 2.235-.5 1.812 0 2.859.86 1.047.843 1.437 1.968l-2.218.938q-.219-.61-.735-1.031-.5-.422-1.312-.422-.813 0-1.344.39-.531.375-.531.985t.5 1.031q.5.406 1.656.797l.844.281q1.734.61 2.656 1.594.922.969.922 2.547 0 1.312-.672 2.219-.672.906-1.734 1.359-1.047.437-2.157.437zm9.583-.75l-4-9.062h2.765l2.47 5.922h.155l2.36-5.922h2.734l-5.89 13.547h-2.626l2.032-4.485zm7.814-9.062h2.297v1.187h.156q.422-.687 1.204-1.078.796-.406 1.703-.406 1.718 0 2.609 1.047.906 1.047.906 2.86v5.906h-2.453v-5.61q0-.922-.469-1.422-.468-.5-1.296-.5-1 0-1.61.766-.594.766-.594 1.922v4.844h-2.453v-9.516zm15.316 9.672q-.703 0-1.297-.219t-.969-.594q-.875-.843-.875-2.39v-4.375h-1.671v-2.094h1.671v-2.688h2.438v2.688h2.328v2.094h-2.328v3.937q0 .719.312 1.047.266.297.907.297.343 0 .578-.094.234-.094.61-.328v2.39q-.798.329-1.704.329zm6.58.14q-1.516 0-2.485-.875-.969-.89-.969-2.328 0-.953.5-1.672.5-.734 1.375-1.125.891-.39 1.954-.39 1.468 0 2.515.422v-.407q0-.78-.594-1.265-.578-.485-1.578-.485-.672 0-1.297.313-.625.297-1.03.797l-1.563-1.235q.687-.89 1.734-1.375 1.047-.484 2.266-.484 2.187 0 3.328 1.016 1.14 1 1.14 2.937v5.86h-2.406v-.97h-.156q-.422.563-1.125.923-.703.343-1.61.343zm.578-1.906q1.062 0 1.687-.672.625-.687.625-1.593-.953-.454-2-.454-1.906 0-1.906 1.422 0 .578.406.938.422.36 1.188.36zm9.325-3.219l-3.281-4.687h2.89l1.813 2.719h.11l1.687-2.719h2.984l-3.328 4.687 3.328 4.829h-2.89l-1.828-2.782h-.11l-1.781 2.782h-2.89l3.296-4.829zm6.453 4.829zm8.6-10.97h-3.734v-2.39h9.984v2.39h-3.734v10.97h-2.516v-10.97zm7.923 1.454h2.297v1.266h.156q.36-.672 1.094-1.11.75-.437 1.64-.437.657 0 1.204.203v2.453q-.5-.188-.86-.266-.343-.093-.734-.093-1.078 0-1.719.78-.625.782-.625 1.985v4.735h-2.453v-9.516zm12.435 9.812q-1.422 0-2.562-.64-1.141-.656-1.782-1.797-.64-1.156-.64-2.594 0-1.36.625-2.531.64-1.172 1.75-1.86 1.125-.687 2.515-.687 1.469 0 2.532.64 1.062.626 1.609 1.735.562 1.094.562 2.438 0 .421-.062.828h-7.14q.187 1.125.906 1.718.718.594 1.718.594.844 0 1.453-.36.61-.374.954-.984l1.984.97q-1.453 2.53-4.422 2.53zm2.25-6.203q-.031-.453-.328-.89-.281-.438-.797-.719-.516-.297-1.203-.297-.875 0-1.5.516-.625.5-.906 1.39h4.734zm8.701 6.203q-1.422 0-2.562-.64-1.14-.656-1.782-1.797-.64-1.156-.64-2.594 0-1.36.625-2.531.64-1.172 1.75-1.86 1.125-.687 2.515-.687 1.47 0 2.532.64 1.062.626 1.61 1.735.562 1.094.562 2.438 0 .421-.063.828h-7.14q.187 1.125.906 1.718.718.594 1.718.594.844 0 1.454-.36.609-.374.953-.984l1.984.97q-1.453 2.53-4.422 2.53zm2.25-6.203q-.031-.453-.328-.89-.281-.438-.797-.719-.515-.297-1.203-.297-.875 0-1.5.516-.625.5-.906 1.39h4.734z"/><path fill="#38761d" d="M401.186 235.304a8.304 8.304 0 0 1 8.305-8.304H517.26a8.304 8.304 0 0 1 8.304 8.304v33.218a8.305 8.305 0 0 1-8.304 8.305H409.49a8.304 8.304 0 0 1-8.304-8.305z" fill-rule="evenodd"/><path stroke="#274e13" stroke-linejoin="round" stroke-linecap="butt" d="M401.186 235.304a8.304 8.304 0 0 1 8.305-8.304H517.26a8.304 8.304 0 0 1 8.304 8.304v33.218a8.305 8.305 0 0 1-8.304 8.305H409.49a8.304 8.304 0 0 1-8.304-8.305z"/><path fill="#f3f3f3" d="M415.768 248.27q-.656 0-1.125-.468-.469-.469-.469-1.11 0-.655.47-1.109.468-.468 1.124-.468.656 0 1.11.468.453.454.453 1.11 0 .64-.453 1.11-.454.468-1.11.468zm-1.234 1.048h2.437v9.515h-2.437v-9.515zm4.993 0h2.297v1.187h.156q.422-.687 1.203-1.078.797-.406 1.703-.406 1.719 0 2.61 1.047.906 1.047.906 2.86v5.905h-2.453v-5.609q0-.922-.47-1.422-.468-.5-1.296-.5-1 0-1.61.766-.593.765-.593 1.922v4.843h-2.453v-9.515zm15.315 9.672q-.703 0-1.296-.22-.594-.218-.97-.593-.874-.844-.874-2.39v-4.375h-1.672v-2.094h1.672v-2.688h2.437v2.688h2.328v2.094h-2.328v3.937q0 .719.313 1.047.265.297.906.297.344 0 .578-.094.235-.094.61-.328v2.39q-.797.329-1.704.329zm8.127.14q-1.422 0-2.563-.64-1.14-.657-1.78-1.797-.642-1.156-.642-2.594 0-1.36.625-2.531.641-1.172 1.75-1.86 1.125-.687 2.516-.687 1.469 0 2.531.64 1.063.626 1.61 1.735.562 1.094.562 2.437 0 .422-.062.829h-7.14q.187 1.125.905 1.718.72.594 1.72.594.843 0 1.452-.36.61-.374.953-.984l1.985.969q-1.453 2.531-4.422 2.531zm2.25-6.203q-.031-.453-.328-.89-.282-.438-.797-.72-.516-.296-1.203-.296-.875 0-1.5.516-.625.5-.907 1.39h4.735zm4.232-3.61h2.297v1.266h.156q.36-.671 1.094-1.109.75-.437 1.64-.437.657 0 1.204.203v2.453q-.5-.188-.86-.266-.343-.094-.734-.094-1.078 0-1.719.782-.625.78-.625 1.984v4.734h-2.453v-9.515zm7.904 0h2.297v1.157h.14q.391-.61 1.141-1.031.75-.422 1.719-.422 1.281 0 2.328.64 1.062.641 1.656 1.797.594 1.157.594 2.625 0 1.47-.594 2.625-.594 1.141-1.656 1.782-1.047.64-2.328.64-.969 0-1.735-.406-.75-.406-1.125-1.031h-.14l.14 1.344v3.828h-2.437v-13.547zm4.86 7.563q.687 0 1.28-.36.61-.358.954-.983.36-.641.36-1.454 0-.828-.36-1.453-.344-.64-.953-.984-.594-.344-1.282-.344-.672 0-1.265.344-.594.344-.953.984-.344.625-.344 1.453 0 .813.344 1.454.359.624.953.984.593.36 1.265.36zm6.9-7.562h2.297v1.265h.156q.36-.671 1.094-1.109.75-.437 1.64-.437.657 0 1.204.203v2.453q-.5-.188-.86-.266-.344-.094-.734-.094-1.078 0-1.719.782-.625.78-.625 1.984v4.734h-2.453v-9.515zm12.435 9.812q-1.422 0-2.563-.64-1.14-.657-1.78-1.797-.641-1.156-.641-2.594 0-1.36.625-2.531.64-1.172 1.75-1.86 1.125-.687 2.515-.687 1.469 0 2.531.64 1.063.626 1.61 1.735.562 1.094.562 2.437 0 .422-.062.829h-7.14q.187 1.125.905 1.718.72.594 1.72.594.843 0 1.452-.36.61-.374.953-.984l1.985.969q-1.453 2.531-4.422 2.531zm2.25-6.203q-.031-.453-.328-.89-.281-.438-.797-.72-.516-.296-1.203-.296-.875 0-1.5.516-.625.5-.906 1.39h4.734zm8.373 6.063q-.703 0-1.297-.22-.594-.218-.969-.593-.875-.844-.875-2.39v-4.375h-1.671v-2.094h1.671v-2.688h2.438v2.688h2.328v2.094h-2.328v3.937q0 .719.312 1.047.266.297.907.297.343 0 .578-.094.234-.094.61-.328v2.39q-.798.329-1.704.329zm8.126.14q-1.421 0-2.562-.64-1.14-.657-1.781-1.797-.64-1.156-.64-2.594 0-1.36.624-2.531.64-1.172 1.75-1.86 1.125-.687 2.516-.687 1.468 0 2.53.64 1.063.626 1.61 1.735.563 1.094.563 2.437 0 .422-.063.829h-7.14q.187 1.125.906 1.718.719.594 1.719.594.843 0 1.453-.36.61-.374.953-.984l1.984.969q-1.453 2.531-4.422 2.531zm2.25-6.203q-.03-.453-.328-.89-.28-.438-.797-.72-.515-.296-1.203-.296-.875 0-1.5.516-.625.5-.906 1.39h4.734zm4.233-3.61h2.297v1.266h.156q.36-.671 1.094-1.109.75-.437 1.64-.437.657 0 1.204.203v2.453q-.5-.188-.86-.266-.344-.094-.734-.094-1.078 0-1.719.782-.625.78-.625 1.984v4.734h-2.453v-9.515z"/><path fill="#6aa84f" d="M587.706 216.295h149.255v57.127c-74.627 0-74.627 21.766-149.255 9.399z" fill-rule="evenodd"/><path stroke="#38761d" stroke-linejoin="round" stroke-linecap="butt" d="M587.706 216.295h149.255v57.127c-74.627 0-74.627 21.766-149.255 9.399z"/><path fill="#fff" d="M625.738 252.075q-.985 0-1.735-.406-.75-.406-1.125-1.031h-.156v1.14h-2.297V238.42h2.453v3.656l-.156 1.344h.156q.391-.61 1.125-1.031.75-.422 1.735-.422 1.281 0 2.328.64 1.062.641 1.656 1.797.594 1.157.594 2.625 0 1.47-.594 2.625-.594 1.141-1.656 1.782-1.047.64-2.328.64zm-.438-2.25q.688 0 1.282-.36.609-.358.953-.983.36-.641.36-1.454 0-.828-.36-1.453-.344-.64-.953-.984-.594-.344-1.282-.344-.672 0-1.265.344-.594.344-.953.984-.36.625-.36 1.453 0 .813.36 1.454.359.625.953.984.593.36 1.265.36zm9.866 1.5l-4-9.062h2.766l2.469 5.922h.156l2.36-5.922h2.734l-5.891 13.547h-2.625l2.031-4.485zm11.955.61q-.703 0-1.297-.22-.593-.218-.968-.593-.875-.844-.875-2.39v-4.375h-1.672v-2.094h1.672v-2.688h2.437v2.688h2.328v2.094h-2.328v3.937q0 .719.313 1.047.265.297.906.297.344 0 .578-.094.234-.094.61-.328v2.39q-.797.329-1.704.329zm8.127.14q-1.422 0-2.563-.64-1.14-.657-1.78-1.797-.642-1.156-.642-2.594 0-1.36.625-2.531.641-1.172 1.75-1.86 1.125-.687 2.516-.687 1.469 0 2.531.64 1.063.626 1.61 1.735.562 1.094.562 2.437 0 .422-.062.829h-7.14q.187 1.125.905 1.718.72.594 1.72.594.843 0 1.452-.36.61-.374.953-.984l1.985.969q-1.453 2.531-4.422 2.531zm2.25-6.203q-.031-.453-.328-.89-.282-.438-.797-.72-.516-.296-1.203-.296-.875 0-1.5.516-.625.5-.907 1.39h4.735zm8.717 6.203q-1.438 0-2.579-.64-1.14-.641-1.78-1.797-.641-1.156-.641-2.61 0-1.468.64-2.609.64-1.14 1.781-1.797 1.141-.656 2.579-.656 1.578 0 2.718.687 1.141.672 1.641 1.922l-2.234.938q-.594-1.266-2.125-1.266-1.125 0-1.844.766-.719.765-.719 2.015 0 1.266.719 2.032.719.765 1.844.765 1.546 0 2.234-1.343l2.219.968q-.61 1.25-1.75 1.938-1.14.687-2.703.687zm10.768 0q-1.485 0-2.64-.656-1.157-.672-1.798-1.812-.64-1.157-.64-2.579 0-1.421.64-2.578.64-1.156 1.797-1.812 1.156-.672 2.64-.672 1.454 0 2.61.672 1.156.656 1.797 1.812.64 1.157.64 2.578 0 1.422-.64 2.579-.64 1.14-1.797 1.812-1.156.656-2.61.656zm0-2.25q.703 0 1.297-.328.609-.344.953-.984.36-.64.36-1.485 0-.843-.36-1.468-.344-.641-.953-.97-.594-.343-1.297-.343-.719 0-1.313.344-.593.328-.968.969-.36.625-.36 1.468 0 .829.36 1.485.375.64.968.984.594.328 1.313.328zm11.005 2.25q-1.282 0-2.344-.64-1.047-.641-1.656-1.782-.61-1.156-.61-2.625 0-1.468.61-2.625.609-1.156 1.656-1.796 1.062-.641 2.344-.641.968 0 1.718.422t1.141 1.031h.14l-.14-1.344v-3.656h2.422v13.36h-2.281v-1.141h-.141q-.375.625-1.14 1.031-.75.406-1.72.406zm.406-2.25q.687 0 1.281-.36.61-.358.953-.983.36-.641.36-1.454 0-.828-.36-1.453-.344-.64-.953-.984-.594-.344-1.281-.344-.672 0-1.266.344t-.953.984q-.36.625-.36 1.453 0 .813.36 1.454.36.625.953.984.594.36 1.266.36zm11.74 2.25q-1.421 0-2.562-.64-1.14-.657-1.781-1.797-.64-1.156-.64-2.594 0-1.36.624-2.531.641-1.172 1.75-1.86 1.125-.687 2.516-.687 1.469 0 2.531.64 1.063.626 1.61 1.735.562 1.094.562 2.437 0 .422-.062.829h-7.141q.187 1.125.906 1.718.719.594 1.719.594.844 0 1.453-.36.61-.374.953-.984l1.985.969q-1.454 2.531-4.422 2.531zm2.25-6.203q-.03-.453-.327-.89-.282-.438-.797-.72-.516-.296-1.203-.296-.875 0-1.5.516-.625.5-.907 1.39h4.735z"/><path d="M538.415 425.96h28.141v.064h28.142"/><path stroke="#666" stroke-width="2" stroke-linejoin="round" stroke-linecap="butt" d="M538.415 425.96h28.141v.064h16.142"/><path fill="#666" stroke="#666" stroke-width="2" stroke-linecap="butt" d="M582.698 429.327l9.076-3.303-9.076-3.304z" fill-rule="evenodd"/><path d="M525.564 251.913h31.071v.063h31.071"/><path stroke="#666" stroke-width="2" stroke-linejoin="round" stroke-linecap="butt" d="M525.564 251.913h31.071v.063h19.071"/><path fill="#666" stroke="#666" stroke-width="2" stroke-linecap="butt" d="M575.706 255.28l9.076-3.304-9.076-3.303z" fill-rule="evenodd"/><path d="M345.696 74.711h21.74v.063h21.756"/><path stroke="#666" stroke-width="2" stroke-linejoin="round" stroke-linecap="butt" d="M345.696 74.711h21.74v.063h9.756"/><path fill="#666" stroke="#666" stroke-width="2" stroke-linecap="butt" d="M377.192 78.078l9.076-3.304-9.076-3.303z" fill-rule="evenodd"/><path fill="#fbbc05" d="M33.945 39.093H183.2V96.22c-74.627 0-74.627 21.767-149.255 9.4z" fill-rule="evenodd"/><path stroke="#d5a6bd" stroke-linejoin="round" stroke-linecap="butt" d="M33.945 39.093H183.2V96.22c-74.627 0-74.627 21.767-149.255 9.4z"/><path fill="#434343" d="M65.193 63.873q-1.578 0-2.765-.86-1.188-.874-1.656-2.359l2.312-.953q.25.875.781 1.328.547.454 1.328.454.86 0 1.344-.547.5-.563.5-1.578v-9.141h2.531v9.125q0 1.453-.578 2.469-.578 1.015-1.578 1.547-.984.515-2.219.515zm9.785 0q-1.516 0-2.485-.875-.968-.89-.968-2.328 0-.953.5-1.672.5-.734 1.375-1.125.89-.39 1.953-.39 1.468 0 2.515.421v-.406q0-.781-.593-1.265-.579-.485-1.579-.485-.671 0-1.296.313-.625.297-1.032.797l-1.562-1.235q.687-.89 1.734-1.375 1.047-.484 2.266-.484 2.187 0 3.328 1.015 1.14 1 1.14 2.938v5.86h-2.406v-.97h-.156q-.422.563-1.125.922-.703.344-1.61.344zm.578-1.906q1.062 0 1.687-.672.625-.687.625-1.594-.953-.453-2-.453-1.906 0-1.906 1.422 0 .578.406.938.422.359 1.188.359zm5.903-7.906h2.782l2.406 6.187h.156l2.438-6.187h2.75l-4.078 9.515H85.49l-4.032-9.515zm14.768 9.812q-1.515 0-2.484-.875-.969-.89-.969-2.328 0-.953.5-1.672.5-.734 1.375-1.125.89-.39 1.953-.39 1.469 0 2.516.421v-.406q0-.781-.594-1.265-.578-.485-1.578-.485-.672 0-1.297.313-.625.297-1.031.797l-1.563-1.235q.688-.89 1.735-1.375 1.047-.484 2.265-.484 2.188 0 3.328 1.015 1.141 1 1.141 2.938v5.86h-2.406v-.97h-.156q-.422.563-1.125.922-.704.344-1.61.344zm.578-1.906q1.063 0 1.688-.672.625-.687.625-1.594-.953-.453-2-.453-1.906 0-1.906 1.422 0 .578.406.938.422.359 1.187.359zm11.341 1.906q-1.75 0-3.093-.984-1.344-.985-1.89-2.797l2.374-.938q.281 1.063.953 1.704.672.625 1.672.625.844 0 1.438-.407.593-.422.593-1.172t-.578-1.218q-.562-.485-2.015-1.016l-.813-.312q-1.297-.438-2.219-1.36-.906-.922-.906-2.328 0-1.047.547-1.906.547-.86 1.531-1.344.985-.5 2.235-.5 1.812 0 2.859.86 1.047.843 1.437 1.968l-2.218.938q-.22-.61-.735-1.032-.5-.421-1.312-.421-.813 0-1.344.39-.531.375-.531.985 0 .609.5 1.03.5.407 1.656.798l.844.28q1.734.61 2.656 1.595.922.968.922 2.547 0 1.312-.672 2.218-.672.907-1.734 1.36-1.047.437-2.157.437zm11.098 0q-1.437 0-2.578-.64-1.14-.641-1.781-1.797-.64-1.157-.64-2.61 0-1.468.64-2.61.64-1.14 1.781-1.796 1.14-.656 2.578-.656 1.578 0 2.72.687 1.14.672 1.64 1.922l-2.235.938q-.593-1.266-2.125-1.266-1.125 0-1.843.766-.72.765-.72 2.015 0 1.266.72 2.032.718.765 1.843.765 1.547 0 2.235-1.344l2.218.97q-.609 1.25-1.75 1.937-1.14.687-2.703.687zm6.206-9.812h2.297v1.265h.156q.36-.672 1.094-1.11.75-.437 1.64-.437.657 0 1.204.204v2.453q-.5-.188-.86-.266-.343-.094-.734-.094-1.078 0-1.719.782-.625.78-.625 1.984v4.734h-2.453v-9.515zm9.357-1.047q-.656 0-1.125-.469t-.469-1.11q0-.656.469-1.109.469-.468 1.125-.468t1.11.468q.452.453.452 1.11 0 .64-.453 1.109t-1.11.469zm-1.235 1.047h2.438v9.515h-2.438v-9.515zm4.93 0h2.298v1.156h.14q.391-.61 1.141-1.031.75-.422 1.719-.422 1.281 0 2.328.64 1.062.641 1.656 1.797.594 1.157.594 2.625 0 1.469-.594 2.625-.594 1.14-1.656 1.782-1.047.64-2.328.64-.969 0-1.735-.406-.75-.406-1.125-1.031h-.14l.14 1.343v3.829h-2.437V54.06zm4.86 7.562q.688 0 1.281-.36.61-.359.954-.984.359-.64.359-1.453 0-.828-.36-1.453-.343-.64-.953-.984-.593-.344-1.28-.344-.673 0-1.266.344-.594.344-.954.984-.343.625-.343 1.453 0 .813.343 1.453.36.625.954.985.593.36 1.265.36zm11.041 2.11q-.703 0-1.296-.22-.594-.218-.97-.593-.874-.844-.874-2.39v-4.376h-1.672v-2.093h1.672v-2.688h2.437v2.688h2.328v2.093H153.7v3.938q0 .719.313 1.047.265.297.906.297.344 0 .578-.094.235-.094.61-.328v2.39q-.797.329-1.704.329zm2.47-.157zM57.92 85.873q-1.734 0-2.812-.703-1.063-.719-1.5-1.844l2.187-.953q.297.672.844 1.016.547.344 1.281.344.672 0 1.11-.22.453-.218.453-.702 0-.47-.407-.688-.406-.234-1.234-.422l-1.11-.25q-1.156-.281-1.921-1.015-.766-.735-.766-1.844 0-.813.484-1.469.5-.656 1.344-1 .86-.36 1.875-.36 2.953 0 3.938 2.063l-2.078.922q-.563-1-1.797-1-.64 0-1.016.235-.36.218-.36.578 0 .672 1.266 1.015l1.39.328q1.423.36 2.142 1.094.718.719.718 1.781 0 .907-.53 1.61-.532.703-1.454 1.094-.922.39-2.047.39zm10.359 0q-1.484 0-2.64-.656-1.157-.672-1.798-1.813-.64-1.156-.64-2.578t.64-2.578q.641-1.156 1.797-1.812 1.157-.672 2.641-.672 1.453 0 2.61.672 1.156.656 1.796 1.812.64 1.156.64 2.578t-.64 2.578q-.64 1.141-1.797 1.813-1.156.656-2.609.656zm0-2.25q.703 0 1.297-.328.61-.344.953-.984.36-.641.36-1.485 0-.843-.36-1.468-.344-.641-.953-.97-.594-.343-1.297-.343-.719 0-1.313.344-.593.328-.968.969-.36.625-.36 1.468 0 .828.36 1.485.375.64.968.984.594.328 1.313.328zm10.349 2.25q-1.72 0-2.61-1.062-.89-1.063-.89-2.97v-5.78h2.437v5.484q0 .969.469 1.531.469.547 1.234.547 1.047 0 1.656-.765.61-.766.61-1.954v-4.843h2.453v9.515H81.69V84.39h-.156q-.422.687-1.203 1.094-.766.39-1.703.39zm7.737-9.812h2.297v1.265h.156q.36-.672 1.094-1.11.75-.437 1.64-.437.657 0 1.204.204v2.453q-.5-.188-.86-.266-.343-.094-.734-.094-1.078 0-1.719.782-.625.78-.625 1.984v4.734h-2.453v-9.515zm12.45 9.812q-1.437 0-2.577-.64-1.141-.641-1.782-1.797-.64-1.157-.64-2.61 0-1.468.64-2.61.641-1.14 1.782-1.796 1.14-.656 2.578-.656 1.578 0 2.718.687 1.141.672 1.641 1.922l-2.234.938q-.594-1.266-2.125-1.266-1.125 0-1.844.766-.719.765-.719 2.015 0 1.266.719 2.032.719.765 1.844.765 1.547 0 2.234-1.344l2.219.97q-.61 1.25-1.75 1.937-1.14.687-2.703.687zm10.675 0q-1.422 0-2.562-.64-1.141-.657-1.782-1.797-.64-1.157-.64-2.594 0-1.36.625-2.531.64-1.172 1.75-1.86 1.125-.687 2.515-.687 1.47 0 2.532.64 1.062.625 1.609 1.735.563 1.094.563 2.437 0 .422-.063.828h-7.14q.187 1.125.906 1.72.718.593 1.718.593.844 0 1.454-.36.609-.374.953-.984l1.984.969q-1.453 2.531-4.422 2.531zm2.25-6.203q-.031-.453-.328-.89-.281-.438-.797-.72-.515-.296-1.203-.296-.875 0-1.5.515-.625.5-.906 1.391h4.734zm3.045 5.906zm10.038.297q-1.438 0-2.579-.64-1.14-.641-1.78-1.797-.641-1.157-.641-2.61 0-1.468.64-2.61.64-1.14 1.781-1.796 1.141-.656 2.579-.656 1.578 0 2.718.687 1.14.672 1.64 1.922l-2.233.938q-.594-1.266-2.125-1.266-1.125 0-1.844.766-.719.765-.719 2.015 0 1.266.719 2.032.719.765 1.844.765 1.546 0 2.234-1.344l2.219.97q-.61 1.25-1.75 1.937-1.14.687-2.703.687zm10.768 0q-1.485 0-2.64-.656-1.157-.672-1.798-1.813-.64-1.156-.64-2.578t.64-2.578q.64-1.156 1.797-1.812 1.156-.672 2.64-.672 1.454 0 2.61.672 1.156.656 1.797 1.812.64 1.156.64 2.578t-.64 2.578q-.64 1.141-1.797 1.813-1.156.656-2.61.656zm0-2.25q.703 0 1.297-.328.609-.344.953-.984.36-.641.36-1.485 0-.843-.36-1.468-.344-.641-.953-.97-.594-.343-1.297-.343-.719 0-1.313.344-.594.328-.969.969-.359.625-.359 1.468 0 .828.36 1.485.374.64.968.984.594.328 1.313.328zm11.005 2.25q-1.282 0-2.344-.64-1.047-.641-1.656-1.782-.61-1.156-.61-2.625 0-1.468.61-2.625.609-1.156 1.656-1.797 1.062-.64 2.344-.64.968 0 1.718.422t1.141 1.03h.14l-.14-1.343v-3.656h2.422v13.36h-2.281v-1.141h-.141q-.375.625-1.14 1.03-.75.407-1.72.407zm.406-2.25q.687 0 1.281-.36.61-.359.953-.984.36-.64.36-1.453 0-.828-.36-1.453-.344-.64-.953-.984-.594-.344-1.281-.344-.672 0-1.266.344t-.953.984q-.36.625-.36 1.453 0 .813.36 1.453.36.625.953.985.594.36 1.266.36zm11.74 2.25q-1.421 0-2.562-.64-1.14-.657-1.781-1.797-.64-1.157-.64-2.594 0-1.36.624-2.531.64-1.172 1.75-1.86 1.125-.687 2.516-.687 1.469 0 2.531.64 1.063.625 1.61 1.735.562 1.094.562 2.437 0 .422-.062.828h-7.141q.187 1.125.906 1.72.719.593 1.719.593.844 0 1.453-.36.61-.374.953-.984l1.985.969q-1.454 2.531-4.422 2.531zm2.25-6.203q-.03-.453-.327-.89-.282-.438-.797-.72-.516-.296-1.203-.296-.875 0-1.5.515-.625.5-.907 1.391h4.735z"/><path d="M183.2 74.71c10.868 0 16.303.016 21.736.032s10.864.031 21.729.031"/><path stroke="#666" stroke-width="2" stroke-linejoin="round" stroke-linecap="butt" stroke-dasharray="8.0,6.0" d="M183.2 74.71c10.868 0 16.303.016 21.736.032 2.717.008 5.433.016 8.828.022h.9"/><path fill="#666" stroke="#666" stroke-width="2" stroke-linecap="butt" d="M214.662 78.068l9.08-3.297-9.075-3.31z" fill-rule="evenodd"/><path d="M463.804 105.62c0 32.966-.11 50.76-.22 65.933-.111 15.173-.221 27.726-.221 55.453"/><path stroke="#666" stroke-width="2" stroke-linejoin="round" stroke-linecap="butt" stroke-dasharray="16.0,6.0" d="M463.804 105.62c0 32.966-.11 50.76-.22 65.933-.056 7.586-.111 14.518-.152 23.019-.021 4.25-.038 8.893-.05 14.206l-.01 6.228"/><path fill="#666" stroke="#666" stroke-width="2" stroke-linecap="butt" d="M460.068 215.003l3.297 9.079 3.31-9.074z" fill-rule="evenodd"/><path d="M800.836 284.538l.032 111.213h-31.843l-.031-111.213z"/><path fill="#ea4335" d="M778.81 301.164q0-1.11.546-2.016.546-.906 1.53-1.422.985-.515 2.25-.515 1.25 0 2.235.515 1 .516 1.547 1.422.563.906.563 2.016 0 .828-.359 1.468-.359.641-.89.97v.14l1.14-.14h3.141l.001 2.093h-11.453v-1.953h.968v-.14q-.516-.313-.875-.97-.344-.64-.344-1.468zm1.937.343q0 .594.297 1.11.297.515.844.812.547.313 1.25.313.704 0 1.25-.313.547-.297.844-.812.297-.516.296-1.11 0-.578-.297-1.093-.297-.5-.844-.813-.547-.297-1.25-.297t-1.25.297q-.547.313-.843.813-.297.515-.297 1.093zm-1.934 10.065q0-1.219.546-2.187.562-.97 1.546-1.532.984-.546 2.219-.546 1.172 0 2.172.53 1 .548 1.594 1.5.594.97.594 2.157 0 1.266-.546 2.172-.546.922-1.5 1.39-.937.47-2.093.47-.36 0-.703-.048l-.002-6.125q-.969.157-1.484.766-.5.625-.5 1.484 0 .72.313 1.235.313.531.844.828l-.828 1.703q-2.172-1.25-2.172-3.797zm5.328 1.938q.375-.032.75-.282.375-.25.625-.687.25-.438.25-1.031 0-.75-.438-1.297-.438-.531-1.188-.766l.001 4.063zm-5.326 7.532q0-1.265.562-2.25.562-.984 1.546-1.547.985-.546 2.22-.546 1.218 0 2.202.546 1 .563 1.563 1.547.579.985.58 2.25 0 1.25-.578 2.235-.563 1-1.562 1.547-.985.562-2.203.562-1.235 0-2.22-.562-.984-.547-1.547-1.547-.562-.985-.563-2.235zm1.938 0q0 .61.281 1.125.282.516.829.813.547.312 1.281.312.719 0 1.266-.312.546-.297.827-.813.297-.515.297-1.125t-.297-1.125q-.282-.5-.829-.812-.547-.313-1.265-.313-.72 0-1.281.313-.547.312-.828.812-.281.516-.281 1.125zm6.47 5.872v1.968h-.984v.141q.532.328.891.969.36.64.36 1.468 0 1.11-.562 2.016-.547.906-1.546 1.406-.985.516-2.235.516-1.265 0-2.25-.516-.984-.5-1.531-1.406-.548-.906-.548-2.016 0-.828.343-1.484.36-.64.875-.953v-.14l-1.14.14h-3.282v-2.11h11.61zm-6.467 4.187q0 .594.297 1.094.297.515.844.812.547.313 1.25.313t1.25-.313q.547-.297.843-.812.297-.5.297-1.094 0-.578-.297-1.094-.297-.515-.844-.828-.547-.297-1.25-.297-.704 0-1.25.297-.547.313-.844.828-.297.516-.296 1.094zm-1.81 9.47q0-.61.171-1.125.188-.516.516-.829.718-.75 2.046-.75h3.766v-1.421h1.78l.001 1.421h2.313v2.094h-2.312v2h-1.78l-.001-2h-3.391q-.61 0-.89.266-.25.234-.25.781 0 .297.078.5t.266.516h-2.047q-.266-.688-.266-1.453zm9.188 4.313q0-.563.39-.97.407-.39.97-.39.546 0 .937.39.406.407.407.97 0 .562-.406.953-.39.39-.938.39-.562 0-.969-.39-.39-.39-.39-.953zm-.906-1.047v2.093h-8.156v-2.093h8.156zm.001 4.29v1.954h-1.015v.14q.594.376.938 1.016.344.656.344 1.453 0 .875-.421 1.516-.406.64-1.031.906.64.406 1.047 1.094.406.703.407 1.64 0 1.391-.86 2.11-.858.734-2.312.734h-5.25v-2.078h4.86q.765 0 1.187-.36.421-.359.421-1 0-.812-.656-1.296-.641-.484-1.704-.484h-4.109v-2.11h4.859q.765 0 1.187-.375.422-.375.422-1.062 0-.766-.657-1.235-.64-.468-1.703-.468h-4.11v-2.094h8.156zm.91 15.749q0-.563.391-.97.406-.39.969-.39.547 0 .937.39.407.407.407.97 0 .562-.406.953-.39.39-.937.39-.563 0-.97-.39-.39-.39-.39-.953zm-.906-1.047v2.094h-8.155v-2.094h8.155zm-6.436 3.869l4.673 4.25-.001-4.125h1.765l.002 6.703h-1.703l-4.673-4.25.001 4.375h-1.78l-.003-6.953h1.719zm-1.965 12.41q0-1.218.546-2.187.562-.969 1.546-1.531.985-.547 2.219-.547 1.172 0 2.172.53 1 .548 1.594 1.5.594.97.595 2.157 0 1.266-.547 2.172-.546.922-1.5 1.39-.937.47-2.093.47-.36 0-.703-.047l-.002-6.125q-.969.156-1.484.765-.5.625-.5 1.485 0 .718.313 1.234.313.531.844.828l-.827 1.703q-2.173-1.25-2.173-3.797zm5.328 1.938q.375-.031.75-.281t.625-.688q.25-.437.25-1.031 0-.75-.438-1.297-.438-.531-1.188-.766l.001 4.063z"/><path d="M662.334 282.82c0 29.614-47.796 44.897-95.59 59.228-47.796 14.33-95.591 27.709-95.591 55.418"/><path stroke="#666" stroke-width="2" stroke-linejoin="round" stroke-linecap="butt" stroke-dasharray="8.0,6.0" d="M662.334 282.82c0 29.614-47.796 44.897-95.59 59.228-23.898 7.165-47.796 14.092-65.72 22.692-8.96 4.3-16.429 9.018-21.657 14.392a35.283 35.283 0 0 0-3.489 4.158 29.076 29.076 0 0 0-1.407 2.179l-.228.402"/><path fill="#666" stroke="#666" stroke-width="2" stroke-linecap="butt" d="M471.05 385.02l.856 9.621 5.529-7.92z" fill-rule="evenodd"/><path d="M340.8 392.663l.031-105.039h30.583l-.032 105.04z"/><path fill="#34a853" d="M362.208 368.99q0 1.265-.563 2.25-.563.984-1.547 1.547-.985.547-2.22.547-1.218 0-2.202-.547-1-.563-1.562-1.547-.578-.985-.578-2.25 0-1.25.58-2.235.562-1 1.562-1.546.985-.563 2.203-.563 1.235 0 2.219.563.984.546 1.546 1.546.563.985.562 2.235zm-1.937 0q0-.61-.281-1.125-.281-.516-.828-.813-.547-.312-1.281-.312-.719 0-1.266.312-.547.297-.828.813-.297.515-.298 1.125 0 .61.297 1.125.281.5.828.812.547.313 1.265.313.72 0 1.282-.313.547-.312.828-.812.282-.516.282-1.125zm-6.467-5.871v-1.97h.985v-.14q-.531-.328-.89-.969-.36-.64-.36-1.468 0-1.11.564-2.016.547-.906 1.547-1.406.984-.516 2.234-.516 1.266 0 2.25.516.984.5 1.531 1.406.547.906.546 2.016 0 .828-.344 1.484-.36.64-.875.953v.14l1.14-.14h3.282v2.11h-11.61zm6.47-4.188q0-.594-.297-1.094-.297-.515-.843-.812-.547-.313-1.25-.313t-1.25.313q-.547.297-.844.812-.297.5-.298 1.094 0 .578.297 1.094.297.515.844.828.546.297 1.25.297.703 0 1.25-.297.546-.313.844-.828.297-.516.297-1.094zm1.815-9.47q0 .61-.172 1.126-.188.515-.516.828-.719.75-2.047.75h-3.766v1.422h-1.781v-1.422h-2.313l.001-2.094h2.313v-2h1.781v2h3.39q.61 0 .891-.266.25-.234.25-.78 0-.298-.078-.5-.078-.204-.265-.517h2.047q.265.688.265 1.454zm-9.186-4.312q0 .562-.391.968-.406.39-.969.39-.547 0-.937-.39-.406-.406-.406-.968 0-.563.406-.954.391-.39.938-.39.562 0 .968.39.391.391.39.954zm.906 1.046v-2.093h8.157l-.001 2.093h-8.156zm.001-4.29v-1.954h1.016v-.14q-.593-.375-.937-1.016-.343-.656-.343-1.453 0-.875.422-1.516.407-.64 1.032-.906-.64-.406-1.047-1.094-.406-.703-.406-1.64 0-1.391.86-2.11.86-.734 2.313-.734h5.25v2.078h-4.86q-.766 0-1.188.36-.422.359-.422 1 0 .812.656 1.296.64.485 1.703.485h4.11l-.001 2.109h-4.86q-.765 0-1.187.375-.422.375-.422 1.063 0 .765.656 1.234.64.469 1.703.469h4.109v2.093h-8.157zm-.901-15.749q0 .563-.391.97-.407.39-.97.39-.546 0-.937-.39-.406-.407-.406-.97 0-.562.407-.953.39-.39.938-.39.562 0 .968.39.39.391.39.953zm.905 1.047l.001-2.093h8.156v2.093h-8.157zm6.44-3.869l-4.671-4.25-.002 4.125h-1.765l.002-6.703h1.703l4.67 4.25.002-4.375h1.781l-.002 6.953h-1.719zm1.972-12.41q0 1.219-.548 2.187-.563.97-1.547 1.532-.985.546-2.22.546-1.171 0-2.17-.53-1-.548-1.594-1.5-.594-.97-.593-2.157 0-1.266.547-2.172.547-.922 1.5-1.39.938-.47 2.095-.47.359 0 .703.048l-.002 6.125q.969-.157 1.484-.766.5-.625.5-1.484.001-.72-.311-1.235-.313-.531-.844-.828l.829-1.703q2.171 1.25 2.17 3.797zm-5.328-1.938q-.375.032-.75.282-.375.25-.625.687-.25.438-.25 1.031 0 .75.437 1.297.437.531 1.187.766l.001-4.063z"/><path d="M455.716 347.52L606.3 301.093l9.008 29.26-150.583 46.425z"/><path fill="#666" d="M495.98 353.171l-2.18.673.667 2.165-1.478.456-.667-2.166-2.165.668-.455-1.479 2.165-.667-.667-2.165 1.478-.456.667 2.165 2.18-.672.455 1.478zm1.633 2.473zm1.742-7.65l1.568-.483.243.791.105-.032q.14-.5.56-.941.416-.455 1.073-.658.88-.271 1.735-.044.865.207 1.512.874.647.668.95 1.653.313 1.016.154 1.931-.165.901-.758 1.575-.584.654-1.465.925-.657.203-1.267.08-.595-.127-.977-.467l-.105.032.385.88.805 2.613-1.672.515-2.846-9.244zm4.916 4.126q.462-.143.792-.506.345-.368.45-.875.106-.506-.069-1.074-.17-.552-.542-.912-.373-.36-.864-.47-.477-.114-.94.029-.463.143-.792.506-.33.363-.45.874-.106.507.064 1.06.175.567.547.926.387.355.864.47.477.115.94-.028zm3.13-6.606l1.567-.483.267.866.09-.028q.11-.541.526-.996.416-.456 1.028-.644.448-.138.853-.1l.51 1.658q-.38-.013-.638 0-.242.01-.51.093-.747.23-1.015.9-.267.672-.02 1.478l.999 3.24-1.658.512-2-6.496zm10.608 4.07q-1.016.314-1.945.11-.919-.224-1.606-.862-.677-.658-.98-1.644-.294-.956-.105-1.88.204-.93.843-1.617.649-.707 1.664-1.02.986-.304 1.92-.085.929.204 1.605.862.692.653.986 1.609.304.985.1 1.915-.194.91-.843 1.617-.654.692-1.64.996zm-.478-1.552q.477-.148.812-.496.349-.353.454-.86.106-.506-.078-1.104-.175-.567-.547-.926-.372-.36-.86-.455-.476-.115-.954.033-.492.152-.822.515-.334.348-.455.86-.12.51.054 1.078.18.583.571.952.388.355.86.455.472.1.965-.052zm4.284-5.393l-1.165.36-.441-1.434 1.164-.36-.11-.357q-.34-1.106.124-1.935.46-.845 1.534-1.176.612-.19 1.106-.178l.501 1.628q-.286-.027-.479-.016-.197-.005-.436.07-.433.133-.609.465-.18.317-.051.735l.078.254 1.598-.493.44 1.434-1.597.493 1.559 5.062-1.658.51-1.558-5.062zm4.837-3.845q-.448.138-.873-.075-.41-.216-.548-.664-.138-.448.079-.859.232-.415.68-.553.448-.138.843.084.41.217.548.665.138.448-.08.858-.201.406-.65.544zm-.63.979l1.672-.516 2 6.496-1.673.516-2-6.496zm2.616-3.684l1.657-.511 2.81 9.124-1.658.51-2.809-9.123zm4.84.6q-.447.138-.872-.074-.41-.217-.548-.665-.138-.448.079-.858.232-.415.68-.553.448-.139.843.083.41.217.548.665.138.448-.08.858-.201.406-.65.544zm-.63.98l1.673-.516 2 6.496-1.673.515-2-6.496zm3.426-1.057l1.568-.483.253.821.09-.028q.15-.57.605-1.004.45-.45 1.063-.638 1.18-.364 2.012.164.833.528 1.215 1.768l1.241 4.032-1.672.515-1.182-3.838q-.193-.627-.627-.869-.42-.247-.987-.072-.672.207-.929.859-.257.651-.013 1.443l1.02 3.315-1.657.511-2-6.496zm13.525 6.18q-1.239.382-2.23.083-.977-.304-1.5-.993l1.37-1.126q.357.414.862.569.506.154 1.043-.011.792-.244 1.103-.88.316-.62.04-1.516l-.156-.508-.105.032q-.165.525-.6.92-.423.377-1.05.57-.807.249-1.633.062-.815-.207-1.468-.84-.652-.632-.96-1.633-.313-1.015-.125-1.89.184-.891.742-1.521.573-.635 1.38-.883.627-.193 1.193-.106.576.067 1.008.408l.105-.032-.211-.687 1.612-.497 1.862 6.048q.322 1.045.138 1.936-.168.885-.801 1.538-.618.649-1.619.957zm-1.349-4.49q.702-.216 1.048-.845.34-.645.079-1.496-.272-.881-.912-1.207-.624-.33-1.341-.11-.717.221-1.073.87-.345.63-.079 1.496.267.867.907 1.192.654.322 1.371.1zm4.58.257zm6.642-1.82q-.866.268-1.73.06-.855-.227-1.512-.875-.647-.667-.96-1.682-.303-.986-.144-1.902.175-.92.758-1.574.594-.673 1.46-.94.672-.208 1.271-.066.595.128.993.463l.104-.032-.39-.894-.767-2.494 1.658-.51 2.809 9.124-1.553.478-.24-.776-.104.032q-.125.496-.56.941-.42.44-1.093.648zm-.194-1.64q.478-.147.807-.51.33-.364.436-.87.12-.512-.055-1.08-.17-.552-.557-.906-.372-.36-.849-.475-.476-.114-.954.033-.463.143-.793.506t-.45.875q-.105.506.065 1.059.174.567.547.927.387.355.863.47.477.114.94-.029zm7.44-.593q-1.03.318-1.886-.073-.846-.41-1.15-1.395-.201-.657-.01-1.256.192-.598.706-1.051.515-.453 1.247-.679 1-.308 1.809-.23l-.088-.284q-.165-.538-.67-.742-.504-.204-1.176.003-.463.142-.831.485-.354.338-.532.769l-1.317-.51q.274-.754.89-1.304.61-.564 1.447-.822 1.493-.46 2.48-.013.989.448 1.398 1.777l1.232 4.002-1.643.506-.202-.657-.104.032q-.184.466-.584.867-.404.386-1.016.575zm-.012-1.419q.732-.226 1.007-.817.286-.612.098-1.224-.754-.111-1.456.105-1.299.4-1 1.371.12.389.467.56.361.166.884.005zm7.961-1.146q-.478.147-.942.127-.449-.025-.781-.201-.772-.383-1.098-1.444l-.92-2.986-1.135.35-.441-1.434 1.135-.35-.566-1.837 1.673-.515.565 1.836 1.583-.488.441 1.434-1.582.488.822 2.673q.157.508.43.652.244.154.677.02.239-.073.384-.183.142-.126.35-.353l.5 1.628q-.483.394-1.095.583zm4.52-1.28q-1.03.318-1.886-.072-.846-.41-1.15-1.395-.201-.657-.01-1.256.192-.599.707-1.052.514-.453 1.246-.678 1-.309 1.809-.23l-.088-.285q-.165-.537-.67-.741-.504-.205-1.176.003-.462.142-.831.485-.354.338-.532.769l-1.317-.51q.274-.755.89-1.304.61-.565 1.447-.822 1.493-.46 2.48-.013.989.447 1.398 1.776l1.232 4.003-1.643.506-.202-.657-.104.032q-.184.465-.584.867-.404.386-1.016.575zm-.012-1.418q.732-.226 1.007-.818.286-.611.098-1.223-.754-.111-1.456.105-1.299.4-1 1.371.12.388.467.56.362.166.884.005z"/><path d="M743.954 425.961c12.5 0 25.874-43.512 25-87.023-.874-43.512-15.996-87.024-31.993-87.024"/><path stroke="#ea4335" stroke-width="2" stroke-linejoin="round" stroke-linecap="butt" stroke-dasharray="8.0,6.0" d="M743.954 425.961c12.5 0 25.874-43.512 25-87.023-.437-21.756-4.436-43.512-10.326-59.83-2.944-8.158-6.362-14.956-10.042-19.715a35.447 35.447 0 0 0-1.042-1.285l-.182-.209"/><path fill="#ea4335" stroke="#ea4335" stroke-width="2" stroke-linecap="butt" d="M749.01 255.036l-9.514-1.664 6.218 7.39z" fill-rule="evenodd"/><path d="M401.186 251.913c-12.5 0-25.334 43.512-25 87.024.335 43.512 13.839 87.024 27.678 87.024"/><path stroke="#34a853" stroke-width="2" stroke-linejoin="round" stroke-linecap="butt" stroke-dasharray="8.0,6.0" d="M401.186 251.913c-12.5 0-25.334 43.512-25 87.024.168 21.756 3.627 43.512 8.775 59.829 2.574 8.158 5.57 14.957 8.787 19.716.1.149.201.295.302.44l.047.066"/><path fill="#34a853" stroke="#34a853" stroke-width="2" stroke-linecap="butt" d="M392.178 421.677l9.306 2.585-5.468-7.962z" fill-rule="evenodd"/></g></svg>