<svg viewBox="0 0 960 540" fill="none" stroke-linecap="square" stroke-miterlimit="10" xmlns="http://www.w3.org/2000/svg"><clipPath id="a"><path d="M0 0h960v540H0V0z"/></clipPath><g clip-path="url(#a)"><path fill="#fff" d="M0 0h960v540H0z" fill-rule="evenodd"/><path d="M38.514 118.189h289.45v303.622H38.513z"/><path fill="#000" d="M49.905 153.634q0-2.28.656-4.234.672-1.969 1.907-3.406 1.234-1.453 3.015-2.282 1.781-.843 4-.843 2.25 0 4.031.843 1.797.829 3.032 2.282 1.25 1.437 1.906 3.406.672 1.953.672 4.234v.438q0 2.281-.672 4.234-.656 1.953-1.906 3.406-1.235 1.438-3.016 2.266-1.781.813-4 .813-2.25 0-4.047-.813-1.781-.828-3.015-2.266-1.235-1.453-1.907-3.406-.656-1.953-.656-4.234v-.438zm3.61.438q0 1.562.359 2.984.375 1.406 1.125 2.485.765 1.062 1.89 1.687 1.141.625 2.641.625 1.484 0 2.61-.625 1.124-.625 1.874-1.687.75-1.079 1.11-2.485.375-1.422.375-2.984v-.438q0-1.547-.375-2.953-.375-1.422-1.14-2.484-.75-1.078-1.876-1.719-1.11-.64-2.625-.64-1.5 0-2.61.64-1.109.64-1.874 1.719-.75 1.062-1.125 2.484-.36 1.406-.36 2.953v.438zm39.316 0q0 2.265-.547 4.234-.547 1.953-1.61 3.406-1.046 1.438-2.609 2.266-1.547.813-3.562.813-2.032 0-3.532-.72-1.484-.734-2.53-2.077l-.188 2.406H74.94v-30h3.61v11.125q1.03-1.281 2.5-1.969 1.468-.687 3.421-.687 2.032 0 3.594.812 1.563.797 2.61 2.219 1.062 1.422 1.609 3.406.547 1.985.547 4.344v.422zm-3.61-.422q0-1.531-.312-2.922-.297-1.406-.969-2.469-.656-1.062-1.734-1.687-1.078-.625-2.64-.625-.938 0-1.72.25-.78.234-1.39.672-.61.437-1.094 1.031-.484.594-.812 1.297v9.25q.359.703.828 1.297.484.593 1.11 1.047.624.437 1.405.687.782.25 1.72.25 1.483 0 2.546-.61 1.062-.624 1.734-1.671.672-1.063 1-2.453.328-1.39.328-2.922v-.422zm12.145-10.39h10.656v21.28q0 2.032-.562 3.594-.547 1.563-1.61 2.625-1.062 1.063-2.593 1.61-1.532.562-3.485.562-1.125 0-2.094-.062-.953-.063-2.03-.266l.25-2.969q.327.063.827.11.516.047 1.032.078.53.031 1 .031.484.016.75.016 1.015 0 1.906-.266.906-.266 1.562-.89.672-.626 1.047-1.657.39-1.015.39-2.515v-18.125h-7.046v-3.157zm6.547-5.563q0-.875.515-1.485.532-.625 1.625-.625 1.094 0 1.641.625.547.61.547 1.485 0 .875-.547 1.484-.547.594-1.64.594-1.094 0-1.626-.594-.515-.61-.515-1.484zm24.348 27.094q-2.22 0-4.094-.766-1.86-.766-3.188-2.125-1.328-1.375-2.078-3.25-.734-1.875-.734-4.078v-.813q0-2.562.812-4.578.828-2.031 2.188-3.422 1.36-1.406 3.078-2.14 1.734-.75 3.547-.75 2.281 0 3.984.797 1.719.796 2.844 2.187 1.14 1.39 1.687 3.297.563 1.89.563 4.094v1.625h-15.094q.063 1.437.563 2.718.5 1.266 1.359 2.22.875.937 2.078 1.484 1.219.546 2.688.546 1.922 0 3.422-.78 1.515-.782 2.515-2.063l2.203 1.718q-.531.797-1.328 1.532-.781.734-1.828 1.297-1.031.562-2.344.906-1.297.344-2.843.344zm-.47-18.954q-1.093 0-2.077.407-.97.406-1.75 1.172-.782.765-1.328 1.89-.532 1.125-.735 2.594h11.36v-.281q-.063-1.047-.407-2.078-.328-1.047-1-1.86-.656-.828-1.672-1.328-1-.516-2.39-.516zm24.145 16.016q.97 0 1.89-.312.938-.313 1.657-.86.735-.562 1.172-1.312.438-.75.453-1.625h3.422q-.016 1.406-.734 2.687-.72 1.266-1.907 2.235-1.187.968-2.734 1.546-1.547.579-3.219.579-2.406 0-4.203-.86-1.797-.86-3-2.312-1.203-1.453-1.812-3.36-.594-1.906-.594-4.015v-.828q0-2.079.594-3.985.61-1.922 1.812-3.375 1.203-1.469 3-2.328 1.797-.86 4.203-.86 1.875 0 3.438.61 1.578.594 2.719 1.625 1.14 1.016 1.78 2.422.657 1.406.657 3h-3.422q-.015-.953-.422-1.797-.39-.86-1.078-1.5-.687-.64-1.64-1.016-.938-.375-2.032-.375-1.687 0-2.828.688-1.14.672-1.844 1.75-.703 1.078-1.015 2.437-.297 1.344-.297 2.704v.828q0 1.39.297 2.75.312 1.343 1 2.437.703 1.078 1.844 1.75 1.14.672 2.843.672zm23.551-23.703v5.11h8.047v2.796h-8.047v11.485q0 1.234.313 2.03.312.798.859 1.282.547.484 1.25.688.719.187 1.531.187.578 0 1.203-.062.625-.079 1.22-.172.593-.11 1.108-.203.532-.11.86-.188l.5 2.547q-.438.281-1.094.484-.64.203-1.406.344-.75.156-1.61.234-.843.079-1.687.079-1.406 0-2.625-.391-1.219-.406-2.125-1.281-.89-.875-1.406-2.25-.516-1.375-.516-3.328v-11.485h-5.547v-2.797h5.547v-5.109h3.625z"/><path fill="#e67c73" d="M236.37 149.166h-17.453v-3.141h17.453v3.14zm0 8.109h-17.453v-3.125h17.453v3.125zm46.289 14.281q-1.281-.047-2.313-.437-1.03-.39-1.859-1.063-.812-.656-1.406-1.531-.594-.875-1-1.89-.406-1-.61-2.079-.187-1.062-.187-2.094v-3.296q0-2.813-1.344-4.079-1.328-1.28-4.078-1.296v-2.829q2.75 0 4.078-1.25 1.344-1.265 1.344-4.109v-3.312q0-1.032.172-2.094.187-1.078.547-2.078.375-1 .953-1.875.578-.89 1.39-1.547.829-.672 1.891-1.063 1.063-.39 2.422-.422l.406 2.235q-1.406.047-2.234.672-.828.625-1.25 1.593-.422.97-.547 2.188-.11 1.203-.11 2.39v3.313q-.015 2.344-1.093 4.125-1.078 1.766-3.344 2.672 2.266.906 3.344 2.672 1.078 1.765 1.094 4.094v3.296q0 1.22.187 2.422.203 1.203.672 2.157.484.968 1.266 1.593.796.625 2.015.672l-.406 2.25z"/><path fill="#000" d="M107.647 223.103l5.656-7.844h4.235l-7.875 10.453 8.094 10.688h-4.188l-5.844-8.047-5.828 8.047h-4.219l8.079-10.688-7.875-10.453h4.187l5.578 7.844z"/><path fill="#e67c73" d="M130.214 234.056q0-.594.187-1.094.188-.515.531-.89.36-.375.875-.594.532-.219 1.235-.219.703 0 1.234.22.547.218.906.593.36.375.547.89.188.5.188 1.094 0 .563-.188 1.063-.187.5-.547.875-.359.36-.906.562-.531.219-1.234.219t-1.235-.219q-.515-.203-.875-.562-.343-.375-.53-.875-.188-.5-.188-1.063zm0-17q0-.594.187-1.094.188-.515.531-.89.36-.375.875-.594.532-.219 1.235-.219.703 0 1.234.22.547.218.906.593.36.375.547.89.188.5.188 1.094 0 .563-.188 1.063-.187.5-.547.875-.359.36-.906.578-.531.203-1.234.203t-1.235-.203q-.515-.219-.875-.578-.343-.375-.53-.875-.188-.5-.188-1.063z"/><path fill="#db4437" d="M172.221 222.134l1.422-14.172h14.594v3.516H176.69l-.797 7.578q.844-.484 2.016-.86 1.172-.374 2.719-.374 1.968 0 3.531.687 1.562.688 2.656 1.922 1.094 1.235 1.672 3 .594 1.75.594 3.906 0 2.032-.547 3.766t-1.656 3q-1.094 1.266-2.782 1.984-1.671.704-3.937.704-1.75 0-3.297-.485-1.531-.5-2.734-1.469-1.203-.984-1.985-2.468-.765-1.485-.953-3.453h3.438q.328 2.421 1.781 3.671 1.453 1.25 3.75 1.25 1.281 0 2.281-.453 1-.468 1.672-1.312.672-.844 1.016-2.031.343-1.204.343-2.672 0-1.328-.39-2.469-.375-1.156-1.11-2-.718-.86-1.78-1.344-1.048-.484-2.407-.484-.906 0-1.563.125-.64.125-1.171.36-.532.234-1 .562-.454.328-.938.765l-2.89-.75z"/><path fill="#e67c73" d="M204.1 235.556q0 .922-.234 1.922-.219 1.016-.656 2-.438.984-1.063 1.875-.625.906-1.453 1.61l-2.234-1.235q.937-1.36 1.328-2.906.39-1.547.39-3.203v-3.5h3.922v3.437z"/><path fill="#000" d="M106.694 300.9l.938 2.563 6.453-16.204h4.031l-10.719 24.407q-.375.812-.953 1.734-.562.922-1.39 1.703-.813.781-1.907 1.297-1.094.531-2.531.531-.25 0-.563-.031-.312-.016-.625-.078-.312-.047-.593-.11-.266-.046-.438-.093l.578-2.938q.141 0 .375.016l.485.031q.265.031.5.031.234.016.36.016.75 0 1.358-.422.625-.406 1.094-.969.485-.562.828-1.172.344-.609.532-1l1.453-2.812-9.11-20.14h4.047l5.797 13.64z"/><path fill="#e67c73" d="M130.214 306.056q0-.594.187-1.094.188-.515.531-.89.36-.375.875-.594.532-.219 1.235-.219.703 0 1.234.22.547.218.906.593.36.375.547.89.188.5.188 1.094 0 .563-.188 1.063-.187.5-.547.875-.359.36-.906.562-.531.219-1.234.219t-1.235-.219q-.515-.203-.875-.562-.343-.375-.53-.875-.188-.5-.188-1.063zm0-17q0-.594.187-1.094.188-.515.531-.89.36-.375.875-.594.532-.219 1.235-.219.703 0 1.234.22.547.218.906.593.36.375.547.89.188.5.188 1.094 0 .563-.188 1.063-.187.5-.547.875-.359.36-.906.578-.531.203-1.234.203t-1.235-.203q-.515-.219-.875-.578-.343-.375-.53-.875-.188-.5-.188-1.063z"/><path fill="#db4437" d="M184.253 279.947v3.234h-.313q-1.797 0-3.219.375-1.406.375-2.484 1.016-1.078.64-1.844 1.531-.765.89-1.28 1.953-.5 1.047-.782 2.203-.266 1.141-.344 2.344.5-.61 1.156-1.125.672-.516 1.438-.89.781-.391 1.672-.61.89-.234 1.86-.234 2.124 0 3.671.812 1.547.813 2.531 2.14 1 1.329 1.469 3.016.469 1.672.469 3.407 0 2-.563 3.765-.547 1.75-1.656 3.063-1.11 1.312-2.766 2.078-1.656.766-3.812.766-1.547 0-2.828-.454-1.282-.453-2.297-1.218-1.016-.766-1.781-1.813-.75-1.062-1.25-2.265-.5-1.22-.766-2.532-.25-1.312-.25-2.625v-1.687q0-1.953.25-3.922t.828-3.766q.594-1.797 1.578-3.359 1-1.578 2.516-2.719 1.515-1.156 3.594-1.812 2.093-.672 4.89-.672h.313zm-4.719 12.812q-.922 0-1.781.297-.86.281-1.61.813-.734.531-1.312 1.281-.563.734-.89 1.625v1.219q0 1.875.452 3.328.453 1.453 1.203 2.453.766.984 1.766 1.516 1 .515 2.094.515 1.265 0 2.234-.484.985-.5 1.656-1.36.672-.859 1.016-2.062.344-1.203.344-2.61 0-1.25-.313-2.421-.312-1.188-.968-2.094-.641-.922-1.625-1.469-.97-.547-2.266-.547z"/><path fill="#e67c73" d="M204.1 307.556q0 .922-.234 1.922-.219 1.016-.656 2-.438.984-1.063 1.875-.625.906-1.453 1.61l-2.234-1.235q.937-1.36 1.328-2.906.39-1.547.39-3.203v-3.5h3.922v3.437zm-150.273 77.75q1.187-.047 1.984-.672.813-.625 1.282-1.593.484-.954.687-2.157.203-1.203.203-2.422v-3.296q0-2.329 1.078-4.094 1.078-1.766 3.344-2.672-2.266-.906-3.344-2.672-1.078-1.781-1.078-4.125v-3.312q0-1.188-.125-2.391-.125-1.219-.547-2.188-.422-.968-1.25-1.593-.812-.625-2.218-.672l.39-2.235q1.344.032 2.406.422 1.079.391 1.891 1.063.828.656 1.39 1.547.579.875.954 1.875t.547 2.078q.172 1.062.172 2.094v3.312q0 2.844 1.343 4.11 1.36 1.25 4.094 1.25v2.828q-2.734.015-4.094 1.296-1.343 1.266-1.343 4.079v3.296q0 1.563-.438 3.157-.422 1.593-1.328 2.906-.906 1.312-2.297 2.14-1.375.844-3.297.891l-.406-2.25zm28.379-24.25q0-.594.187-1.094.188-.515.532-.89.359-.375.875-.594.53-.219 1.234-.219.703 0 1.234.22.547.218.907.593.359.375.546.89.188.5.188 1.094 0 .563-.188 1.063-.187.5-.546.875-.36.36-.907.578-.53.203-1.234.203-.703 0-1.234-.203-.516-.219-.875-.578-.344-.375-.532-.875-.187-.5-.187-1.063zm4.875 18.5q0 .922-.235 1.922-.218 1.016-.656 2-.437.984-1.062 1.875-.625.906-1.453 1.61l-2.235-1.235q.938-1.36 1.328-2.906.391-1.547.391-3.203v-3.5h3.922v3.437z"/><path fill="#fbbc05" fill-opacity=".377" d="M632.787 85.515c0-18.392 14.91-33.302 33.303-33.302h222.844a33.302 33.302 0 0 1 33.302 33.302v133.206c0 18.393-14.91 33.303-33.302 33.303H666.09c-18.393 0-33.303-14.91-33.303-33.303z" fill-rule="evenodd"/><path stroke="#666" stroke-linejoin="round" stroke-linecap="butt" d="M632.787 85.515c0-18.392 14.91-33.302 33.303-33.302h222.844a33.302 33.302 0 0 1 33.302 33.302v133.206c0 18.393-14.91 33.303-33.302 33.303H666.09c-18.393 0-33.303-14.91-33.303-33.303z"/><path fill="#000" d="M655.463 87.179v4.86h-2.562V78.771h4.531q1.094 0 1.969.313.875.312 1.484.875.61.562.938 1.344.343.781.343 1.75 0 .89-.343 1.64-.328.75-.938 1.313-.61.547-1.484.86-.875.312-1.969.312h-1.969zm0-2.078h1.969q.547 0 .938-.157.406-.172.671-.453.282-.281.407-.656.14-.375.14-.766 0-.468-.14-.859-.125-.406-.407-.703-.265-.313-.671-.485-.391-.171-.938-.171h-1.969v4.25zm15.633-3.094q.578 0 1.063.078.484.062.797.156l-.375 2.531q-.5-.125-1.032-.171-.515-.063-1-.063-1.062 0-1.703.406-.64.407-.968 1.172v5.922h-2.532v-9.86h2.36l.125 1.61q.593-.828 1.437-1.297.844-.484 1.828-.484zm3.774 5.015q0-1.078.312-1.984.313-.922.907-1.594.593-.687 1.453-1.062.86-.375 1.969-.375 1.125 0 1.984.375.86.375 1.453 1.062.61.672.906 1.594.313.906.313 1.984v.188q0 1.078-.313 2-.297.922-.89 1.594-.594.672-1.469 1.047-.86.375-1.953.375-1.125 0-2-.375-.86-.375-1.453-1.047-.594-.672-.907-1.594-.312-.922-.312-2v-.188zm2.531.188q0 .625.11 1.172.125.531.375.937.265.407.671.641.407.234.985.234.547 0 .937-.234.407-.234.657-.64.25-.407.375-.938.125-.547.125-1.172v-.188q0-.609-.125-1.14-.125-.547-.375-.953-.25-.407-.657-.64-.39-.235-.968-.235-.563 0-.97.234-.39.234-.655.64-.25.407-.375.954-.11.531-.11 1.14v.188zm17.868-.016q0 1.078-.25 2-.25.922-.75 1.594-.485.672-1.203 1.063-.72.375-1.641.375-.797 0-1.406-.266-.594-.281-1.032-.781v4.656h-2.53V82.179h2.327l.094.968q.453-.546 1.078-.843.625-.297 1.453-.297.938 0 1.657.36.718.359 1.203 1.015.5.656.75 1.578t.25 2.047v.187zm-2.532-.187q0-.61-.125-1.156-.109-.547-.359-.938-.234-.406-.61-.625-.374-.234-.906-.234-.671 0-1.093.265-.422.266-.657.735v4.11q.235.468.657.75.422.28 1.11.28.53 0 .905-.234.391-.25.625-.656.235-.407.344-.953.11-.547.11-1.157v-.187zm9.65 5.219q-1.141 0-2.079-.375-.922-.375-1.594-1.016-.656-.64-1.015-1.516-.36-.875-.36-1.859v-.375q0-1.125.36-2.047.359-.937.984-1.61.64-.687 1.516-1.046.875-.375 1.906-.375 1.062 0 1.89.344.844.343 1.422.984.579.64.875 1.547.313.89.313 1.969v1.078h-6.688q.063.5.282.922.234.406.578.718.344.297.781.47.453.155.984.155.375 0 .735-.078.375-.078.703-.219.344-.14.64-.343.297-.219.516-.5l1.266 1.375q-.235.328-.625.656-.375.328-.89.578-.516.25-1.141.406-.625.157-1.36.157zm-.298-8.172q-.422 0-.781.156-.36.14-.625.422-.266.281-.453.672-.188.39-.266.875h4.14v-.203q-.015-.391-.155-.75-.125-.36-.391-.61-.25-.265-.625-.406-.36-.156-.844-.156zm13.79-2.047q.578 0 1.062.078.484.062.797.156l-.375 2.531q-.5-.125-1.031-.171-.516-.063-1-.063-1.063 0-1.703.406-.641.407-.97 1.172v5.922h-2.53v-9.86h2.359l.125 1.61q.594-.828 1.437-1.297.844-.484 1.829-.484zm8.773-2.235v2.407h3.672v1.875h-3.672v4.234q0 .531.11.89.125.36.343.579.235.219.563.312.328.078.719.078.297 0 .593-.015.313-.031.594-.063.281-.047.516-.093.25-.047.422-.094l.234 1.734q-.25.156-.61.281-.359.11-.765.172-.39.078-.828.11-.438.047-.844.047-.812 0-1.484-.204-.656-.218-1.125-.671-.469-.454-.735-1.141-.25-.703-.25-1.672v-4.484h-2.25v-1.875h2.25v-2.407h2.547zm10.743 8.125l.297 1.063 2.625-6.781h2.797l-5.016 11.328q-.156.375-.422.812-.25.438-.64.813-.391.375-.954.625-.562.265-1.328.265-.187 0-.344-.015-.156-.016-.296-.047-.141-.016-.282-.047-.14-.031-.312-.078l.312-1.922h.39q.25.016.392.016.296 0 .53-.188.235-.172.391-.39.172-.22.266-.407.11-.172.14-.172l.61-1.156-4.172-9.437h2.781l2.235 5.718zm18.86-5.718h5.375v7.797h2.672v2.062h-8.047v-2.062h2.812v-5.72h-2.812V82.18zm2.625-2.516q0-.297.109-.547.11-.25.297-.422.187-.187.453-.28.281-.11.61-.11.671 0 1.062.39.39.375.39.97 0 .593-.39.968t-1.063.375q-.328 0-.609-.094-.266-.11-.453-.281-.188-.188-.297-.438-.11-.25-.11-.53zm10.195 2.516l.156 1.375q.532-.75 1.282-1.14.765-.407 1.687-.407.735 0 1.36.219.625.218 1.062.703.453.468.703 1.218.25.75.25 1.829v6.062h-2.531v-6.031q0-.578-.14-.953-.126-.39-.376-.61-.234-.218-.578-.297-.344-.093-.781-.093-.656 0-1.11.265-.453.266-.734.72v7h-2.547v-9.86h2.297zm11.352 9.86v-7.985h-2.594v-1.875h2.594v-.532q0-.984.313-1.718.312-.75.875-1.266.578-.516 1.39-.766.828-.265 1.844-.265.312 0 .61.031.296.016.577.063.282.03.563.078.297.047.61.093l-.173 1.985q-.343-.063-.78-.11-.438-.062-1.032-.062-1.188 0-1.719.5-.531.5-.531 1.437v.532h3.547v1.875h-3.547v7.984h-2.547zm8.399-5.017q0-1.078.312-1.984.313-.922.907-1.594.593-.687 1.453-1.062.859-.375 1.968-.375 1.125 0 1.985.375.86.375 1.453 1.062.61.672.906 1.594.313.906.313 1.984v.188q0 1.078-.313 2-.297.922-.89 1.594-.594.672-1.47 1.047-.859.375-1.952.375-1.125 0-2-.375-.86-.375-1.453-1.047-.594-.672-.907-1.594-.312-.922-.312-2v-.188zm2.531.188q0 .625.11 1.172.124.531.374.937.266.407.672.641.407.234.985.234.547 0 .937-.234.406-.234.656-.64.25-.407.375-.938.125-.547.125-1.172v-.188q0-.609-.125-1.14-.125-.547-.375-.953-.25-.407-.656-.64-.39-.235-.969-.235-.562 0-.968.234-.391.234-.657.64-.25.407-.375.954-.109.531-.109 1.14v.188zm16.086-5.203q.578 0 1.063.078.484.062.797.156l-.375 2.531q-.5-.125-1.032-.171-.515-.063-1-.063-1.062 0-1.703.406-.64.407-.969 1.172v5.922h-2.53v-9.86h2.359l.125 1.61q.593-.828 1.437-1.297.844-.484 1.828-.484zm5.696.172l.078 1.203q.281-.64.765-1 .5-.375 1.22-.375 1.187 0 1.562 1.047.281-.5.734-.766.453-.281 1.094-.281.437 0 .828.172.39.156.672.515.297.36.453.922.156.563.156 1.39v7.032h-2.312v-7.047q0-.281-.063-.453-.047-.187-.156-.281-.094-.11-.234-.156-.125-.047-.266-.047-.266 0-.453.125-.172.125-.266.328v7.531h-2.234v-7.047q0-.281-.063-.469-.047-.187-.14-.28-.094-.095-.235-.141-.125-.047-.265-.047-.297 0-.469.172-.172.156-.281.437v7.375h-2.297v-9.86h2.172zm15.773 9.86q-.093-.188-.156-.423-.062-.234-.11-.5-.202.235-.484.438-.265.187-.609.343-.328.157-.734.235-.39.094-.86.094-.75 0-1.39-.22-.625-.218-1.078-.609-.454-.39-.72-.937-.25-.547-.25-1.188 0-1.546 1.157-2.39 1.172-.86 3.469-.86h1.422v-.593q0-.703-.469-1.11-.469-.422-1.344-.422-.765 0-1.125.329-.36.328-.36.89h-2.53q0-.625.28-1.187.282-.578.813-1 .532-.422 1.297-.672.766-.25 1.766-.25.89 0 1.656.219.781.218 1.344.64.562.422.875 1.078.328.657.328 1.5v4.235q0 .797.094 1.312.093.516.297.89v.157h-2.579zm-2.406-1.782q.375 0 .703-.078.328-.094.594-.235.266-.156.453-.343.203-.188.313-.375v-1.704h-1.297q-.594 0-1.016.125-.422.11-.687.313-.266.203-.39.5-.126.281-.126.625 0 .5.36.844.359.328 1.093.328zm12.102-10.485v2.407h3.672v1.875h-3.672v4.234q0 .531.11.89.124.36.343.579.235.219.563.312.328.078.718.078.297 0 .594-.015.313-.031.594-.063.281-.047.516-.093.25-.047.421-.094l.235 1.734q-.25.156-.61.281-.359.11-.765.172-.39.078-.828.11-.438.047-.844.047-.813 0-1.484-.204-.657-.218-1.125-.671-.47-.454-.735-1.141-.25-.703-.25-1.672v-4.484h-2.25v-1.875h2.25v-2.407h2.547zm7.211 2.407h5.375v7.797h2.672v2.062h-8.047v-2.062h2.813v-5.72h-2.813V82.18zm2.625-2.516q0-.297.11-.547.109-.25.296-.422.188-.187.454-.28.28-.11.609-.11.672 0 1.062.39.391.375.391.97 0 .593-.39.968-.391.375-1.063.375-.328 0-.61-.094-.265-.11-.453-.281-.187-.188-.296-.438-.11-.25-.11-.53zm7.555 7.36q0-1.079.313-1.985.312-.922.906-1.594.594-.687 1.453-1.062.86-.375 1.969-.375 1.125 0 1.984.375.86.375 1.453 1.062.61.672.907 1.594.312.906.312 1.984v.188q0 1.078-.312 2-.297.922-.891 1.594-.594.672-1.469 1.047-.86.375-1.953.375-1.125 0-2-.375-.86-.375-1.453-1.047-.594-.672-.906-1.594-.313-.922-.313-2v-.188zm2.531.187q0 .625.11 1.172.125.531.375.937.265.407.672.641.406.234.984.234.547 0 .938-.234.406-.234.656-.64.25-.407.375-.938.125-.547.125-1.172v-.188q0-.609-.125-1.14-.125-.547-.375-.953-.25-.407-.656-.64-.391-.235-.97-.235-.562 0-.968.234-.39.234-.656.64-.25.407-.375.954-.11.531-.11 1.14v.188zm11.305-5.031l.157 1.375q.53-.75 1.28-1.14.767-.407 1.688-.407.735 0 1.36.219.625.218 1.062.703.453.468.703 1.218.25.75.25 1.829v6.062h-2.53v-6.031q0-.578-.141-.953-.125-.39-.375-.61-.235-.218-.579-.297-.343-.093-.78-.093-.657 0-1.11.265-.453.266-.735.72v7h-2.546v-9.86h2.296z"/><path fill="#673ab7" d="M661.76 138.179q-.015.703-.14 1.437-.11.719-.344 1.39-.235.673-.61 1.266-.359.579-.875 1.016-.5.438-1.171.688-.657.25-1.47.25-.827 0-1.484-.25-.656-.25-1.171-.688-.516-.437-.891-1.031-.375-.594-.61-1.266-.234-.672-.359-1.39-.125-.72-.125-1.422v-1.516q0-.719.11-1.437.125-.72.359-1.391.25-.688.61-1.266.374-.593.874-1.03.516-.438 1.172-.688.672-.266 1.485-.266.828 0 1.484.266.672.25 1.172.687.515.438.875 1.031.375.578.61 1.25.25.672.359 1.407.125.718.14 1.437v1.516zm-1.672-1.532q-.015-.484-.078-1-.047-.515-.187-1.015-.125-.5-.344-.953-.219-.469-.547-.813-.328-.36-.781-.562-.438-.203-1.031-.203-.579 0-1.032.203-.437.203-.765.562-.328.344-.547.813-.219.453-.36.968-.125.5-.187 1.016-.063.516-.063.984v1.532q0 .453.063.984.062.516.203 1.016.14.5.36.968.218.47.546.829.328.343.766.562.453.203 1.047.203.578 0 1.031-.203.453-.219.781-.562.328-.36.532-.813.218-.469.343-.969.14-.515.188-1.03.047-.517.062-.985v-1.532zm6.743 7.391v-8.547h-2.703v-1.312h2.703v-.688q0-.953.28-1.656.282-.719.782-1.203.516-.485 1.219-.735.719-.25 1.594-.25.593 0 1.156.11.578.094 1.172.25l-.188 1.39q-.375-.125-.875-.218-.5-.094-1.062-.094-1.188.016-1.781.61-.594.577-.594 1.796v.688h3.797v1.312h-3.797v8.547h-1.703zm11.204 0v-8.547h-2.703v-1.312h2.703v-.688q0-.953.282-1.656.28-.719.78-1.203.517-.485 1.22-.735.718-.25 1.593-.25.594 0 1.157.11.578.094 1.172.25l-.188 1.39q-.375-.125-.875-.218-.5-.094-1.062-.094-1.188.016-1.782.61-.593.577-.593 1.796v.688h3.796v1.312h-3.796v8.547h-1.704zm15.252-2.61q0-.312-.125-.546-.125-.235-.406-.438-.282-.203-.75-.375-.453-.172-1.141-.297-.86-.187-1.562-.421-.688-.25-1.188-.594-.484-.344-.766-.797-.265-.469-.265-1.078 0-.594.281-1.11.281-.53.781-.921.516-.391 1.219-.61.703-.234 1.563-.234.906 0 1.625.234.734.235 1.25.656.515.407.78.97.282.562.282 1.218h-1.687q0-.328-.172-.625-.157-.313-.453-.547-.282-.234-.704-.375-.406-.156-.921-.156-.547 0-.954.125-.406.11-.671.312-.266.203-.407.47-.14.265-.14.546t.109.516q.11.234.375.421.281.172.734.329.454.14 1.141.265.906.203 1.625.453t1.203.61q.5.343.75.812.266.453.266 1.063 0 .656-.297 1.203-.281.531-.813.922-.53.375-1.265.593-.735.204-1.61.204-1.015 0-1.796-.266-.782-.281-1.329-.719-.53-.437-.828-1.015-.281-.594-.281-1.22h1.688q.03.516.265.876.25.36.61.578.359.219.796.312.438.079.875.079 1.063 0 1.672-.391.625-.39.64-1.031zm8.992 2.798q-1.03 0-1.906-.36-.875-.36-1.5-.984-.61-.64-.953-1.516-.344-.875-.344-1.906v-.39q0-1.188.375-2.126.39-.953 1.016-1.593.64-.657 1.437-1 .813-.344 1.657-.344 1.062 0 1.859.375.797.36 1.328 1.015.531.641.781 1.532.266.875.266 1.906v.75h-7.031q.015.687.25 1.281.234.578.64 1.031.407.438.97.704.562.25 1.25.25.905 0 1.593-.36.703-.375 1.172-.969l1.031.797q-.25.375-.625.72-.36.327-.844.593-.484.265-1.094.422-.609.172-1.328.172zm-.218-8.844q-.516 0-.97.187-.452.188-.812.547-.359.36-.625.89-.25.516-.343 1.204h5.296v-.125q-.015-.5-.187-.984-.156-.485-.469-.86-.297-.39-.765-.625-.47-.234-1.125-.234zm11.055-3.594v2.39h3.75v1.313h-3.75v5.344q0 .578.14.953t.39.594q.266.219.595.312.343.094.718.094.266 0 .547-.031.297-.031.578-.078.282-.047.516-.094.25-.047.406-.094l.235 1.203q-.22.125-.516.22-.297.093-.656.155-.344.078-.75.11-.39.047-.782.047-.656 0-1.234-.188-.562-.187-.984-.594-.422-.406-.672-1.047-.235-.64-.235-1.562v-5.344h-2.578v-1.312h2.578v-2.39h1.704z"/><path fill="#e67c73" d="M723.249 142.944q0-.265.078-.5.094-.25.25-.422.172-.187.422-.28.25-.095.578-.095.328 0 .578.094.25.094.406.281.172.172.25.422.094.235.094.5 0 .266-.094.5-.078.235-.25.407-.156.171-.406.265t-.578.094q-.328 0-.578-.094-.25-.094-.422-.265-.156-.172-.25-.407-.078-.234-.078-.5zm0-8q0-.265.078-.5.094-.25.25-.422.172-.187.422-.28.25-.095.578-.095.328 0 .578.094.25.094.406.281.172.172.25.422.094.235.094.5 0 .266-.094.5-.078.235-.25.407-.156.171-.406.265t-.578.094q-.328 0-.578-.094-.25-.094-.422-.265-.156-.172-.25-.407-.078-.234-.078-.5z"/><path fill="#db4437" d="M751.03 138.96q0 1.266-.296 2.25-.282.984-.829 1.656-.546.656-1.343 1.016-.782.344-1.813.344-1 0-1.797-.344-.797-.36-1.36-1.016-.562-.672-.858-1.656-.282-.984-.282-2.25v-3.11q0-1.265.282-2.234.296-.984.843-1.656.547-.672 1.344-1.016.797-.359 1.813-.359 1.015 0 1.812.36.797.343 1.344 1.015.562.672.844 1.656.296.969.296 2.235v3.109zm-6.89-.328l5.172-3.969q-.157-1.312-.782-2-.625-.687-1.796-.687-1.329 0-1.97.89-.624.89-.624 2.625v3.14zm5.203-2.36l-5.156 3.954q.156 1.28.78 1.953.642.672 1.782.672 1.344 0 1.969-.907.625-.906.625-2.625v-3.047z"/><path fill="#e67c73" d="M659.026 156.257h-2.016v15.234h2.016v1.39h-3.61v-18h3.61v1.376zm11.195 0h-2.015v15.234h2.015v1.39h-3.61v-18h3.61v1.376z"/><path fill="#673ab7" d="M682.089 166.444l1.015-9.672h1.594l-1.61 13.266h-1.718l-1.703-10-1.719 10h-1.734l-1.61-13.266h1.594l1.016 9.672 1.703-9.672h1.469l1.703 9.672zm11.086-6.437q.234 0 .484.015.266 0 .485.032.234.031.422.078.203.047.343.11l-.234 1.64q-.484-.11-.938-.156-.437-.047-.921-.047-1.188 0-1.922.547-.735.53-1.078 1.484v6.328h-1.688v-9.86h1.594l.094 1.563q.593-.797 1.437-1.265.844-.47 1.922-.47zm4.992.172h5.047v8.406h3.219v1.453h-8.266v-1.453h3.36v-6.938h-3.36v-1.468zm3.141-2.578q0-.422.25-.704.25-.296.766-.296.5 0 .75.296.25.282.25.704 0 .406-.25.687-.25.266-.75.266-.516 0-.766-.266-.25-.281-.25-.687zm11.79.187v2.39h3.75v1.313h-3.75v5.344q0 .578.14.953t.39.594q.266.219.594.312.344.094.72.094.265 0 .546-.031.297-.031.578-.078.281-.047.516-.094.25-.047.406-.094l.234 1.203q-.218.125-.515.22-.297.093-.657.155-.343.078-.75.11-.39.047-.78.047-.657 0-1.235-.188-.563-.187-.985-.594-.421-.406-.671-1.047-.235-.64-.235-1.562v-5.344h-2.578v-1.312h2.578v-2.39h1.703zm13.68 12.25q-.094-.187-.157-.469-.062-.297-.094-.609-.25.266-.562.5-.313.219-.703.39-.375.172-.813.266-.422.11-.89.11-.797 0-1.438-.22-.625-.234-1.062-.624-.438-.39-.688-.922-.234-.531-.234-1.156 0-.813.312-1.422.328-.61.922-1.016.594-.406 1.422-.594.844-.203 1.875-.203h1.828v-.78q0-.454-.172-.798-.156-.36-.453-.61-.297-.25-.734-.39-.422-.14-.97-.14-.5 0-.905.14-.391.125-.672.344-.266.203-.422.484-.14.282-.14.594h-1.688q0-.531.265-1.047.282-.531.782-.937.5-.422 1.218-.672.735-.25 1.657-.25.843 0 1.562.203.719.203 1.235.625.53.406.828 1.031.297.61.297 1.438v4.578q0 .5.093 1.047.094.547.25.968v.141h-1.75zm-2.985-1.281q.5 0 .922-.125.437-.14.781-.344.344-.203.594-.469.265-.28.406-.562v-2h-1.562q-1.47 0-2.297.437-.813.438-.813 1.375 0 .36.125.672.125.313.36.531.25.22.625.36.375.125.859.125zm16.055-3.531q0 1.046-.266 1.968-.25.907-.75 1.594-.484.672-1.203 1.063-.719.375-1.656.375-.953 0-1.656-.329-.688-.343-1.188-.984l-.078 1.125h-1.547v-14h1.688v5.203q.484-.61 1.156-.922.687-.312 1.61-.312.937 0 1.656.375.734.36 1.218 1.031.5.656.75 1.594.266.922.266 2.015v.204zm-1.688-.204q0-.718-.14-1.359-.14-.656-.453-1.156-.313-.5-.813-.781-.5-.297-1.219-.297-.437 0-.812.125-.36.11-.656.312-.282.203-.5.485-.22.265-.375.593v4.313q.156.328.375.61.234.28.515.5.297.202.657.312.375.11.812.11.688 0 1.188-.282.5-.297.812-.781.313-.5.453-1.141.156-.64.156-1.36v-.203zm4.79-8.984h5.047v12.547h3.218v1.453h-8.265v-1.453h3.36v-11.078h-3.36v-1.469zm15.289 14.188q-1.031 0-1.906-.36t-1.5-.984q-.61-.64-.953-1.516-.344-.875-.344-1.906v-.39q0-1.188.375-2.126.39-.953 1.016-1.593.64-.657 1.437-1 .813-.344 1.656-.344 1.063 0 1.86.375.797.36 1.328 1.015.531.641.781 1.532.266.875.266 1.906v.75h-7.032q.016.687.25 1.281.235.578.641 1.031.406.438.969.704.562.25 1.25.25.906 0 1.594-.36.703-.375 1.171-.969l1.032.797q-.25.375-.625.72-.36.327-.844.593-.484.265-1.094.422-.61.172-1.328.172zm-.219-8.844q-.515 0-.968.187-.454.188-.813.547-.36.36-.625.89-.25.516-.344 1.204h5.297v-.125q-.015-.5-.187-.984-.157-.485-.47-.86-.296-.39-.765-.625-.468-.234-1.125-.234z"/><path fill="#e67c73" d="M767.185 154.882h3.625v18h-3.625v-1.39h2.03v-15.235h-2.03v-1.375zm11.195 0h3.625v18h-3.625v-1.39h2.031v-15.235h-2.03v-1.375zm12.024 14.062q0-.265.078-.5.094-.25.25-.422.172-.187.422-.28.25-.095.578-.095.328 0 .578.094.25.094.406.281.172.172.25.422.094.235.094.5 0 .266-.094.5-.078.235-.25.407-.156.171-.406.265t-.578.094q-.328 0-.578-.094-.25-.094-.422-.265-.156-.172-.25-.407-.078-.234-.078-.5zm0-8q0-.265.078-.5.094-.25.25-.422.172-.187.422-.28.25-.095.578-.095.328 0 .578.094.25.094.406.281.172.172.25.422.094.235.094.5 0 .266-.094.5-.078.235-.25.407-.156.171-.406.265t-.578.094q-.328 0-.578-.094-.25-.094-.422-.265-.156-.172-.25-.407-.078-.234-.078-.5z"/><path fill="#4285f4" d="M813.857 157.788v2.39h3.75v1.313h-3.75v5.344q0 .578.141.953.14.375.39.594.266.219.594.312.344.094.72.094.265 0 .546-.031.297-.031.578-.078.281-.047.516-.094.25-.047.406-.094l.234 1.203q-.218.125-.515.22-.297.093-.656.155-.344.078-.75.11-.391.047-.782.047-.656 0-1.234-.188-.563-.187-.984-.594-.422-.406-.672-1.047-.235-.64-.235-1.562v-5.344h-2.578v-1.312h2.578v-2.39h1.703zm13.665 2.219q.234 0 .484.015.266 0 .485.032.234.031.421.078.204.047.344.11l-.234 1.64q-.485-.11-.938-.156-.437-.047-.922-.047-1.187 0-1.921.547-.735.53-1.079 1.484v6.328h-1.687v-9.86h1.594l.093 1.563q.594-.797 1.438-1.265.844-.47 1.922-.47zm11.133 8.672q-.5.734-1.234 1.14-.735.407-1.704.407-.78 0-1.406-.235-.625-.25-1.078-.765-.437-.516-.687-1.297-.235-.782-.235-1.89v-5.86H834v5.875q0 .812.125 1.343.125.516.375.829.265.312.625.453.375.125.859.125 1.031 0 1.656-.422.64-.422.953-1.125v-7.078h1.688v9.86h-1.531l-.094-1.36zm9.149 1.547q-1.032 0-1.907-.36t-1.5-.984q-.609-.64-.953-1.516-.344-.875-.344-1.906v-.39q0-1.188.375-2.126.391-.953 1.016-1.593.64-.657 1.438-1 .812-.344 1.656-.344 1.062 0 1.86.375.796.36 1.327 1.015.532.641.782 1.532.265.875.265 1.906v.75h-7.031q.016.687.25 1.281.234.578.64 1.031.407.438.97.704.562.25 1.25.25.906 0 1.593-.36.703-.375 1.172-.969l1.031.797q-.25.375-.625.72-.36.327-.844.593-.484.265-1.093.422-.61.172-1.328.172zm-.22-8.844q-.515 0-.968.187-.453.188-.812.547-.36.36-.625.89-.25.516-.344 1.204h5.297v-.125q-.016-.5-.188-.984-.156-.485-.469-.86-.296-.39-.765-.625-.469-.234-1.125-.234z"/><path fill="#e67c73" d="M659.026 182.257h-2.016v15.234h2.016v1.39h-3.61v-18h3.61v1.376zm11.195 0h-2.015v15.234h2.015v1.39h-3.61v-18h3.61v1.376z"/><path fill="#673ab7" d="M682.808 189.913h-5.532v4.688h6.453v1.437h-8.14v-13.266h8.062v1.438h-6.375v4.266h5.532v1.437zm5.414-3.734l.125 1.453q.531-.766 1.312-1.188.782-.437 1.75-.437.782 0 1.407.219.64.218 1.078.687.453.453.687 1.172.25.719.25 1.687v6.266h-1.687v-6.219q0-.656-.157-1.109-.14-.453-.421-.734-.282-.297-.704-.422-.406-.125-.953-.125-.843 0-1.484.422-.64.421-1.031 1.125v7.062h-1.688v-9.86h1.516zm16.086 8.5q-.5.734-1.234 1.14-.735.407-1.703.407-.782 0-1.407-.235-.625-.25-1.078-.765-.437-.516-.687-1.297-.235-.782-.235-1.89v-5.86h1.688v5.875q0 .812.125 1.343.125.516.375.829.265.312.625.453.375.125.86.125 1.03 0 1.655-.422.641-.422.954-1.125v-7.078h1.687v9.86h-1.531l-.094-1.36zm5.57-8.5l.047.937q.297-.531.782-.812.5-.297 1.187-.297 1.36 0 1.813 1.047.297-.469.765-.75.485-.297 1.157-.297 1.093 0 1.671.672.579.656.579 2v7.36h-1.594v-7.376q0-1.25-1.14-1.234-.298 0-.516.093-.22.079-.375.22-.141.14-.22.327-.077.188-.109.375v7.594h-1.609v-7.39q0-.594-.266-.907-.265-.328-.828-.312-.53 0-.828.218-.281.204-.422.547v7.844h-1.609v-9.86h1.516zm14.774 10.047q-1.031 0-1.906-.36t-1.5-.984q-.61-.64-.953-1.516-.344-.875-.344-1.906v-.39q0-1.188.375-2.126.39-.953 1.016-1.593.64-.657 1.437-1 .813-.344 1.657-.344 1.062 0 1.859.375.797.36 1.328 1.015.531.641.781 1.532.266.875.266 1.906v.75h-7.031q.015.687.25 1.281.234.578.64 1.031.407.438.969.704.563.25 1.25.25.906 0 1.594-.36.703-.375 1.172-.969l1.03.797q-.25.375-.624.72-.36.327-.844.593-.484.265-1.094.422-.609.172-1.328.172zm-.218-8.844q-.516 0-.97.187-.452.188-.812.547-.36.36-.625.89-.25.516-.343 1.204h5.296v-.125q-.015-.5-.187-.984-.156-.485-.469-.86-.297-.39-.765-.625-.47-.234-1.125-.234zm13.523-1.375q.235 0 .485.015.265 0 .484.032.234.031.422.078.203.047.344.11l-.235 1.64q-.484-.11-.937-.156-.438-.047-.922-.047-1.188 0-1.922.547-.734.53-1.078 1.484v6.328h-1.688v-9.86h1.594l.094 1.563q.594-.797 1.437-1.265.844-.47 1.922-.47zm11.211 10.031q-.093-.187-.156-.469-.062-.297-.094-.609-.25.266-.562.5-.313.219-.703.39-.375.172-.813.266-.422.11-.89.11-.797 0-1.438-.22-.625-.234-1.062-.624-.438-.39-.688-.922-.234-.531-.234-1.156 0-.813.312-1.422.328-.61.922-1.016.594-.406 1.422-.594.844-.203 1.875-.203h1.828v-.78q0-.454-.172-.798-.156-.36-.453-.61-.297-.25-.734-.39-.422-.14-.969-.14-.5 0-.906.14-.39.125-.672.344-.266.203-.422.484-.14.282-.14.594h-1.688q0-.531.266-1.047.28-.531.78-.937.5-.422 1.22-.672.734-.25 1.656-.25.844 0 1.562.203.72.203 1.235.625.531.406.828 1.031.297.61.297 1.438v4.578q0 .5.093 1.047.094.547.25.968v.141h-1.75zm-2.984-1.281q.5 0 .922-.125.437-.14.781-.344.344-.203.594-.469.266-.28.406-.562v-2h-1.562q-1.469 0-2.297.437-.813.438-.813 1.375 0 .36.125.672.125.313.36.531.25.22.625.36.375.125.86.125zm16.055-3.531q0 1.046-.266 1.968-.25.907-.75 1.594-.484.672-1.203 1.063-.718.375-1.656.375-.953 0-1.656-.329-.688-.343-1.188-.984l-.078 1.125h-1.547v-14h1.688v5.203q.484-.61 1.156-.922.688-.312 1.61-.312.937 0 1.656.375.734.36 1.218 1.031.5.656.75 1.594.266.922.266 2.015v.204zm-1.687-.204q0-.718-.141-1.359-.14-.656-.453-1.156-.313-.5-.813-.781-.5-.297-1.218-.297-.438 0-.813.125-.36.11-.656.312-.281.203-.5.485-.219.265-.375.593v4.313q.156.328.375.61.234.28.515.5.297.202.657.312.375.11.812.11.688 0 1.188-.282.5-.297.812-.781.313-.5.453-1.141.157-.64.157-1.36v-.203zm4.789-8.984h5.047v12.547h3.218v1.453h-8.265v-1.453h3.36v-11.078h-3.36v-1.469zm15.29 14.188q-1.032 0-1.907-.36t-1.5-.984q-.61-.64-.953-1.516-.344-.875-.344-1.906v-.39q0-1.188.375-2.126.39-.953 1.016-1.593.64-.657 1.437-1 .813-.344 1.656-.344 1.063 0 1.86.375.797.36 1.328 1.015.531.641.781 1.532.266.875.266 1.906v.75h-7.031q.015.687.25 1.281.234.578.64 1.031.406.438.969.704.562.25 1.25.25.906 0 1.594-.36.703-.375 1.172-.969l1.03.797q-.25.375-.624.72-.36.327-.844.593-.484.265-1.094.422-.61.172-1.328.172zm-.22-8.844q-.515 0-.968.187-.453.188-.813.547-.36.36-.625.89-.25.516-.344 1.204h5.297v-.125q-.015-.5-.187-.984-.156-.485-.469-.86-.297-.39-.766-.625-.468-.234-1.125-.234z"/><path fill="#e67c73" d="M789.576 180.882h3.625v18h-3.625v-1.39h2.031v-15.235h-2.031v-1.375zm11.195 0h3.625v18h-3.625v-1.39h2.032v-15.235h-2.032v-1.375zm12.024 14.062q0-.265.078-.5.094-.25.25-.422.172-.187.422-.28.25-.095.578-.095.328 0 .578.094.25.094.406.281.172.172.25.422.094.235.094.5 0 .266-.094.5-.078.235-.25.407-.156.171-.406.265t-.578.094q-.328 0-.578-.094-.25-.094-.422-.265-.156-.172-.25-.407-.078-.234-.078-.5zm0-8q0-.265.078-.5.094-.25.25-.422.172-.187.422-.28.25-.095.578-.095.328 0 .578.094.25.094.406.281.172.172.25.422.094.235.094.5 0 .266-.094.5-.078.235-.25.407-.156.171-.406.265t-.578.094q-.328 0-.578-.094-.25-.094-.422-.265-.156-.172-.25-.407-.078-.234-.078-.5z"/><path fill="#4285f4" d="M836.249 183.788v2.39h3.75v1.313h-3.75v5.344q0 .578.14.953t.39.594q.267.219.595.312.343.094.718.094.266 0 .547-.031.297-.031.578-.078.282-.047.516-.094.25-.047.406-.094l.235 1.203q-.22.125-.516.22-.297.093-.656.155-.344.078-.75.11-.39.047-.781.047-.657 0-1.235-.188-.562-.187-.984-.594-.422-.406-.672-1.047-.234-.64-.234-1.562v-5.344h-2.579v-1.312h2.579v-2.39h1.703zm13.664 2.219q.234 0 .484.015.266 0 .485.032.234.031.422.078.203.047.343.11l-.234 1.64q-.484-.11-.938-.156-.437-.047-.921-.047-1.188 0-1.922.547-.735.53-1.078 1.484v6.328h-1.688v-9.86h1.594l.094 1.563q.593-.797 1.437-1.265.844-.47 1.922-.47zm11.133 8.672q-.5.734-1.234 1.14-.735.407-1.703.407-.782 0-1.407-.235-.625-.25-1.078-.765-.437-.516-.687-1.297-.235-.782-.235-1.89v-5.86h1.688v5.875q0 .812.125 1.343.125.516.375.829.265.312.625.453.375.125.86.125 1.03 0 1.655-.422.641-.422.954-1.125v-7.078h1.687v9.86h-1.531l-.094-1.36zm9.149 1.547q-1.031 0-1.906-.36t-1.5-.984q-.61-.64-.954-1.516-.343-.875-.343-1.906v-.39q0-1.188.375-2.126.39-.953 1.015-1.593.64-.657 1.438-1 .812-.344 1.656-.344 1.063 0 1.86.375.796.36 1.328 1.015.53.641.78 1.532.266.875.266 1.906v.75h-7.03q.015.687.25 1.281.234.578.64 1.031.406.438.969.704.562.25 1.25.25.906 0 1.593-.36.703-.375 1.172-.969l1.031.797q-.25.375-.625.72-.359.327-.843.593-.485.265-1.094.422-.61.172-1.328.172zm-.219-8.844q-.516 0-.969.187-.453.188-.812.547-.36.36-.625.89-.25.516-.344 1.204h5.297v-.125q-.016-.5-.188-.984-.156-.485-.468-.86-.297-.39-.766-.625-.469-.234-1.125-.234z"/><path fill="#e67c73" d="M659.026 208.257h-2.016v15.234h2.016v1.39h-3.61v-18h3.61v1.376zm11.195 0h-2.015v15.234h2.015v1.39h-3.61v-18h3.61v1.376z"/><path fill="#673ab7" d="M684.104 218.054q-.109.922-.468 1.687-.36.766-.938 1.328-.562.547-1.344.86-.765.297-1.734.297-.812 0-1.484-.235-.672-.234-1.203-.64-.516-.422-.891-.97-.375-.562-.625-1.218-.25-.656-.375-1.375t-.14-1.453v-1.844q.015-.75.14-1.469.125-.718.375-1.375.25-.656.625-1.203.375-.562.89-.968.532-.422 1.188-.657.672-.234 1.5-.234 1 0 1.781.312.782.313 1.344.875.563.547.906 1.344.344.781.453 1.719h-1.687q-.078-.594-.281-1.11-.203-.53-.547-.921-.328-.39-.813-.61-.484-.218-1.156-.218-.594 0-1.062.203-.454.187-.797.531-.328.328-.547.781-.219.438-.36.938-.14.5-.203 1.031-.047.516-.047 1.016v1.859q0 .5.047 1.031.063.516.203 1.016.141.5.36.953.219.437.547.781.343.344.797.547.453.188 1.062.188.672 0 1.156-.204.485-.218.813-.593.344-.375.547-.89.203-.517.28-1.11h1.688zm2.134-1.032q0-1.062.312-1.984.313-.922.89-1.594.579-.672 1.407-1.047.828-.39 1.86-.39 1.046 0 1.874.39.844.375 1.422 1.047.578.672.89 1.594.313.922.313 1.984v.204q0 1.062-.312 1.968-.313.907-.89 1.594-.579.672-1.407 1.063-.828.375-1.86.375-1.046 0-1.89-.375-.828-.391-1.406-1.063-.578-.687-.891-1.594-.312-.906-.312-1.968v-.204zm1.687.204q0 .718.172 1.39.172.656.516 1.156.359.5.89.797.531.282 1.235.282.687 0 1.203-.282.53-.297.875-.797.359-.5.53-1.156.173-.672.173-1.39v-.204q0-.718-.188-1.375-.172-.671-.531-1.171-.344-.5-.875-.797-.516-.297-1.219-.297-.703 0-1.218.297-.516.297-.875.797-.344.5-.516 1.171-.172.657-.172 1.375v.204zm11.492-5.047l.125 1.453q.532-.766 1.313-1.188.781-.437 1.75-.437.781 0 1.406.219.64.218 1.078.687.453.453.688 1.172.25.719.25 1.687v6.266h-1.688v-6.219q0-.656-.156-1.109-.14-.453-.422-.734-.281-.297-.703-.422-.406-.125-.953-.125-.844 0-1.484.422-.641.421-1.032 1.125v7.062h-1.687v-9.86h1.515zm12.196 9.86v-8.548h-2.703v-1.312h2.703v-.688q0-.953.281-1.656.282-.719.782-1.203.515-.485 1.218-.735.719-.25 1.594-.25.594 0 1.156.11.578.094 1.172.25l-.187 1.39q-.375-.125-.875-.218-.5-.094-1.063-.094-1.187.016-1.781.61-.594.577-.594 1.796v.688h3.797v1.312h-3.797v8.547h-1.703zm8.955-9.86h5.047v8.406h3.218v1.453h-8.265v-1.453h3.36v-6.938h-3.36v-1.468zm3.14-2.578q0-.422.25-.704.25-.296.766-.296.5 0 .75.296.25.282.25.704 0 .406-.25.687-.25.266-.75.266-.516 0-.766-.266-.25-.281-.25-.687zm7.493 7.421q0-1.093.265-2.015.266-.938.766-1.594.516-.672 1.25-1.031.734-.375 1.64-.375.923 0 1.61.328.688.312 1.172.922l.078-1.078h1.531v9.656q0 .969-.312 1.719-.297.765-.86 1.281-.546.531-1.312.797-.766.281-1.688.281-.39 0-.89-.094-.485-.078-.985-.28-.5-.188-.968-.517-.47-.328-.813-.812l.875-1q.313.375.64.625.329.266.657.422.344.156.672.219.344.062.687.062.594 0 1.079-.172.484-.172.828-.5.343-.328.515-.828.188-.484.188-1.125v-.844q-.485.563-1.156.86-.672.297-1.563.297-.89 0-1.625-.375-.734-.391-1.234-1.063-.5-.687-.782-1.594-.265-.922-.265-1.968v-.204zm1.672.204q0 .718.156 1.359.156.64.469 1.14.328.485.828.782.5.281 1.203.281.437 0 .781-.094.36-.109.64-.297.282-.203.5-.468.22-.266.376-.578v-4.516q-.156-.313-.375-.563-.219-.265-.516-.453-.281-.187-.625-.28-.344-.11-.765-.11-.704 0-1.22.297-.5.28-.827.78-.313.5-.47 1.157-.155.64-.155 1.36v.203zm16.226 3.453q-.5.734-1.234 1.14-.734.407-1.703.407-.781 0-1.406-.235-.625-.25-1.078-.765-.438-.516-.688-1.297-.234-.782-.234-1.89v-5.86h1.687v5.875q0 .812.125 1.343.125.516.375.829.266.312.625.453.375.125.86.125 1.03 0 1.656-.422.64-.422.953-1.125v-7.078h1.687v9.86h-1.53l-.095-1.36zm11.259-8.672q.234 0 .484.015.266 0 .484.032.235.031.422.078.203.047.344.11l-.234 1.64q-.485-.11-.938-.156-.437-.047-.922-.047-1.187 0-1.922.547-.734.53-1.078 1.484v6.328h-1.687v-9.86h1.593l.094 1.563q.594-.797 1.438-1.265.843-.47 1.922-.47zm11.21 10.031q-.093-.187-.155-.469-.063-.297-.094-.609-.25.266-.563.5-.312.219-.703.39-.375.172-.812.266-.422.11-.891.11-.797 0-1.437-.22-.625-.234-1.063-.624-.437-.39-.687-.922-.235-.531-.235-1.156 0-.813.313-1.422.328-.61.922-1.016.593-.406 1.421-.594.844-.203 1.875-.203h1.829v-.78q0-.454-.172-.798-.157-.36-.453-.61-.297-.25-.735-.39-.422-.14-.969-.14-.5 0-.906.14-.39.125-.672.344-.265.203-.422.484-.14.282-.14.594h-1.688q0-.531.266-1.047.281-.531.781-.937.5-.422 1.219-.672.734-.25 1.656-.25.844 0 1.563.203.718.203 1.234.625.531.406.828 1.031.297.61.297 1.438v4.578q0 .5.094 1.047.094.547.25.968v.141h-1.75zm-2.984-1.281q.5 0 .922-.125.438-.14.782-.344.343-.203.593-.469.266-.28.407-.562v-2h-1.563q-1.469 0-2.297.437-.812.438-.812 1.375 0 .36.125.672.125.313.359.531.25.22.625.36.375.125.86.125zm16.055-3.531q0 1.046-.265 1.968-.25.907-.75 1.594-.485.672-1.203 1.063-.72.375-1.657.375-.953 0-1.656-.329-.687-.343-1.187-.984l-.079 1.125h-1.546v-14h1.687v5.203q.484-.61 1.156-.922.688-.312 1.61-.312.937 0 1.656.375.734.36 1.219 1.031.5.656.75 1.594.265.922.265 2.015v.204zm-1.687-.204q0-.718-.14-1.359-.141-.656-.454-1.156-.312-.5-.812-.781-.5-.297-1.22-.297-.437 0-.812.125-.36.11-.656.312-.281.203-.5.485-.219.265-.375.593v4.313q.156.328.375.61.234.28.516.5.297.202.656.312.375.11.812.11.688 0 1.188-.282.5-.297.812-.781.313-.5.454-1.141.156-.64.156-1.36v-.203zm4.79-8.984h5.046v12.547h3.219v1.453h-8.266v-1.453h3.36v-11.078h-3.36v-1.469zm15.288 14.188q-1.03 0-1.906-.36-.875-.36-1.5-.984-.61-.64-.953-1.516-.344-.875-.344-1.906v-.39q0-1.188.375-2.126.39-.953 1.016-1.593.64-.657 1.437-1 .813-.344 1.657-.344 1.062 0 1.86.375.796.36 1.327 1.015.531.641.781 1.532.266.875.266 1.906v.75h-7.031q.015.687.25 1.281.234.578.64 1.031.407.438.97.704.562.25 1.25.25.905 0 1.593-.36.703-.375 1.172-.969l1.031.797q-.25.375-.625.72-.36.327-.844.593-.484.265-1.093.422-.61.172-1.329.172zm-.218-8.844q-.516 0-.97.187-.452.188-.812.547-.359.36-.625.89-.25.516-.343 1.204h5.297v-.125q-.016-.5-.188-.984-.156-.485-.469-.86-.297-.39-.765-.625-.47-.234-1.125-.234z"/><path fill="#e67c73" d="M811.976 206.882h3.625v18h-3.625v-1.39h2.031v-15.235h-2.031v-1.375zm11.196 0h3.625v18h-3.625v-1.39h2.03v-15.235h-2.03v-1.375zm12.023 14.062q0-.265.078-.5.094-.25.25-.422.172-.187.422-.28.25-.095.578-.095.328 0 .578.094.25.094.407.281.172.172.25.422.093.235.093.5 0 .266-.093.5-.078.235-.25.407-.157.171-.407.265-.25.094-.578.094-.328 0-.578-.094-.25-.094-.422-.265-.156-.172-.25-.407-.078-.234-.078-.5zm0-8q0-.265.078-.5.094-.25.25-.422.172-.187.422-.28.25-.095.578-.095.328 0 .578.094.25.094.407.281.172.172.25.422.093.235.093.5 0 .266-.093.5-.078.235-.25.407-.157.171-.407.265-.25.094-.578.094-.328 0-.578-.094-.25-.094-.422-.265-.156-.172-.25-.407-.078-.234-.078-.5z"/><path fill="#4285f4" d="M858.649 209.788v2.39h3.75v1.313h-3.75v5.344q0 .578.14.953.141.375.391.594.266.219.594.312.344.094.719.094.265 0 .547-.031.296-.031.578-.078.28-.047.515-.094.25-.047.407-.094l.234 1.203q-.219.125-.516.22-.297.093-.656.155-.344.078-.75.11-.39.047-.781.047-.656 0-1.235-.188-.562-.187-.984-.594-.422-.406-.672-1.047-.234-.64-.234-1.562v-5.344h-2.578v-1.312h2.578v-2.39h1.703zm13.664 2.219q.235 0 .485.015.265 0 .484.032.234.031.422.078.203.047.344.11l-.235 1.64q-.484-.11-.937-.156-.438-.047-.922-.047-1.188 0-1.922.547-.734.53-1.078 1.484v6.328h-1.688v-9.86h1.594l.094 1.563q.594-.797 1.437-1.265.844-.47 1.922-.47zm11.133 8.672q-.5.734-1.234 1.14-.734.407-1.703.407-.781 0-1.406-.235-.625-.25-1.079-.765-.437-.516-.687-1.297-.234-.782-.234-1.89v-5.86h1.687v5.875q0 .812.125 1.343.125.516.375.829.266.312.625.453.375.125.86.125 1.03 0 1.656-.422.64-.422.953-1.125v-7.078h1.687v9.86h-1.531l-.094-1.36zm9.149 1.547q-1.031 0-1.906-.36t-1.5-.984q-.61-.64-.953-1.516-.344-.875-.344-1.906v-.39q0-1.188.375-2.126.39-.953 1.015-1.593.641-.657 1.438-1 .812-.344 1.656-.344 1.063 0 1.86.375.796.36 1.328 1.015.53.641.78 1.532.267.875.267 1.906v.75h-7.032q.016.687.25 1.281.235.578.64 1.031.407.438.97.704.562.25 1.25.25.906 0 1.593-.36.704-.375 1.172-.969l1.032.797q-.25.375-.625.72-.36.327-.844.593-.485.265-1.094.422-.61.172-1.328.172zm-.219-8.844q-.515 0-.969.187-.453.188-.812.547-.36.36-.625.89-.25.516-.344 1.204h5.297v-.125q-.016-.5-.187-.984-.157-.485-.47-.86-.296-.39-.765-.625-.469-.234-1.125-.234z"/><path fill="#ff9800" d="M343.756 311.314c0-6.283 5.093-11.376 11.375-11.376H497.2a11.376 11.376 0 0 1 11.376 11.376v45.5c0 6.283-5.093 11.376-11.376 11.376H355.131c-6.282 0-11.375-5.093-11.375-11.375z" fill-rule="evenodd"/><path stroke="#666" stroke-linejoin="round" stroke-linecap="butt" d="M343.756 311.314c0-6.283 5.093-11.376 11.375-11.376H497.2a11.376 11.376 0 0 1 11.376 11.376v45.5c0 6.283-5.093 11.376-11.376 11.376H355.131c-6.282 0-11.375-5.093-11.375-11.375z"/><path fill="#fff" d="M397.721 338.711q0-.5-.187-.937-.172-.453-.594-.828-.422-.391-1.11-.704-.671-.328-1.687-.593-1.234-.344-2.36-.844-1.124-.516-1.984-1.219-.859-.719-1.375-1.672-.515-.953-.515-2.187 0-1.203.5-2.172.515-.984 1.406-1.672.906-.687 2.125-1.062 1.219-.375 2.656-.375 1.485 0 2.703.437 1.235.422 2.125 1.203.891.781 1.375 1.844.5 1.062.5 2.344h-3.562q-.031-.64-.234-1.172-.204-.531-.61-.906-.39-.391-.984-.61-.578-.219-1.375-.219-.735 0-1.297.188-.563.172-.953.484-.39.313-.594.75-.203.438-.203.953 0 .532.266.97.265.421.765.765.516.344 1.235.64.718.282 1.64.516 1.297.39 2.39.938 1.095.546 1.876 1.296.797.735 1.234 1.704.438.953.438 2.125 0 1.25-.516 2.218-.5.97-1.39 1.64-.876.673-2.094 1.017-1.219.343-2.672.343-.89 0-1.781-.172-.891-.156-1.72-.484-.812-.344-1.515-.844-.703-.515-1.219-1.187-.5-.688-.796-1.547-.297-.86-.297-1.906h3.593q.032.86.297 1.484.282.61.766 1 .484.39 1.172.578.687.172 1.5.172.734 0 1.297-.172.562-.172.953-.469.39-.296.594-.718.218-.422.218-.938zm9.903-7.187q.703-1.032 1.703-1.61 1.016-.593 2.266-.593 1.11 0 2.03.343.923.328 1.58 1.032.67.687 1.046 1.796.375 1.094.375 2.641v8.531h-3.625v-8.547q0-.765-.188-1.312-.187-.547-.546-.875-.344-.344-.844-.5-.485-.172-1.11-.172-.921 0-1.593.328-.657.328-1.094.906v10.172h-3.625v-20h3.625v7.86zm21.184 12.14q-.14-.265-.235-.593-.078-.344-.156-.72-.297.329-.687.61-.391.281-.875.5-.47.219-1.047.344-.563.125-1.219.125-1.078 0-1.984-.313-.907-.312-1.563-.875-.656-.562-1.015-1.328-.36-.78-.36-1.687 0-2.235 1.656-3.453 1.657-1.22 4.954-1.22h2.015v-.827q0-1.016-.672-1.61-.656-.593-1.906-.593-1.11 0-1.625.484-.5.469-.5 1.266h-3.61q0-.907.391-1.703.407-.813 1.157-1.422.765-.61 1.859-.97 1.11-.358 2.531-.358 1.266 0 2.36.312 1.109.313 1.906.922.812.61 1.265 1.547.47.922.47 2.156v6.031q0 1.14.14 1.89.14.735.406 1.267v.218h-3.656zm-3.453-2.53q.547 0 1.015-.126.469-.14.844-.344.375-.218.64-.484.282-.266.438-.531v-2.422h-1.844q-.843 0-1.453.156-.593.156-.968.453-.375.297-.563.703-.187.407-.187.89 0 .735.515 1.22.516.484 1.563.484zm23.293-4.376q0 1.531-.36 2.844-.359 1.312-1.062 2.281-.687.953-1.719 1.5-1.015.547-2.343.547-1.141 0-2-.39-.86-.391-1.5-1.094v6.64h-3.61v-19.5h3.344l.125 1.375q.656-.781 1.531-1.203.89-.437 2.078-.437 1.344 0 2.36.515 1.03.516 1.734 1.469.703.937 1.063 2.266.359 1.312.359 2.906v.281zm-3.61-.281q0-.875-.171-1.656-.157-.782-.5-1.344-.344-.563-.891-.89-.547-.329-1.312-.329-.954 0-1.563.375-.594.375-.937 1.047v5.89q.343.657.937 1.063.61.39 1.594.39.765 0 1.297-.327.547-.344.89-.922.344-.594.5-1.375.157-.782.157-1.64v-.282zm13.794 7.453q-1.625 0-2.953-.531-1.328-.547-2.282-1.453-.953-.922-1.468-2.157-.516-1.25-.516-2.672v-.515q0-1.625.5-2.953.516-1.328 1.422-2.297.922-.969 2.172-1.5t2.719-.531q1.515 0 2.703.5 1.203.5 2.03 1.421.829.907 1.25 2.188.438 1.281.438 2.828v1.531h-9.562q.11.72.422 1.313.328.594.812 1.031.5.422 1.14.656.642.235 1.392.235.53 0 1.062-.094.531-.11 1-.313.484-.203.906-.5.422-.312.735-.703l1.797 1.953q-.329.47-.875.938-.532.469-1.282.828-.734.344-1.64.563-.891.234-1.922.234zm-.438-11.688q-.61 0-1.125.22-.5.218-.89.624-.375.406-.641.969-.25.547-.39 1.234h5.937v-.28q-.016-.58-.219-1.08-.187-.515-.562-.874-.36-.375-.891-.594-.531-.219-1.219-.219z"/><path fill="#bdbdbd" d="M354.764 368.369h142.582v59.716H354.764z" fill-rule="evenodd"/><path stroke="#666" stroke-linejoin="round" stroke-linecap="butt" d="M354.764 368.369h142.582v59.716H354.764z"/><path fill="#000" d="M412.108 390.064l-.25 4.312h-1.61v-5.609h1.86v1.297zm14.027 8.719l3.39-4.704h2.532l-4.719 6.282 4.86 6.406h-2.516l-3.5-4.828-3.5 4.828h-2.531l4.843-6.406-4.718-6.282h2.5l3.359 4.704zm14.777-8.72l-.25 4.313h-1.61v-5.609h1.86v1.297z"/><path fill="#bdbdbd" d="M354.764 428.072h142.582v59.717H354.764z" fill-rule="evenodd"/><path stroke="#666" stroke-linejoin="round" stroke-linecap="butt" d="M354.764 428.072h142.582v59.717H354.764z"/><path fill="#000" d="M412.108 449.767l-.25 4.313h-1.61v-5.61h1.86v1.297zm13.449 12.203l.562 1.532 3.875-9.72h2.422l-6.437 14.641q-.22.5-.563 1.047-.344.547-.844 1.016-.484.469-1.14.781-.656.328-1.516.328-.156 0-.344-.015-.187-.016-.375-.047-.187-.031-.359-.078-.156-.032-.266-.047l.36-1.766h.219q.14.016.296.031.157.016.297.016h.219q.438 0 .813-.25.375-.234.656-.578t.484-.703q.219-.36.328-.594l.875-1.687-5.468-12.094h2.421l3.485 8.187zm15.355-12.203l-.25 4.313h-1.61v-5.61h1.86v1.297z"/><path d="M426.055 240.062l.126 59.874"/><path stroke="#666" stroke-width="4" stroke-linejoin="round" stroke-linecap="butt" d="M426.055 240.062l.075 35.874"/><path fill="#666" stroke="#666" stroke-width="4" stroke-linecap="butt" d="M419.523 275.95l6.646 18.138 6.568-18.166z" fill-rule="evenodd"/><path d="M466.992 403.016l165.795-250.898"/><path stroke="#666" stroke-width="4" stroke-linejoin="round" stroke-linecap="butt" d="M475.35 390.368L619.556 172.14"/><path fill="#666" stroke="#666" stroke-width="4" stroke-linecap="butt" d="M468.095 401.347a6.58 6.58 0 1 1 7.255-10.98 6.58 6.58 0 0 1-7.255 10.98z"/><path fill="#666" stroke="#666" stroke-width="4" stroke-linecap="butt" d="M625.068 175.784l4.496-18.787-15.52 11.502z" fill-rule="evenodd"/><path fill="#fbbc05" fill-opacity=".377" d="M632.787 293.515c0-18.392 14.91-33.302 33.303-33.302h222.844a33.302 33.302 0 0 1 33.302 33.302v133.206c0 18.393-14.91 33.303-33.302 33.303H666.09c-18.393 0-33.303-14.91-33.303-33.303z" fill-rule="evenodd"/><path stroke="#666" stroke-linejoin="round" stroke-linecap="butt" d="M632.787 293.515c0-18.392 14.91-33.302 33.303-33.302h222.844a33.302 33.302 0 0 1 33.302 33.302v133.206c0 18.393-14.91 33.303-33.302 33.303H666.09c-18.393 0-33.303-14.91-33.303-33.303z"/><path fill="#000" d="M655.463 295.179v4.86h-2.562v-13.267h4.531q1.094 0 1.969.313.875.312 1.484.875.61.562.938 1.344.343.781.343 1.75 0 .89-.343 1.64-.328.75-.938 1.313-.61.547-1.484.86-.875.312-1.969.312h-1.969zm0-2.078h1.969q.547 0 .938-.157.406-.172.671-.453.282-.281.407-.656.14-.375.14-.766 0-.468-.14-.86-.125-.405-.407-.702-.265-.313-.671-.485-.391-.171-.938-.171h-1.969v4.25zm15.633-3.094q.578 0 1.063.078.484.062.797.156l-.375 2.531q-.5-.125-1.032-.171-.515-.063-1-.063-1.062 0-1.703.406-.64.407-.968 1.172v5.922h-2.532v-9.86h2.36l.125 1.61q.593-.828 1.437-1.297.844-.484 1.828-.484zm3.774 5.015q0-1.078.312-1.984.313-.922.907-1.594.593-.687 1.453-1.062.86-.375 1.969-.375 1.125 0 1.984.375.86.375 1.453 1.062.61.672.906 1.594.313.906.313 1.984v.188q0 1.078-.313 2-.297.922-.89 1.594-.594.672-1.469 1.047-.86.375-1.953.375-1.125 0-2-.375-.86-.375-1.453-1.047-.594-.672-.907-1.594-.312-.922-.312-2v-.188zm2.531.188q0 .625.11 1.172.125.531.375.937.265.407.671.64.407.235.985.235.547 0 .937-.234.407-.234.657-.64.25-.407.375-.938.125-.547.125-1.172v-.188q0-.609-.125-1.14-.125-.547-.375-.953-.25-.407-.657-.64-.39-.235-.968-.235-.563 0-.97.234-.39.234-.655.64-.25.407-.375.954-.11.531-.11 1.14v.188zm17.868-.016q0 1.078-.25 2-.25.922-.75 1.594-.485.672-1.203 1.063-.72.375-1.641.375-.797 0-1.406-.266-.594-.281-1.032-.781v4.656h-2.53v-13.656h2.327l.094.968q.453-.546 1.078-.843.625-.297 1.453-.297.938 0 1.657.36.718.359 1.203 1.015.5.656.75 1.578t.25 2.047v.187zm-2.532-.187q0-.61-.125-1.156-.109-.547-.359-.938-.234-.406-.61-.625-.374-.234-.906-.234-.671 0-1.093.265-.422.266-.657.735v4.11q.235.468.657.75.422.28 1.11.28.53 0 .905-.234.391-.25.625-.656.235-.407.344-.953.11-.547.11-1.157v-.187zm9.65 5.219q-1.141 0-2.079-.375-.922-.375-1.594-1.016-.656-.64-1.015-1.516-.36-.875-.36-1.86v-.374q0-1.125.36-2.047.359-.937.984-1.61.64-.687 1.516-1.046.875-.375 1.906-.375 1.062 0 1.89.344.844.343 1.422.984.579.64.875 1.547.313.89.313 1.969v1.078h-6.688q.063.5.282.922.234.406.578.718.344.297.781.47.453.155.984.155.375 0 .735-.078.375-.078.703-.219.344-.14.64-.343.297-.219.516-.5l1.266 1.375q-.235.328-.625.656-.375.328-.89.578-.516.25-1.141.406-.625.157-1.36.157zm-.298-8.172q-.422 0-.781.156-.36.14-.625.422-.266.281-.453.672-.188.39-.266.875h4.14v-.203q-.015-.391-.155-.75-.125-.36-.391-.61-.25-.265-.625-.406-.36-.156-.844-.156zm13.79-2.047q.578 0 1.062.078.484.062.797.156l-.375 2.531q-.5-.125-1.031-.171-.516-.063-1-.063-1.063 0-1.703.406-.641.407-.97 1.172v5.922h-2.53v-9.86h2.359l.125 1.61q.594-.828 1.437-1.297.844-.484 1.829-.484zm8.773-2.235v2.407h3.672v1.875h-3.672v4.234q0 .531.11.89.125.36.343.579.235.219.563.312.328.078.719.078.297 0 .593-.015.313-.031.594-.063.281-.047.516-.093.25-.047.422-.094l.234 1.734q-.25.156-.61.281-.359.11-.765.172-.39.078-.828.11-.438.047-.844.047-.812 0-1.484-.204-.656-.218-1.125-.671-.469-.454-.735-1.141-.25-.703-.25-1.672v-4.484h-2.25v-1.875h2.25v-2.407h2.547zm10.743 8.125l.297 1.063 2.625-6.781h2.797l-5.016 11.328q-.156.375-.422.812-.25.438-.64.813-.391.375-.954.625-.562.265-1.328.265-.187 0-.344-.015-.156-.016-.296-.047-.141-.016-.282-.047-.14-.031-.312-.078l.312-1.922h.39q.25.016.392.016.296 0 .53-.188.235-.172.391-.39.172-.22.266-.407.11-.172.14-.172l.61-1.156-4.172-9.437h2.781l2.235 5.718zm18.86-5.718h5.375v7.797h2.672v2.062h-8.047v-2.062h2.812v-5.72h-2.812v-2.077zm2.625-2.516q0-.297.109-.547.11-.25.297-.422.187-.187.453-.28.281-.11.61-.11.671 0 1.062.39.39.375.39.97 0 .593-.39.968t-1.063.375q-.328 0-.609-.094-.266-.11-.453-.281-.188-.188-.297-.438-.11-.25-.11-.53zm10.195 2.516l.156 1.375q.532-.75 1.282-1.14.765-.407 1.687-.407.735 0 1.36.219.625.218 1.062.703.453.468.703 1.218.25.75.25 1.829v6.062h-2.531v-6.031q0-.578-.14-.953-.126-.39-.376-.61-.234-.218-.578-.297-.344-.093-.781-.093-.656 0-1.11.265-.453.266-.734.72v7h-2.547v-9.86h2.297zm11.352 9.86v-7.985h-2.594v-1.875h2.594v-.532q0-.984.313-1.718.312-.75.875-1.266.578-.516 1.39-.766.828-.265 1.844-.265.312 0 .61.031.296.016.577.063.282.03.563.078.297.047.61.093l-.173 1.985q-.343-.063-.78-.11-.438-.062-1.032-.062-1.188 0-1.719.5-.531.5-.531 1.437v.532h3.547v1.875h-3.547v7.984h-2.547zm8.399-5.017q0-1.078.312-1.984.313-.922.907-1.594.593-.687 1.453-1.062.859-.375 1.968-.375 1.125 0 1.985.375.86.375 1.453 1.062.61.672.906 1.594.313.906.313 1.984v.188q0 1.078-.313 2-.297.922-.89 1.594-.594.672-1.47 1.047-.859.375-1.952.375-1.125 0-2-.375-.86-.375-1.453-1.047-.594-.672-.907-1.594-.312-.922-.312-2v-.188zm2.531.188q0 .625.11 1.172.124.531.374.937.266.407.672.64.407.235.985.235.547 0 .937-.234.406-.234.656-.64.25-.407.375-.938.125-.547.125-1.172v-.188q0-.609-.125-1.14-.125-.547-.375-.953-.25-.407-.656-.64-.39-.235-.969-.235-.562 0-.968.234-.391.234-.657.64-.25.407-.375.954-.109.531-.109 1.14v.188zm16.086-5.203q.578 0 1.063.078.484.062.797.156l-.375 2.531q-.5-.125-1.032-.171-.515-.063-1-.063-1.062 0-1.703.406-.64.407-.969 1.172v5.922h-2.53v-9.86h2.359l.125 1.61q.593-.828 1.437-1.297.844-.484 1.828-.484zm5.696.172l.078 1.203q.281-.64.765-1 .5-.375 1.22-.375 1.187 0 1.562 1.047.281-.5.734-.766.453-.281 1.094-.281.437 0 .828.172.39.156.672.515.297.36.453.922.156.563.156 1.39v7.032h-2.312v-7.047q0-.281-.063-.453-.047-.187-.156-.281-.094-.11-.234-.156-.125-.047-.266-.047-.266 0-.453.125-.172.125-.266.328v7.531h-2.234v-7.047q0-.281-.063-.469-.047-.187-.14-.28-.094-.095-.235-.141-.125-.047-.265-.047-.297 0-.469.172-.172.156-.281.437v7.375h-2.297v-9.86h2.172zm15.773 9.86q-.093-.188-.156-.423-.062-.234-.11-.5-.202.235-.484.438-.265.187-.609.343-.328.157-.734.235-.39.094-.86.094-.75 0-1.39-.22-.625-.218-1.078-.609-.454-.39-.72-.937-.25-.547-.25-1.188 0-1.546 1.157-2.39 1.172-.86 3.469-.86h1.422v-.593q0-.703-.469-1.11-.469-.422-1.344-.422-.765 0-1.125.329-.36.328-.36.89h-2.53q0-.625.28-1.187.282-.578.813-1 .532-.422 1.297-.672.766-.25 1.766-.25.89 0 1.656.219.781.218 1.344.64.562.422.875 1.078.328.657.328 1.5v4.235q0 .797.094 1.312.093.516.297.89v.157h-2.579zm-2.406-1.782q.375 0 .703-.078.328-.094.594-.235.266-.156.453-.343.203-.188.313-.375v-1.704h-1.297q-.594 0-1.016.125-.422.11-.687.313-.266.203-.39.5-.126.281-.126.625 0 .5.36.844.359.328 1.093.328zm12.102-10.485v2.407h3.672v1.875h-3.672v4.234q0 .531.11.89.124.36.343.579.235.219.563.312.328.078.718.078.297 0 .594-.015.313-.031.594-.063.281-.047.516-.093.25-.047.421-.094l.235 1.734q-.25.156-.61.281-.359.11-.765.172-.39.078-.828.11-.438.047-.844.047-.813 0-1.484-.204-.657-.218-1.125-.671-.47-.454-.735-1.141-.25-.703-.25-1.672v-4.484h-2.25v-1.875h2.25v-2.407h2.547zm7.211 2.407h5.375v7.797h2.672v2.062h-8.047v-2.062h2.813v-5.72h-2.813v-2.077zm2.625-2.516q0-.297.11-.547.109-.25.296-.422.188-.187.454-.28.28-.11.609-.11.672 0 1.062.39.391.375.391.97 0 .593-.39.968-.391.375-1.063.375-.328 0-.61-.094-.265-.11-.453-.281-.187-.188-.296-.438-.11-.25-.11-.53zm7.555 7.36q0-1.079.313-1.985.312-.922.906-1.594.594-.687 1.453-1.062.86-.375 1.969-.375 1.125 0 1.984.375.86.375 1.453 1.062.61.672.907 1.594.312.906.312 1.984v.188q0 1.078-.312 2-.297.922-.891 1.594-.594.672-1.469 1.047-.86.375-1.953.375-1.125 0-2-.375-.86-.375-1.453-1.047-.594-.672-.906-1.594-.313-.922-.313-2v-.188zm2.531.187q0 .625.11 1.172.125.531.375.937.265.407.672.64.406.235.984.235.547 0 .938-.234.406-.234.656-.64.25-.407.375-.938.125-.547.125-1.172v-.188q0-.609-.125-1.14-.125-.547-.375-.953-.25-.407-.656-.64-.391-.235-.97-.235-.562 0-.968.234-.39.234-.656.64-.25.407-.375.954-.11.531-.11 1.14v.188zm11.305-5.031l.157 1.375q.53-.75 1.28-1.14.767-.407 1.688-.407.735 0 1.36.219.625.218 1.062.703.453.468.703 1.218.25.75.25 1.829v6.062h-2.53v-6.031q0-.578-.141-.953-.125-.39-.375-.61-.235-.218-.579-.297-.343-.093-.78-.093-.657 0-1.11.265-.453.266-.735.72v7h-2.546v-9.86h2.296z"/><path fill="#673ab7" d="M661.76 346.179q-.015.703-.14 1.437-.11.719-.344 1.39-.235.673-.61 1.266-.359.579-.875 1.016-.5.438-1.171.688-.657.25-1.47.25-.827 0-1.484-.25-.656-.25-1.171-.688-.516-.437-.891-1.031-.375-.594-.61-1.266-.234-.672-.359-1.39-.125-.72-.125-1.422v-1.516q0-.719.11-1.437.125-.72.359-1.391.25-.688.61-1.266.374-.593.874-1.03.516-.438 1.172-.688.672-.266 1.485-.266.828 0 1.484.266.672.25 1.172.687.515.438.875 1.031.375.578.61 1.25.25.672.359 1.407.125.718.14 1.437v1.516zm-1.672-1.532q-.015-.484-.078-1-.047-.515-.187-1.015-.125-.5-.344-.953-.219-.469-.547-.813-.328-.36-.781-.562-.438-.203-1.031-.203-.579 0-1.032.203-.437.203-.765.562-.328.344-.547.813-.219.453-.36.968-.125.5-.187 1.016-.063.516-.063.984v1.532q0 .453.063.984.062.516.203 1.016.14.5.36.968.218.47.546.829.328.343.766.562.453.203 1.047.203.578 0 1.031-.203.453-.219.781-.562.328-.36.532-.813.218-.469.343-.969.14-.515.188-1.03.047-.517.062-.985v-1.532zm6.743 7.391v-8.547h-2.703v-1.312h2.703v-.688q0-.953.28-1.656.282-.719.782-1.203.516-.485 1.219-.735.719-.25 1.594-.25.593 0 1.156.11.578.094 1.172.25l-.188 1.39q-.375-.125-.875-.218-.5-.094-1.062-.094-1.188.016-1.781.61-.594.577-.594 1.796v.688h3.797v1.312h-3.797v8.547h-1.703zm11.204 0v-8.547h-2.703v-1.312h2.703v-.688q0-.953.282-1.656.28-.719.78-1.203.517-.485 1.22-.735.718-.25 1.593-.25.594 0 1.157.11.578.094 1.172.25l-.188 1.39q-.375-.125-.875-.218-.5-.094-1.062-.094-1.188.016-1.782.61-.593.577-.593 1.796v.688h3.796v1.312h-3.796v8.547h-1.704zm15.252-2.61q0-.312-.125-.546-.125-.235-.406-.438-.282-.203-.75-.375-.453-.172-1.141-.297-.86-.187-1.562-.421-.688-.25-1.188-.594-.484-.344-.766-.797-.265-.469-.265-1.078 0-.594.281-1.11.281-.53.781-.921.516-.391 1.219-.61.703-.234 1.563-.234.906 0 1.625.234.734.235 1.25.656.515.407.78.97.282.562.282 1.218h-1.687q0-.328-.172-.625-.157-.313-.453-.547-.282-.234-.704-.375-.406-.156-.921-.156-.547 0-.954.125-.406.11-.671.312-.266.203-.407.47-.14.265-.14.546t.109.516q.11.234.375.421.281.172.734.329.454.14 1.141.265.906.203 1.625.453t1.203.61q.5.343.75.812.266.453.266 1.063 0 .656-.297 1.203-.281.531-.813.922-.53.375-1.265.593-.735.204-1.61.204-1.015 0-1.796-.266-.782-.281-1.329-.719-.53-.437-.828-1.015-.281-.594-.281-1.22h1.688q.03.516.265.876.25.36.61.578.359.219.796.312.438.079.875.079 1.063 0 1.672-.391.625-.39.64-1.031zm8.992 2.798q-1.03 0-1.906-.36-.875-.36-1.5-.984-.61-.64-.953-1.516-.344-.875-.344-1.906v-.39q0-1.188.375-2.126.39-.953 1.016-1.593.64-.657 1.437-1 .813-.344 1.657-.344 1.062 0 1.859.375.797.36 1.328 1.015.531.641.781 1.532.266.875.266 1.906v.75h-7.031q.015.687.25 1.281.234.578.64 1.031.407.438.97.704.562.25 1.25.25.905 0 1.593-.36.703-.375 1.172-.969l1.031.797q-.25.375-.625.72-.36.327-.844.593-.484.265-1.094.422-.609.172-1.328.172zm-.218-8.844q-.516 0-.97.187-.452.188-.812.547-.359.36-.625.89-.25.516-.343 1.204h5.296v-.125q-.015-.5-.187-.984-.156-.485-.469-.86-.297-.39-.765-.625-.47-.234-1.125-.234zm11.055-3.594v2.39h3.75v1.313h-3.75v5.344q0 .578.14.953t.39.594q.266.219.595.312.343.094.718.094.266 0 .547-.031.297-.031.578-.078.282-.047.516-.094.25-.047.406-.094l.235 1.203q-.22.125-.516.22-.297.093-.656.155-.344.078-.75.11-.39.047-.782.047-.656 0-1.234-.188-.562-.187-.984-.594-.422-.406-.672-1.047-.235-.64-.235-1.562v-5.344h-2.578v-1.312h2.578v-2.39h1.704z"/><path fill="#e67c73" d="M723.249 350.944q0-.265.078-.5.094-.25.25-.422.172-.187.422-.28.25-.095.578-.095.328 0 .578.094.25.094.406.281.172.172.25.422.094.235.094.5 0 .266-.094.5-.078.235-.25.407-.156.171-.406.265t-.578.094q-.328 0-.578-.094-.25-.094-.422-.265-.156-.172-.25-.407-.078-.234-.078-.5zm0-8q0-.265.078-.5.094-.25.25-.422.172-.187.422-.28.25-.095.578-.095.328 0 .578.094.25.094.406.281.172.172.25.422.094.235.094.5 0 .266-.094.5-.078.235-.25.407-.156.171-.406.265t-.578.094q-.328 0-.578-.094-.25-.094-.422-.265-.156-.172-.25-.407-.078-.234-.078-.5z"/><path fill="#db4437" d="M748.171 352.038h-1.688v-11.11l-3.468 1.313v-1.531l5.031-1.938h.125v13.266z"/><path fill="#e67c73" d="M659.026 364.257h-2.016v15.234h2.016v1.39h-3.61v-18h3.61v1.376zm11.195 0h-2.015v15.234h2.015v1.39h-3.61v-18h3.61v1.376z"/><path fill="#673ab7" d="M682.089 374.444l1.015-9.672h1.594l-1.61 13.266h-1.718l-1.703-10-1.719 10h-1.734l-1.61-13.266h1.594l1.016 9.672 1.703-9.672h1.469l1.703 9.672zm11.086-6.437q.234 0 .484.015.266 0 .485.032.234.031.422.078.203.047.343.11l-.234 1.64q-.484-.11-.938-.156-.437-.047-.921-.047-1.188 0-1.922.547-.735.53-1.078 1.484v6.328h-1.688v-9.86h1.594l.094 1.563q.593-.797 1.437-1.265.844-.47 1.922-.47zm4.992.172h5.047v8.406h3.219v1.453h-8.266v-1.453h3.36v-6.938h-3.36v-1.468zm3.141-2.578q0-.422.25-.704.25-.296.766-.296.5 0 .75.296.25.282.25.704 0 .406-.25.687-.25.266-.75.266-.516 0-.766-.266-.25-.281-.25-.687zm11.79.187v2.39h3.75v1.313h-3.75v5.344q0 .578.14.953t.39.594q.266.219.594.312.344.094.72.094.265 0 .546-.031.297-.031.578-.078.281-.047.516-.094.25-.047.406-.094l.234 1.203q-.218.125-.515.22-.297.093-.657.155-.343.078-.75.11-.39.047-.78.047-.657 0-1.235-.188-.563-.187-.985-.594-.421-.406-.671-1.047-.235-.64-.235-1.562v-5.344h-2.578v-1.312h2.578v-2.39h1.703zm13.68 12.25q-.094-.187-.157-.469-.062-.297-.094-.609-.25.266-.562.5-.313.219-.703.39-.375.172-.813.266-.422.11-.89.11-.797 0-1.438-.22-.625-.234-1.062-.624-.438-.39-.688-.922-.234-.531-.234-1.156 0-.813.312-1.422.328-.61.922-1.016.594-.406 1.422-.594.844-.203 1.875-.203h1.828v-.78q0-.454-.172-.798-.156-.36-.453-.61-.297-.25-.734-.39-.422-.14-.97-.14-.5 0-.905.14-.391.125-.672.344-.266.203-.422.484-.14.282-.14.594h-1.688q0-.531.265-1.047.282-.531.782-.937.5-.422 1.218-.672.735-.25 1.657-.25.843 0 1.562.203.719.203 1.235.625.53.406.828 1.031.297.61.297 1.438v4.578q0 .5.093 1.047.094.547.25.968v.141h-1.75zm-2.985-1.281q.5 0 .922-.125.437-.14.781-.344.344-.203.594-.469.265-.28.406-.562v-2h-1.562q-1.47 0-2.297.437-.813.438-.813 1.375 0 .36.125.672.125.313.36.531.25.22.625.36.375.125.859.125zm16.055-3.531q0 1.046-.266 1.968-.25.907-.75 1.594-.484.672-1.203 1.063-.719.375-1.656.375-.953 0-1.656-.329-.688-.343-1.188-.984l-.078 1.125h-1.547v-14h1.688v5.203q.484-.61 1.156-.922.687-.312 1.61-.312.937 0 1.656.375.734.36 1.218 1.031.5.656.75 1.594.266.922.266 2.015v.204zm-1.688-.204q0-.718-.14-1.359-.14-.656-.453-1.156-.313-.5-.813-.781-.5-.297-1.219-.297-.437 0-.812.125-.36.11-.656.312-.282.203-.5.485-.22.265-.375.593v4.313q.156.328.375.61.234.28.515.5.297.202.657.312.375.11.812.11.688 0 1.188-.282.5-.297.812-.781.313-.5.453-1.141.156-.64.156-1.36v-.203zm4.79-8.984h5.047v12.547h3.218v1.453h-8.265v-1.453h3.36v-11.078h-3.36v-1.469zm15.289 14.188q-1.031 0-1.906-.36t-1.5-.984q-.61-.64-.953-1.516-.344-.875-.344-1.906v-.39q0-1.188.375-2.126.39-.953 1.016-1.593.64-.657 1.437-1 .813-.344 1.656-.344 1.063 0 1.86.375.797.36 1.328 1.015.531.641.781 1.532.266.875.266 1.906v.75h-7.032q.016.687.25 1.281.235.578.641 1.031.406.438.969.704.562.25 1.25.25.906 0 1.594-.36.703-.375 1.171-.969l1.032.797q-.25.375-.625.72-.36.327-.844.593-.484.265-1.094.422-.61.172-1.328.172zm-.219-8.844q-.515 0-.968.187-.454.188-.813.547-.36.36-.625.89-.25.516-.344 1.204h5.297v-.125q-.015-.5-.187-.984-.157-.485-.47-.86-.296-.39-.765-.625-.468-.234-1.125-.234z"/><path fill="#e67c73" d="M767.185 362.882h3.625v18h-3.625v-1.39h2.03v-15.235h-2.03v-1.375zm11.195 0h3.625v18h-3.625v-1.39h2.031v-15.235h-2.03v-1.375zm12.024 14.062q0-.265.078-.5.094-.25.25-.422.172-.187.422-.28.25-.095.578-.095.328 0 .578.094.25.094.406.281.172.172.25.422.094.235.094.5 0 .266-.094.5-.078.235-.25.407-.156.171-.406.265t-.578.094q-.328 0-.578-.094-.25-.094-.422-.265-.156-.172-.25-.407-.078-.234-.078-.5zm0-8q0-.265.078-.5.094-.25.25-.422.172-.187.422-.28.25-.095.578-.095.328 0 .578.094.25.094.406.281.172.172.25.422.094.235.094.5 0 .266-.094.5-.078.235-.25.407-.156.171-.406.265t-.578.094q-.328 0-.578-.094-.25-.094-.422-.265-.156-.172-.25-.407-.078-.234-.078-.5z"/><path fill="#4285f4" d="M813.857 365.788v2.39h3.75v1.313h-3.75v5.344q0 .578.141.953.14.375.39.594.266.219.594.312.344.094.72.094.265 0 .546-.031.297-.031.578-.078.281-.047.516-.094.25-.047.406-.094l.234 1.203q-.218.125-.515.22-.297.093-.656.155-.344.078-.75.11-.391.047-.782.047-.656 0-1.234-.188-.563-.187-.984-.594-.422-.406-.672-1.047-.235-.64-.235-1.562v-5.344h-2.578v-1.312h2.578v-2.39h1.703zm13.665 2.219q.234 0 .484.015.266 0 .485.032.234.031.421.078.204.047.344.11l-.234 1.64q-.485-.11-.938-.156-.437-.047-.922-.047-1.187 0-1.921.547-.735.53-1.079 1.484v6.328h-1.687v-9.86h1.594l.093 1.563q.594-.797 1.438-1.265.844-.47 1.922-.47zm11.133 8.672q-.5.734-1.234 1.14-.735.407-1.704.407-.78 0-1.406-.235-.625-.25-1.078-.765-.437-.516-.687-1.297-.235-.782-.235-1.89v-5.86H834v5.875q0 .812.125 1.343.125.516.375.829.265.312.625.453.375.125.859.125 1.031 0 1.656-.422.64-.422.953-1.125v-7.078h1.688v9.86h-1.531l-.094-1.36zm9.149 1.547q-1.032 0-1.907-.36t-1.5-.984q-.609-.64-.953-1.516-.344-.875-.344-1.906v-.39q0-1.188.375-2.126.391-.953 1.016-1.593.64-.657 1.438-1 .812-.344 1.656-.344 1.062 0 1.86.375.796.36 1.327 1.015.532.641.782 1.532.265.875.265 1.906v.75h-7.031q.016.687.25 1.281.234.578.64 1.031.407.438.97.704.562.25 1.25.25.906 0 1.593-.36.703-.375 1.172-.969l1.031.797q-.25.375-.625.72-.36.327-.844.593-.484.265-1.093.422-.61.172-1.328.172zm-.22-8.844q-.515 0-.968.187-.453.188-.812.547-.36.36-.625.89-.25.516-.344 1.204h5.297v-.125q-.016-.5-.188-.984-.156-.485-.469-.86-.296-.39-.765-.625-.469-.234-1.125-.234z"/><path fill="#e67c73" d="M659.026 390.257h-2.016v15.234h2.016v1.39h-3.61v-18h3.61v1.376zm11.195 0h-2.015v15.234h2.015v1.39h-3.61v-18h3.61v1.376z"/><path fill="#673ab7" d="M682.808 397.913h-5.532v4.688h6.453v1.437h-8.14v-13.266h8.062v1.438h-6.375v4.266h5.532v1.437zm5.414-3.734l.125 1.453q.531-.766 1.312-1.188.782-.437 1.75-.437.782 0 1.407.219.64.218 1.078.687.453.453.687 1.172.25.719.25 1.687v6.266h-1.687v-6.219q0-.656-.157-1.109-.14-.453-.421-.734-.282-.297-.704-.422-.406-.125-.953-.125-.843 0-1.484.422-.64.421-1.031 1.125v7.062h-1.688v-9.86h1.516zm16.086 8.5q-.5.734-1.234 1.14-.735.407-1.703.407-.782 0-1.407-.235-.625-.25-1.078-.765-.437-.516-.687-1.297-.235-.782-.235-1.89v-5.86h1.688v5.875q0 .812.125 1.343.125.516.375.829.265.312.625.453.375.125.86.125 1.03 0 1.655-.422.641-.422.954-1.125v-7.078h1.687v9.86h-1.531l-.094-1.36zm5.57-8.5l.047.937q.297-.531.782-.812.5-.297 1.187-.297 1.36 0 1.813 1.047.297-.469.765-.75.485-.297 1.157-.297 1.093 0 1.671.672.579.656.579 2v7.36h-1.594v-7.376q0-1.25-1.14-1.234-.298 0-.516.093-.22.079-.375.22-.141.14-.22.327-.077.188-.109.375v7.594h-1.609v-7.39q0-.594-.266-.907-.265-.328-.828-.312-.53 0-.828.218-.281.204-.422.547v7.844h-1.609v-9.86h1.516zm14.774 10.047q-1.031 0-1.906-.36t-1.5-.984q-.61-.64-.953-1.516-.344-.875-.344-1.906v-.39q0-1.188.375-2.126.39-.953 1.016-1.593.64-.657 1.437-1 .813-.344 1.657-.344 1.062 0 1.859.375.797.36 1.328 1.015.531.641.781 1.532.266.875.266 1.906v.75h-7.031q.015.687.25 1.281.234.578.64 1.031.407.438.969.704.563.25 1.25.25.906 0 1.594-.36.703-.375 1.172-.969l1.03.797q-.25.375-.624.72-.36.327-.844.593-.484.265-1.094.422-.609.172-1.328.172zm-.218-8.844q-.516 0-.97.187-.452.188-.812.547-.36.36-.625.89-.25.516-.343 1.204h5.296v-.125q-.015-.5-.187-.984-.156-.485-.469-.86-.297-.39-.765-.625-.47-.234-1.125-.234zm13.523-1.375q.235 0 .485.015.265 0 .484.032.234.031.422.078.203.047.344.11l-.235 1.64q-.484-.11-.937-.156-.438-.047-.922-.047-1.188 0-1.922.547-.734.53-1.078 1.484v6.328h-1.688v-9.86h1.594l.094 1.563q.594-.797 1.437-1.265.844-.47 1.922-.47zm11.211 10.031q-.093-.187-.156-.469-.062-.297-.094-.609-.25.266-.562.5-.313.219-.703.39-.375.172-.813.266-.422.11-.89.11-.797 0-1.438-.22-.625-.234-1.062-.624-.438-.39-.688-.922-.234-.531-.234-1.156 0-.813.312-1.422.328-.61.922-1.016.594-.406 1.422-.594.844-.203 1.875-.203h1.828v-.78q0-.454-.172-.798-.156-.36-.453-.61-.297-.25-.734-.39-.422-.14-.969-.14-.5 0-.906.14-.39.125-.672.344-.266.203-.422.484-.14.282-.14.594h-1.688q0-.531.266-1.047.28-.531.78-.937.5-.422 1.22-.672.734-.25 1.656-.25.844 0 1.562.203.72.203 1.235.625.531.406.828 1.031.297.61.297 1.438v4.578q0 .5.093 1.047.094.547.25.968v.141h-1.75zm-2.984-1.281q.5 0 .922-.125.437-.14.781-.344.344-.203.594-.469.266-.28.406-.562v-2h-1.562q-1.469 0-2.297.437-.813.438-.813 1.375 0 .36.125.672.125.313.36.531.25.22.625.36.375.125.86.125zm16.055-3.531q0 1.046-.266 1.968-.25.907-.75 1.594-.484.672-1.203 1.063-.718.375-1.656.375-.953 0-1.656-.329-.688-.343-1.188-.984l-.078 1.125h-1.547v-14h1.688v5.203q.484-.61 1.156-.922.688-.312 1.61-.312.937 0 1.656.375.734.36 1.218 1.031.5.656.75 1.594.266.922.266 2.015v.204zm-1.687-.204q0-.718-.141-1.359-.14-.656-.453-1.156-.313-.5-.813-.781-.5-.297-1.218-.297-.438 0-.813.125-.36.11-.656.312-.281.203-.5.485-.219.265-.375.593v4.313q.156.328.375.61.234.28.515.5.297.202.657.312.375.11.812.11.688 0 1.188-.282.5-.297.812-.781.313-.5.453-1.141.157-.64.157-1.36v-.203zm4.789-8.984h5.047v12.547h3.218v1.453h-8.265v-1.453h3.36v-11.078h-3.36v-1.469zm15.29 14.188q-1.032 0-1.907-.36t-1.5-.984q-.61-.64-.953-1.516-.344-.875-.344-1.906v-.39q0-1.188.375-2.126.39-.953 1.016-1.593.64-.657 1.437-1 .813-.344 1.656-.344 1.063 0 1.86.375.797.36 1.328 1.015.531.641.781 1.532.266.875.266 1.906v.75h-7.031q.015.687.25 1.281.234.578.64 1.031.406.438.969.704.562.25 1.25.25.906 0 1.594-.36.703-.375 1.172-.969l1.03.797q-.25.375-.624.72-.36.327-.844.593-.484.265-1.094.422-.61.172-1.328.172zm-.22-8.844q-.515 0-.968.187-.453.188-.813.547-.36.36-.625.89-.25.516-.344 1.204h5.297v-.125q-.015-.5-.187-.984-.156-.485-.469-.86-.297-.39-.766-.625-.468-.234-1.125-.234z"/><path fill="#e67c73" d="M789.576 388.882h3.625v18h-3.625v-1.39h2.031v-15.235h-2.031v-1.375zm11.195 0h3.625v18h-3.625v-1.39h2.032v-15.235h-2.032v-1.375zm12.024 14.062q0-.265.078-.5.094-.25.25-.422.172-.187.422-.28.25-.095.578-.095.328 0 .578.094.25.094.406.281.172.172.25.422.094.235.094.5 0 .266-.094.5-.078.235-.25.407-.156.171-.406.265t-.578.094q-.328 0-.578-.094-.25-.094-.422-.265-.156-.172-.25-.407-.078-.234-.078-.5zm0-8q0-.265.078-.5.094-.25.25-.422.172-.187.422-.28.25-.095.578-.095.328 0 .578.094.25.094.406.281.172.172.25.422.094.235.094.5 0 .266-.094.5-.078.235-.25.407-.156.171-.406.265t-.578.094q-.328 0-.578-.094-.25-.094-.422-.265-.156-.172-.25-.407-.078-.234-.078-.5z"/><path fill="#4285f4" d="M836.249 391.788v2.39h3.75v1.313h-3.75v5.344q0 .578.14.953t.39.594q.267.219.595.312.343.094.718.094.266 0 .547-.031.297-.031.578-.078.282-.047.516-.094.25-.047.406-.094l.235 1.203q-.22.125-.516.22-.297.093-.656.155-.344.078-.75.11-.39.047-.781.047-.657 0-1.235-.188-.562-.187-.984-.594-.422-.406-.672-1.047-.234-.64-.234-1.562v-5.344h-2.579v-1.312h2.579v-2.39h1.703zm13.664 2.219q.234 0 .484.015.266 0 .485.032.234.031.422.078.203.047.343.11l-.234 1.64q-.484-.11-.938-.156-.437-.047-.921-.047-1.188 0-1.922.547-.735.53-1.078 1.484v6.328h-1.688v-9.86h1.594l.094 1.563q.593-.797 1.437-1.265.844-.47 1.922-.47zm11.133 8.672q-.5.734-1.234 1.14-.735.407-1.703.407-.782 0-1.407-.235-.625-.25-1.078-.765-.437-.516-.687-1.297-.235-.782-.235-1.89v-5.86h1.688v5.875q0 .812.125 1.343.125.516.375.829.265.312.625.453.375.125.86.125 1.03 0 1.655-.422.641-.422.954-1.125v-7.078h1.687v9.86h-1.531l-.094-1.36zm9.149 1.547q-1.031 0-1.906-.36t-1.5-.984q-.61-.64-.954-1.516-.343-.875-.343-1.906v-.39q0-1.188.375-2.126.39-.953 1.015-1.593.64-.657 1.438-1 .812-.344 1.656-.344 1.063 0 1.86.375.796.36 1.328 1.015.53.641.78 1.532.266.875.266 1.906v.75h-7.03q.015.687.25 1.281.234.578.64 1.031.406.438.969.704.562.25 1.25.25.906 0 1.593-.36.703-.375 1.172-.969l1.031.797q-.25.375-.625.72-.359.327-.843.593-.485.265-1.094.422-.61.172-1.328.172zm-.219-8.844q-.516 0-.969.187-.453.188-.812.547-.36.36-.625.89-.25.516-.344 1.204h5.297v-.125q-.016-.5-.188-.984-.156-.485-.468-.86-.297-.39-.766-.625-.469-.234-1.125-.234z"/><path fill="#e67c73" d="M659.026 416.257h-2.016v15.234h2.016v1.39h-3.61v-18h3.61v1.376zm11.195 0h-2.015v15.234h2.015v1.39h-3.61v-18h3.61v1.376z"/><path fill="#673ab7" d="M684.104 426.054q-.109.922-.468 1.687-.36.766-.938 1.328-.562.547-1.344.86-.765.297-1.734.297-.812 0-1.484-.235-.672-.234-1.203-.64-.516-.422-.891-.97-.375-.562-.625-1.218-.25-.656-.375-1.375t-.14-1.453v-1.844q.015-.75.14-1.469.125-.718.375-1.375.25-.656.625-1.203.375-.562.89-.968.532-.422 1.188-.657.672-.234 1.5-.234 1 0 1.781.312.782.313 1.344.875.563.547.906 1.344.344.781.453 1.719h-1.687q-.078-.594-.281-1.11-.203-.53-.547-.921-.328-.39-.813-.61-.484-.218-1.156-.218-.594 0-1.062.203-.454.187-.797.531-.328.328-.547.781-.219.438-.36.938-.14.5-.203 1.031-.047.516-.047 1.016v1.859q0 .5.047 1.031.063.516.203 1.016.141.5.36.953.219.437.547.781.343.344.797.547.453.188 1.062.188.672 0 1.156-.204.485-.218.813-.593.344-.375.547-.89.203-.517.28-1.11h1.688zm2.134-1.032q0-1.062.312-1.984.313-.922.89-1.594.579-.672 1.407-1.047.828-.39 1.86-.39 1.046 0 1.874.39.844.375 1.422 1.047.578.672.89 1.594.313.922.313 1.984v.204q0 1.062-.312 1.968-.313.907-.89 1.594-.579.672-1.407 1.063-.828.375-1.86.375-1.046 0-1.89-.375-.828-.391-1.406-1.063-.578-.687-.891-1.594-.312-.906-.312-1.968v-.204zm1.687.204q0 .718.172 1.39.172.656.516 1.156.359.5.89.797.531.282 1.235.282.687 0 1.203-.282.53-.297.875-.797.359-.5.53-1.156.173-.672.173-1.39v-.204q0-.718-.188-1.375-.172-.671-.531-1.171-.344-.5-.875-.797-.516-.297-1.219-.297-.703 0-1.218.297-.516.297-.875.797-.344.5-.516 1.171-.172.657-.172 1.375v.204zm11.492-5.047l.125 1.453q.532-.766 1.313-1.188.781-.437 1.75-.437.781 0 1.406.219.64.218 1.078.687.453.453.688 1.172.25.719.25 1.687v6.266h-1.688v-6.219q0-.656-.156-1.11-.14-.452-.422-.733-.281-.297-.703-.422-.406-.125-.953-.125-.844 0-1.484.422-.641.421-1.032 1.125v7.062h-1.687v-9.86h1.515zm12.196 9.86v-8.548h-2.703v-1.312h2.703v-.688q0-.953.281-1.656.282-.719.782-1.203.515-.485 1.218-.735.719-.25 1.594-.25.594 0 1.156.11.578.094 1.172.25l-.187 1.39q-.375-.125-.875-.218-.5-.094-1.063-.094-1.187.016-1.781.61-.594.577-.594 1.796v.688h3.797v1.312h-3.797v8.547h-1.703zm8.955-9.86h5.047v8.406h3.218v1.453h-8.265v-1.453h3.36v-6.938h-3.36v-1.468zm3.14-2.578q0-.422.25-.704.25-.296.766-.296.5 0 .75.296.25.282.25.704 0 .406-.25.687-.25.266-.75.266-.516 0-.766-.266-.25-.281-.25-.687zm7.493 7.421q0-1.093.265-2.015.266-.938.766-1.594.516-.672 1.25-1.031.734-.375 1.64-.375.923 0 1.61.328.688.312 1.172.922l.078-1.078h1.531v9.656q0 .969-.312 1.719-.297.765-.86 1.281-.546.531-1.312.797-.766.281-1.688.281-.39 0-.89-.094-.485-.078-.985-.28-.5-.188-.968-.517-.47-.328-.813-.812l.875-1q.313.375.64.625.329.266.657.422.344.156.672.219.344.062.687.062.594 0 1.079-.172.484-.172.828-.5.343-.328.515-.828.188-.484.188-1.125v-.844q-.485.563-1.156.86-.672.297-1.563.297-.89 0-1.625-.375-.734-.391-1.234-1.063-.5-.687-.782-1.594-.265-.922-.265-1.968v-.204zm1.672.204q0 .718.156 1.359.156.64.469 1.14.328.485.828.782.5.281 1.203.281.437 0 .781-.094.36-.11.64-.297.282-.203.5-.468.22-.266.376-.578v-4.516q-.156-.313-.375-.563-.219-.265-.516-.453-.281-.187-.625-.28-.344-.11-.765-.11-.704 0-1.22.297-.5.28-.827.78-.313.5-.47 1.157-.155.64-.155 1.36v.203zm16.226 3.453q-.5.734-1.234 1.14-.734.407-1.703.407-.781 0-1.406-.235-.625-.25-1.078-.765-.438-.516-.688-1.297-.234-.782-.234-1.89v-5.86h1.687v5.875q0 .812.125 1.343.125.516.375.829.266.312.625.453.375.125.86.125 1.03 0 1.656-.422.64-.422.953-1.125v-7.078h1.687v9.86h-1.53l-.095-1.36zm11.259-8.672q.234 0 .484.015.266 0 .484.032.235.031.422.078.203.047.344.11l-.234 1.64q-.485-.11-.938-.156-.437-.047-.922-.047-1.187 0-1.922.547-.734.53-1.078 1.484v6.328h-1.687v-9.86h1.593l.094 1.563q.594-.797 1.438-1.265.843-.47 1.922-.47zm11.21 10.031q-.093-.187-.155-.469-.063-.297-.094-.61-.25.267-.563.5-.312.22-.703.392-.375.171-.812.265-.422.11-.891.11-.797 0-1.437-.22-.625-.234-1.063-.624-.437-.39-.687-.922-.235-.531-.235-1.156 0-.813.313-1.422.328-.61.922-1.016.593-.406 1.421-.594.844-.203 1.875-.203h1.829v-.78q0-.454-.172-.798-.157-.36-.453-.61-.297-.25-.735-.39-.422-.14-.969-.14-.5 0-.906.14-.39.125-.672.344-.265.203-.422.484-.14.282-.14.594h-1.688q0-.531.266-1.047.281-.531.781-.937.5-.422 1.219-.672.734-.25 1.656-.25.844 0 1.563.203.718.203 1.234.625.531.406.828 1.031.297.61.297 1.438v4.578q0 .5.094 1.047.094.547.25.968v.141h-1.75zm-2.984-1.281q.5 0 .922-.125.438-.14.782-.344.343-.203.593-.469.266-.28.407-.562v-2h-1.563q-1.469 0-2.297.437-.812.438-.812 1.375 0 .36.125.672.125.313.359.531.25.22.625.36.375.125.86.125zm16.055-3.531q0 1.046-.265 1.968-.25.907-.75 1.594-.485.672-1.203 1.063-.72.375-1.657.375-.953 0-1.656-.329-.687-.343-1.187-.984l-.079 1.125h-1.546v-14h1.687v5.203q.484-.61 1.156-.922.688-.312 1.61-.312.937 0 1.656.375.734.36 1.219 1.031.5.656.75 1.594.265.922.265 2.015v.204zm-1.687-.204q0-.718-.14-1.359-.141-.656-.454-1.156-.312-.5-.812-.781-.5-.297-1.22-.297-.437 0-.812.125-.36.11-.656.312-.281.203-.5.485-.219.265-.375.593v4.313q.156.328.375.61.234.28.516.5.297.202.656.312.375.11.812.11.688 0 1.188-.282.5-.297.812-.781.313-.5.454-1.141.156-.64.156-1.36v-.203zm4.79-8.984h5.046v12.547h3.219v1.453h-8.266v-1.453h3.36v-11.078h-3.36v-1.469zm15.288 14.188q-1.03 0-1.906-.36-.875-.36-1.5-.984-.61-.64-.953-1.516-.344-.875-.344-1.906v-.39q0-1.188.375-2.126.39-.953 1.016-1.593.64-.657 1.437-1 .813-.344 1.657-.344 1.062 0 1.86.375.796.36 1.327 1.015.531.641.781 1.532.266.875.266 1.906v.75h-7.031q.015.687.25 1.281.234.578.64 1.031.407.438.97.704.562.25 1.25.25.905 0 1.593-.36.703-.375 1.172-.969l1.031.797q-.25.375-.625.72-.36.327-.844.593-.484.265-1.093.422-.61.172-1.329.172zm-.218-8.844q-.516 0-.97.187-.452.188-.812.547-.359.36-.625.89-.25.516-.343 1.204h5.297v-.125q-.016-.5-.188-.984-.156-.485-.469-.86-.297-.39-.765-.625-.47-.234-1.125-.234z"/><path fill="#e67c73" d="M811.976 414.882h3.625v18h-3.625v-1.39h2.031v-15.235h-2.031v-1.375zm11.196 0h3.625v18h-3.625v-1.39h2.03v-15.235h-2.03v-1.375zm12.023 14.062q0-.265.078-.5.094-.25.25-.422.172-.187.422-.28.25-.095.578-.095.328 0 .578.094.25.094.407.281.172.172.25.422.093.235.093.5 0 .266-.093.5-.078.235-.25.407-.157.171-.407.265-.25.094-.578.094-.328 0-.578-.094-.25-.094-.422-.265-.156-.172-.25-.407-.078-.234-.078-.5zm0-8q0-.265.078-.5.094-.25.25-.422.172-.187.422-.28.25-.095.578-.095.328 0 .578.094.25.094.407.281.172.172.25.422.093.235.093.5 0 .266-.093.5-.078.235-.25.407-.157.171-.407.265-.25.094-.578.094-.328 0-.578-.094-.25-.094-.422-.265-.156-.172-.25-.407-.078-.234-.078-.5z"/><path fill="#4285f4" d="M858.649 417.788v2.39h3.75v1.313h-3.75v5.344q0 .578.14.953.141.375.391.594.266.219.594.312.344.094.719.094.265 0 .547-.031.296-.031.578-.078.28-.047.515-.094.25-.047.407-.094l.234 1.203q-.219.125-.516.22-.297.093-.656.155-.344.078-.75.11-.39.047-.781.047-.656 0-1.235-.188-.562-.187-.984-.594-.422-.406-.672-1.047-.234-.64-.234-1.562v-5.344h-2.578v-1.312h2.578v-2.39h1.703zm13.664 2.219q.235 0 .485.015.265 0 .484.032.234.031.422.078.203.047.344.11l-.235 1.64q-.484-.11-.937-.156-.438-.047-.922-.047-1.188 0-1.922.547-.734.53-1.078 1.484v6.328h-1.688v-9.86h1.594l.094 1.563q.594-.797 1.437-1.265.844-.47 1.922-.47zm11.133 8.672q-.5.734-1.234 1.14-.734.407-1.703.407-.781 0-1.406-.235-.625-.25-1.079-.765-.437-.516-.687-1.297-.234-.782-.234-1.89v-5.86h1.687v5.875q0 .812.125 1.343.125.516.375.829.266.312.625.453.375.125.86.125 1.03 0 1.656-.422.64-.422.953-1.125v-7.078h1.687v9.86h-1.531l-.094-1.36zm9.149 1.547q-1.031 0-1.906-.36t-1.5-.984q-.61-.64-.953-1.516-.344-.875-.344-1.906v-.39q0-1.188.375-2.126.39-.953 1.015-1.593.641-.657 1.438-1 .812-.344 1.656-.344 1.063 0 1.86.375.796.36 1.328 1.015.53.641.78 1.532.267.875.267 1.906v.75h-7.032q.016.687.25 1.281.235.578.64 1.031.407.438.97.704.562.25 1.25.25.906 0 1.593-.36.704-.375 1.172-.969l1.032.797q-.25.375-.625.72-.36.327-.844.593-.485.265-1.094.422-.61.172-1.328.172zm-.219-8.844q-.515 0-.969.187-.453.188-.812.547-.36.36-.625.89-.25.516-.344 1.204h5.297v-.125q-.016-.5-.187-.984-.157-.485-.47-.86-.296-.39-.765-.625-.469-.234-1.125-.234z"/><path fill="#34a853" d="M343.756 63.587c0-6.283 5.093-11.376 11.375-11.376H497.2a11.376 11.376 0 0 1 11.376 11.376v45.5c0 6.283-5.093 11.376-11.376 11.376H355.131c-6.282 0-11.375-5.093-11.375-11.375z" fill-rule="evenodd"/><path stroke="#666" stroke-linejoin="round" stroke-linecap="butt" d="M343.756 63.587c0-6.283 5.093-11.376 11.375-11.376H497.2a11.376 11.376 0 0 1 11.376 11.376v45.5c0 6.283-5.093 11.376-11.376 11.376H355.131c-6.282 0-11.375-5.093-11.375-11.375z"/><path fill="#fff" d="M372.82 76.984h3.657l.015 13.14q-.015 1.345-.515 2.47-.5 1.109-1.375 1.921-.86.797-2.047 1.25-1.172.438-2.531.438-1.422 0-2.594-.36-1.172-.374-2.016-1.093-.843-.719-1.312-1.813-.469-1.093-.485-2.578h3.672q.016 1.531.672 2.219.672.672 2.063.672.625 0 1.14-.235.532-.234.89-.656.376-.422.563-1 .204-.578.204-1.234v-13.14zm16.903 14q0-.5-.187-.937-.172-.453-.594-.828-.422-.391-1.11-.704-.671-.328-1.687-.593-1.234-.344-2.36-.844-1.124-.516-1.984-1.219-.86-.719-1.375-1.672T379.911 82q0-1.203.5-2.172.515-.984 1.406-1.672.906-.687 2.125-1.062 1.219-.375 2.656-.375 1.485 0 2.703.437 1.235.422 2.125 1.203.89.781 1.375 1.844.5 1.062.5 2.344h-3.562q-.031-.641-.235-1.172-.203-.531-.609-.906-.39-.391-.984-.61-.578-.219-1.375-.219-.735 0-1.297.188-.563.172-.953.484-.39.313-.594.75-.203.438-.203.953 0 .532.265.97.266.421.766.765.516.344 1.234.64.72.282 1.641.516 1.297.39 2.39.938 1.094.546 1.876 1.296.797.735 1.234 1.704.438.953.438 2.125 0 1.25-.516 2.218-.5.969-1.39 1.64-.876.673-2.094 1.017-1.22.343-2.672.343-.89 0-1.782-.172-.89-.156-1.718-.484-.813-.344-1.516-.844-.703-.515-1.219-1.187-.5-.688-.797-1.547-.296-.86-.296-1.906h3.593q.032.859.297 1.484.281.61.766 1 .484.39 1.172.578.687.172 1.5.172.734 0 1.297-.172.562-.172.953-.469.39-.296.593-.718.22-.422.22-.938zm19.372-3.125q0 1.813-.485 3.36-.469 1.53-1.39 2.64-.907 1.11-2.22 1.735-1.296.609-2.937.609-1.64 0-2.922-.61-1.265-.624-2.14-1.734-.875-1.125-1.328-2.656-.453-1.531-.453-3.344v-2.765q0-1.829.453-3.36t1.328-2.64q.875-1.125 2.14-1.75 1.266-.625 2.907-.625 1.656 0 2.953.625 1.312.625 2.219 1.75.921 1.109 1.39 2.64.485 1.531.485 3.36v2.765zm-3.704-2.797q0-1.156-.187-2.125-.188-.984-.594-1.687-.406-.703-1.047-1.094-.625-.39-1.515-.39-.891 0-1.485.39-.593.39-.968 1.094-.36.703-.516 1.687-.156.969-.156 2.125v2.797q0 1.14.156 2.125.156.969.516 1.688.375.718.968 1.125.594.39 1.5.39.875 0 1.5-.39.64-.407 1.032-1.11.406-.718.593-1.687.203-.985.203-2.14v-2.798zm19.31 3.985q0 1.562-.36 2.89-.344 1.313-1.031 2.266-.688.937-1.72 1.469-1.015.53-2.39.53-1.234 0-2.14-.452-.907-.469-1.547-1.313l-.172 1.5h-3.266v-20h3.625v7.188q.625-.719 1.469-1.125.86-.406 2-.406 1.39 0 2.422.53 1.031.532 1.719 1.485.687.953 1.03 2.281.36 1.313.36 2.875v.282zm-3.626-.282q0-.859-.14-1.625-.125-.765-.438-1.343-.312-.578-.86-.922-.546-.344-1.374-.344-.985 0-1.61.422-.609.422-.953 1.14v5.61q.344.734.953 1.156.625.406 1.641.406.813 0 1.344-.312.547-.328.86-.89.312-.563.437-1.329.14-.781.14-1.687v-.282zm9.09-6.906h7.203v14.406q0 1.407-.406 2.407-.39 1.015-1.172 1.672-.765.656-1.875.968-1.093.313-2.515.313-.594 0-1.188-.047t-1.14-.172l.171-2.937q.157.03.438.062.281.031.578.047.297.031.563.031.265.016.39.016.531 0 .985-.125.468-.11.796-.39.329-.266.516-.72.203-.453.203-1.125V84.812h-3.547V81.86zm3.297-3.61q0-.421.14-.78.157-.36.423-.61.281-.25.656-.39.39-.141.86-.141.952 0 1.515.547.578.531.578 1.375t-.578 1.39q-.563.532-1.516.532-.468 0-.859-.141-.375-.14-.656-.39-.266-.266-.422-.61-.14-.36-.14-.781zm17.372 17.954q-1.625 0-2.954-.531-1.328-.547-2.28-1.453-.954-.922-1.47-2.157-.515-1.25-.515-2.672v-.515q0-1.625.5-2.953.515-1.328 1.422-2.297.922-.969 2.172-1.5t2.718-.531q1.516 0 2.703.5 1.204.5 2.032 1.421.828.907 1.25 2.188.437 1.281.437 2.828v1.531h-9.562q.11.719.422 1.313.328.594.812 1.031.5.422 1.14.656.641.235 1.391.235.532 0 1.063-.094.531-.11 1-.313.484-.203.906-.5.422-.312.734-.703l1.797 1.953q-.328.47-.875.938-.53.469-1.28.828-.735.344-1.642.563-.89.234-1.921.234zm-.438-11.688q-.61 0-1.125.22-.5.218-.89.624-.376.406-.641.969-.25.547-.39 1.234h5.937v-.281q-.016-.578-.219-1.078-.188-.516-.563-.875-.359-.375-.89-.594-.531-.219-1.219-.219zm15.825 8.797q.546 0 1.015-.156.485-.156.844-.437.375-.297.578-.704.203-.406.172-.89h3.406q.031 1.094-.453 2.031-.469.938-1.297 1.61-.812.671-1.906 1.062-1.078.375-2.281.375-1.64 0-2.89-.547-1.235-.547-2.063-1.516-.813-.968-1.25-2.25-.422-1.296-.422-2.78v-.391q0-1.485.422-2.782.421-1.297 1.25-2.25.828-.968 2.062-1.531 1.234-.562 2.86-.562 1.296 0 2.406.39t1.906 1.11q.797.703 1.234 1.718.453 1 .422 2.25h-3.406q.031-.515-.156-.984-.188-.469-.547-.813-.344-.343-.844-.546-.484-.204-1.062-.204-.86 0-1.422.36-.563.344-.89.937-.33.578-.47 1.344-.14.75-.14 1.563v.39q0 .813.125 1.578.14.766.468 1.344.329.578.891.938.578.343 1.438.343zm16.402-14.906v3.453h5.266v2.656h-5.266v6.063q0 .766.172 1.281.188.516.5.828.328.297.797.438.469.125 1.031.125.422 0 .86-.031.437-.047.828-.11.406-.062.75-.125.343-.062.578-.125l.36 2.485q-.376.218-.891.39-.5.156-1.079.25-.562.11-1.187.156-.625.063-1.219.063-1.156 0-2.11-.297-.937-.312-1.609-.953-.671-.64-1.03-1.64-.36-1-.36-2.391v-6.407h-3.219V81.86h3.219v-3.453h3.61z"/><path fill="#bdbdbd" d="M354.764 120.642h142.582v59.716H354.764z" fill-rule="evenodd"/><path stroke="#666" stroke-linejoin="round" stroke-linecap="butt" d="M354.764 120.642h142.582v59.716H354.764z"/><path fill="#000" d="M421.666 150.477l.86-8.5h8.75v2.11h-6.922l-.485 4.547q.5-.297 1.203-.516.704-.219 1.641-.219 1.172 0 2.11.406.937.407 1.593 1.157.656.734 1 1.797.36 1.046.36 2.343 0 1.22-.329 2.266-.328 1.031-.984 1.797-.656.75-1.672 1.187-1 .422-2.36.422-1.046 0-1.984-.297-.921-.297-1.64-.875-.719-.593-1.188-1.484-.453-.89-.578-2.063h2.063q.203 1.454 1.078 2.204.875.75 2.25.75.765 0 1.36-.282.609-.28 1-.78.405-.517.609-1.22.218-.718.218-1.609 0-.797-.234-1.484-.234-.688-.672-1.188-.422-.516-1.062-.812-.625-.297-1.454-.297-.53 0-.921.078t-.72.219q-.312.14-.593.343-.266.188-.562.453l-1.735-.453z"/><path fill="#bdbdbd" d="M354.764 180.345h142.582v59.717H354.764z" fill-rule="evenodd"/><path stroke="#666" stroke-linejoin="round" stroke-linecap="butt" d="M354.764 180.345h142.582v59.717H354.764z"/><path fill="#000" d="M428.885 201.665v1.953h-.188q-1.078 0-1.937.22-.844.218-1.484.608-.641.391-1.11.922-.453.532-.765 1.172-.297.625-.47 1.313-.155.687-.202 1.406.297-.36.687-.672.406-.312.86-.531.468-.235 1-.36.546-.14 1.125-.14 1.28 0 2.203.484.922.485 1.515 1.281.61.797.89 1.813.282 1 .282 2.047 0 1.187-.344 2.25-.328 1.047-1 1.844-.656.78-1.656 1.25-.984.453-2.281.453-.938 0-1.703-.266-.766-.281-1.375-.734-.61-.47-1.063-1.094-.453-.64-.765-1.36-.297-.734-.453-1.515-.141-.781-.141-1.578v-1.016q0-1.172.14-2.344.157-1.187.5-2.265.36-1.078.954-2.016.593-.937 1.5-1.625.906-.703 2.156-1.094 1.266-.406 2.937-.406h.188zm-2.828 7.688q-.563 0-1.078.187-.516.172-.97.485-.437.312-.78.765-.328.438-.532.985v.718q0 1.125.266 2 .281.875.734 1.47.454.593 1.047.905.61.313 1.266.313.75 0 1.328-.281.594-.297 1-.813t.61-1.234q.203-.735.203-1.578 0-.75-.188-1.454-.187-.703-.578-1.25-.375-.562-.969-.89-.578-.328-1.36-.328z"/><path d="M469.984 459.016l162.803-98.898"/><path stroke="#666" stroke-width="4" stroke-linejoin="round" stroke-linecap="butt" d="M482.94 451.145l129.335-78.567"/><path fill="#666" stroke="#666" stroke-width="4" stroke-linecap="butt" d="M471.694 457.977a6.58 6.58 0 1 1 11.247-6.832 6.58 6.58 0 0 1-11.247 6.832z"/><path fill="#666" stroke="#666" stroke-width="4" stroke-linecap="butt" d="M615.706 378.225l12.084-15.07-18.945 3.777z" fill-rule="evenodd"/></g></svg>